<?xml version="1.0" encoding="utf-8"?>
<svg version="1.1" xmlns:xlink="http://www.w3.org/1999/xlink" width="17px" height="19px" xmlns="http://www.w3.org/2000/svg">
  <g transform="matrix(1 0 0 1 -164 -929 )">
    <path d="M 13.9563802083335 17.44140625  C 14.0965711805554 17.3071056547619  14.1666666666665 17.1480654761905  14.1666666666665 16.9642857142857  C 14.1666666666665 16.7805059523809  14.0965711805554 16.6214657738095  13.9563802083335 16.4871651785714  C 13.8161892361111 16.3528645833333  13.6501736111111 16.2857142857143  13.4583333333335 16.2857142857143  C 13.2664930555554 16.2857142857143  13.1004774305554 16.3528645833333  12.9602864583335 16.4871651785714  C 12.8200954861111 16.6214657738095  12.75 16.7805059523809  12.75 16.9642857142857  C 12.75 17.1480654761905  12.8200954861111 17.3071056547619  12.9602864583335 17.44140625  C 13.1004774305554 17.5757068452381  13.2664930555554 17.6428571428572  13.4583333333335 17.6428571428572  C 13.6501736111111 17.6428571428572  13.8161892361111 17.5757068452381  13.9563802083335 17.44140625  Z M 15.2291666666665 10.7670200892857  C 15.4652777777778 10.0707775297619  15.5833333333335 9.43638392857144  15.5833333333335 8.86383928571433  C 15.5833333333335 7.52790178571433  14.9672309027778 6.85993303571433  13.7350260416665 6.85993303571433  C 13.5431857638889 6.85993303571433  13.3365885416665 6.87760416666669  13.115234375 6.91294642857144  C 12.9971788194446 6.70089285714283  12.8034939236111 6.53301711309524  12.5341796875 6.40931919642856  C 12.2648654513889 6.28562127976193  11.9937065972222 6.22377232142856  11.720703125 6.22377232142856  C 11.4476996527778 6.22377232142856  11.1931423611111 6.28738839285717  10.95703125 6.41462053571433  C 10.5881076388889 6.03999255952385  10.1490885416665 5.85267857142856  9.63997395833348 5.85267857142856  C 9.45551215277783 5.85267857142856  9.25075954861109 5.88802083333331  9.02571614583348 5.95870535714283  C 8.80067274305543 6.02938988095241  8.62543402777783 6.11774553571433  8.5 6.22377232142856  L 8.5 2.71428571428567  C 8.5 2.34672619047615  8.35980902777783 2.02864583333331  8.07942708333348 1.76004464285717  C 7.79904513888891 1.49144345238091  7.46701388888891 1.35714285714283  7.08333333333348 1.35714285714283  C 6.70703125 1.35714285714283  6.37684461805543 1.49497767857144  6.0927734375 1.77064732142856  C 5.80870225694457 2.04631696428567  5.66666666666652 2.36086309523807  5.66666666666652 2.71428571428567  L 5.66666666666652 8.82142857142856  C 5.51909722222217 8.82142857142856  5.34016927083348 8.76841517857144  5.1298828125 8.66238839285717  C 4.91959635416652 8.55636160714283  4.71668836805543 8.43973214285717  4.52115885416652 8.3125  C 4.32562934027783 8.18526785714283  4.07476128472217 8.06863839285717  3.7685546875 7.96261160714283  C 3.46234809027783 7.85658482142856  3.15060763888891 7.80357142857144  2.83333333333348 7.80357142857144  C 2.33897569444457 7.80357142857144  1.97927517361109 7.96084449404759  1.75423177083348 8.275390625  C 1.52918836805543 8.58993675595241  1.41666666666652 8.99813988095241  1.41666666666652 9.5  C 1.41666666666652 9.66964285714283  1.92947048611109 9.98772321428566  2.955078125 10.4542410714286  C 3.27973090277783 10.6238839285714  3.51953125 10.7546502976191  3.67447916666652 10.8465401785714  C 4.14670138888891 11.1292782738095  4.681640625 11.5251116071428  5.279296875 12.0340401785714  C 5.876953125 12.5359002976191  6.26801215277783 12.8928571428572  6.45247395833348 13.1049107142857  C 6.873046875 13.5926339285714  7.08333333333348 14.0874255952381  7.08333333333348 14.5892857142857  L 7.08333333333348 14.9285714285714  L 14.1666666666665 14.9285714285714  L 14.1666666666665 14.5892857142857  C 14.1666666666665 14.0803571428572  14.2847222222222 13.4901413690476  14.5208333333335 12.8186383928572  C 14.7569444444446 12.1471354166667  14.9930555555554 11.4632626488095  15.2291666666665 10.7670200892857  Z M 16.1090494791665 6.40401785714283  C 16.7030164930554 7.01190476190476  17 7.81417410714283  17 8.81082589285717  C 17 9.75093005952385  16.7454427083335 10.8889508928572  16.236328125 12.2248883928572  C 15.8009982638889 13.3841145833333  15.5833333333335 14.1722470238095  15.5833333333335 14.5892857142857  L 15.5833333333335 17.6428571428572  C 15.5833333333335 18.0174851190476  15.4449869791665 18.3373325892857  15.1682942708335 18.6023995535714  C 14.8916015625 18.8674665178572  14.5577256944446 19  14.1666666666665 19  L 7.08333333333348 19  C 6.69227430555543 19  6.3583984375 18.8674665178572  6.08170572916652 18.6023995535714  C 5.80501302083348 18.3373325892857  5.66666666666652 18.0174851190476  5.66666666666652 17.6428571428572  L 5.66666666666652 14.5892857142857  C 5.66666666666652 14.5186011904761  5.65006510416652 14.4426153273809  5.61686197916652 14.361328125  C 5.58365885416652 14.2800409226191  5.53200954861109 14.1969866071428  5.4619140625 14.1121651785714  C 5.39181857638891 14.02734375  5.32541232638891 13.9478236607143  5.2626953125 13.8736049107143  C 5.19997829861109 13.7993861607143  5.11697048611109 13.7145647321428  5.013671875 13.619140625  C 4.91037326388891 13.5237165178572  4.8310546875 13.4512648809524  4.77571614583348 13.4017857142857  C 4.72037760416652 13.3523065476191  4.64105902777783 13.28515625  4.53776041666652 13.2003348214286  C 4.43446180555543 13.1155133928572  4.37174479166652 13.0660342261905  4.349609375 13.0518973214286  C 3.80360243055543 12.5924479166667  3.32769097222217 12.2390252976191  2.921875 11.9916294642857  C 2.76692708333348 11.8997395833333  2.53819444444457 11.7831101190476  2.23567708333348 11.6417410714286  C 1.93315972222217 11.5003720238095  1.66753472222217 11.3696056547619  1.43880208333348 11.2494419642857  C 1.21006944444457 11.1292782738095  0.977647569444571 10.9861421130952  0.741536458333485 10.8200334821428  C 0.505425347222172 10.6539248511905  0.322808159722172 10.4595424107143  0.193684895833485 10.2368861607143  C 0.0645616319445708 10.0142299107143  0 9.76860119047615  0 9.5  C 0 8.61644345238091  0.247178819444571 7.88662574404759  0.741536458333485 7.310546875  C 1.23589409722217 6.73446800595241  1.93315972222217 6.44642857142856  2.83333333333348 6.44642857142856  C 3.33506944444457 6.44642857142856  3.80729166666652 6.52418154761909  4.25 6.6796875  L 4.25 2.71428571428567  C 4.25 1.97916666666669  4.53038194444457 1.34300595238091  5.09114583333348 0.805803571428555  C 5.65190972222217 0.268601190476204  6.31228298611109 0  7.072265625 0  C 7.84700520833348 0  8.51475694444457 0.266834077380906  9.07552083333348 0.800502232142833  C 9.63628472222217 1.33417038690476  9.91666666666652 1.97209821428567  9.91666666666652 2.71428571428567  L 9.91666666666652 4.50613839285717  C 10.3741319444446 4.53441220238091  10.8131510416665 4.66517857142856  11.2337239583335 4.8984375  C 11.388671875 4.87723214285717  11.5473090277778 4.86662946428567  11.7096354166665 4.86662946428567  C 12.4548611111111 4.86662946428567  13.1115451388889 5.07868303571433  13.6796875 5.50279017857144  C 14.7052951388889 5.49572172619048  15.5150824652778 5.79613095238091  16.1090494791665 6.40401785714283  Z " fill-rule="nonzero" fill="#000000" stroke="none" transform="matrix(1 0 0 1 164 929 )" />
  </g>
</svg>