<?xml version="1.0" encoding="utf-8"?>
<svg version="1.1" xmlns:xlink="http://www.w3.org/1999/xlink" width="23px" height="23px" xmlns="http://www.w3.org/2000/svg">
  <g transform="matrix(1 0 0 1 -1413 -22 )">
    <path d="M 10.3499999999999 16.1  L 10.3499999999999 18.4  L 12.6500000000001 18.4  L 12.6500000000001 16.1  L 10.3499999999999 16.1  Z M 23 11.5  C 23 5.152  17.848 0  11.5 0  C 5.15200000000004 0  0 5.152  0 11.5  C 0 17.848  5.15200000000004 23  11.5 23  C 17.848 23  23 17.848  23 11.5  Z M 20.7 11.5  C 20.7 16.5715  16.5715 20.7  11.5 20.7  C 6.42849999999999 20.7  2.29999999999995 16.5715  2.29999999999995 11.5  C 2.29999999999995 6.4285  6.42849999999999 2.3  11.5 2.3  C 16.5715 2.3  20.7 6.4285  20.7 11.5  Z M 16.0999999999999 9.2  C 16.0999999999999 6.6585  14.0415 4.6  11.5 4.6  C 8.95849999999996 4.6  6.90000000000009 6.6585  6.90000000000009 9.2  L 9.20000000000005 9.2  C 9.20000000000005 7.935  10.2349999999999 6.9  11.5 6.9  C 12.7650000000001 6.9  13.8 7.935  13.8 9.2  C 13.8 11.5  10.3499999999999 11.2125  10.3499999999999 14.95  L 12.6500000000001 14.95  C 12.6500000000001 12.3625  16.0999999999999 12.075  16.0999999999999 9.2  Z " fill-rule="nonzero" fill="#666666" stroke="none" transform="matrix(1 0 0 1 1413 22 )" />
  </g>
</svg>