<?xml version="1.0" encoding="utf-8"?>
<svg version="1.1" xmlns:xlink="http://www.w3.org/1999/xlink" width="14px" height="14px" xmlns="http://www.w3.org/2000/svg">
  <g transform="matrix(1 0 0 1 -1552 -1490 )">
    <path d="M 14 12.8073184676957  L 10.0057175528875 8.80503144654085  L 9.36935391652355 8.80503144654085  L 9.14922813036014 8.58490566037744  C 9.9336763865067 7.67638650657523  10.4059462550028 6.49571183533453  10.4059462550028 5.20297312750154  C 10.4059462550028 2.32933104631229  8.07661520869055 0  5.20297312750154 0  C 2.32933104631229 0  0 2.32933104631229  0 5.20297312750154  C 0 8.07661520869055  2.32933104631229 10.4059462550028  5.20297312750154 10.4059462550028  C 6.49571183533453 10.4059462550028  7.67638650657523 9.9336763865067  8.58490566037744 9.15323041738134  L 8.80503144654085 9.37335620354497  L 8.80503144654085 10.0057175528875  L 12.8073184676957 14  L 14 12.8073184676957  Z M 8.80503144654085 5.20297312750154  C 8.80503144654085 7.1921097770155  7.1921097770155 8.80503144654085  5.20297312750154 8.80503144654085  C 3.21383647798734 8.80503144654085  1.60091480846199 7.1921097770155  1.60091480846199 5.20297312750154  C 1.60091480846199 3.21383647798734  3.21383647798734 1.60091480846199  5.20297312750154 1.60091480846199  C 7.1921097770155 1.60091480846199  8.80503144654085 3.21383647798734  8.80503144654085 5.20297312750154  Z " fill-rule="nonzero" fill="#c0c4cc" stroke="none" transform="matrix(1 0 0 1 1552 1490 )" />
  </g>
</svg>