<?xml version="1.0" encoding="utf-8"?>
<svg version="1.1" xmlns:xlink="http://www.w3.org/1999/xlink" width="21px" height="21px" xmlns="http://www.w3.org/2000/svg">
  <g transform="matrix(1 0 0 1 -1333 -22 )">
    <path d="M 20.7926655465581 13.2615  L 18.5155987781977 11.52375  C 18.5587659207256 11.18775  18.5911412776218 10.8465  18.5911412776218 10.5  C 18.5911412776218 10.1535  18.5587659207256 9.81225  18.5155987781977 9.47625  L 20.7980614393739 7.7385  C 21.0031053663829 7.581  21.062460187359 7.2975  20.9275628669584 7.0665  L 18.7692057405507 3.42825  C 18.6343084201501 3.2025  18.353721993717 3.108  18.1109068169962 3.2025  L 15.4237521946181 4.25775  C 14.8679752345681 3.843  14.2582393463579 3.49125  13.5999404228035 3.2235  L 13.195248461602 0.440999999999999  C 13.1466854262578 0.19425  12.9254538208011 0  12.6556591799999 0  L 8.338944927184 0  C 8.06915028638309 0  7.84791868092611 0.19425  7.80475153839802 0.440999999999999  L 7.40005957719654 3.2235  C 6.74176065364213 3.49125  6.13202476543188 3.83775  5.57624780538185 4.25775  L 2.88909318300375 3.2025  C 2.64627800628296 3.11325  2.36569157984991 3.2025  2.23079425944934 3.42825  L 0.0724371330416034 7.0665  C -0.0624601873589654 7.29225  -0.00310536638289705 7.57575  0.201938560626104 7.7385  L 2.4790053289862 9.47625  C 2.43583818645811 9.81225  2.40346282956216 10.1535  2.40346282956216 10.5  C 2.40346282956216 10.8465  2.43583818645811 11.18775  2.4790053289862 11.52375  L 0.201938560626104 13.2615  C -0.00310536638289705 13.419  -0.0624601873589654 13.7025  0.0724371330416034 13.9335  L 2.23079425944934 17.57175  C 2.36569157984991 17.7975  2.64627800628296 17.892  2.88909318300375 17.7975  L 5.57624780538185 16.74225  C 6.13202476543188 17.157  6.74176065364213 17.50875  7.40005957719654 17.7765  L 7.80475153839802 20.559  C 7.84791868092611 20.80575  8.06915028638309 21  8.338944927184 21  L 12.6556591799999 21  C 12.9254538208011 21  13.1466854262578 20.80575  13.1898525687861 20.559  L 13.5945445299874 17.7765  C 14.2528434535418 17.50875  14.8625793417521 17.16225  15.4183563018021 16.74225  L 18.1055109241802 17.7975  C 18.348326100901 17.88675  18.628912527334 17.7975  18.7638098477346 17.57175  L 20.9221669741426 13.9335  C 21.0570642945429 13.70775  20.9977094735668 13.42425  20.7926655465581 13.2615  Z M 14.2744270248061 10.5  C 14.2744270248061 12.53175  12.5855125733917 14.175  10.497302053592 14.175  C 8.40909153379221 14.175  6.72017708237809 12.53175  6.72017708237809 10.5  C 6.72017708237809 8.46825  8.40909153379221 6.825  10.497302053592 6.825  C 12.5855125733917 6.825  14.2744270248061 8.46825  14.2744270248061 10.5  Z " fill-rule="nonzero" fill="#666666" stroke="none" transform="matrix(1 0 0 1 1333 22 )" />
  </g>
</svg>