<?xml version="1.0" encoding="utf-8"?>
<svg version="1.1" xmlns:xlink="http://www.w3.org/1999/xlink" width="15px" height="15px" xmlns="http://www.w3.org/2000/svg">
  <g transform="matrix(1 0 0 1 -268 -1207 )">
    <path d="M 275.5 1207  C 279.7 1207  283 1210.3  283 1214.5  C 283 1218.7  279.7 1222  275.5 1222  C 271.3 1222  268 1218.7  268 1214.5  C 268 1210.3  271.3 1207  275.5 1207  Z " fill-rule="nonzero" fill="#ffffff" stroke="none" fill-opacity="0" />
    <path d="M 275.5 1207.5  C 279.42 1207.5  282.5 1210.58  282.5 1214.5  C 282.5 1218.42  279.42 1221.5  275.5 1221.5  C 271.58 1221.5  268.5 1218.42  268.5 1214.5  C 268.5 1210.58  271.58 1207.5  275.5 1207.5  Z " stroke-width="1" stroke="#797979" fill="none" />
  </g>
</svg>