<?xml version="1.0" encoding="utf-8"?>
<svg version="1.1" xmlns:xlink="http://www.w3.org/1999/xlink" width="9px" height="5px" xmlns="http://www.w3.org/2000/svg">
  <g transform="matrix(1 0 0 1 -1149 -1492 )">
    <path d="M 8.8330078125 4.05381944444525  C 8.9443359375 4.16377314814781  9 4.29398148148175  9 4.44444444444525  C 9 4.59490740740694  8.9443359375 4.72511574074088  8.8330078125 4.83506944444525  C 8.7216796875 4.94502314814781  8.58984375 5  8.4375 5  L 0.5625 5  C 0.41015625 5  0.2783203125 4.94502314814781  0.1669921875 4.83506944444525  C 0.0556640625 4.72511574074088  0 4.59490740740694  0 4.44444444444525  C 0 4.29398148148175  0.0556640625 4.16377314814781  0.1669921875 4.05381944444525  L 4.1044921875 0.164930555554747  C 4.2158203125 0.0549768518521887  4.34765625 0  4.5 0  C 4.65234375 0  4.7841796875 0.0549768518521887  4.8955078125 0.164930555554747  L 8.8330078125 4.05381944444525  Z " fill-rule="nonzero" fill="#cbcbcb" stroke="none" transform="matrix(1 0 0 1 1149 1492 )" />
  </g>
</svg>