<?xml version="1.0" encoding="utf-8"?>
<svg version="1.1" xmlns:xlink="http://www.w3.org/1999/xlink" width="9px" height="5px" xmlns="http://www.w3.org/2000/svg">
  <g transform="matrix(1 0 0 1 -1149 -1499 )">
    <path d="M 8.8330078125 0.164930555554747  C 8.9443359375 0.274884259259125  9 0.405092592593064  9 0.555555555554747  C 9 0.706018518518249  8.9443359375 0.836226851852189  8.8330078125 0.946180555554747  L 4.8955078125 4.83506944444525  C 4.7841796875 4.94502314814781  4.65234375 5  4.5 5  C 4.34765625 5  4.2158203125 4.94502314814781  4.1044921875 4.83506944444525  L 0.1669921875 0.946180555554747  C 0.0556640625 0.836226851852189  0 0.706018518518249  0 0.555555555554747  C 0 0.405092592593064  0.0556640625 0.274884259259125  0.1669921875 0.164930555554747  C 0.2783203125 0.0549768518521887  0.41015625 0  0.5625 0  L 8.4375 0  C 8.58984375 0  8.7216796875 0.0549768518521887  8.8330078125 0.164930555554747  Z " fill-rule="nonzero" fill="#cbcbcb" stroke="none" transform="matrix(1 0 0 1 1149 1499 )" />
  </g>
</svg>