<?xml version="1.0" encoding="utf-8"?>
<svg version="1.1" xmlns:xlink="http://www.w3.org/1999/xlink" width="17px" height="14px" xmlns="http://www.w3.org/2000/svg">
  <g transform="matrix(1 0 0 1 -1232 -26 )">
    <path d="M 3.11160714285688 10.7386363636364  C 3.4657738095234 11.1098484848485  3.64285714285688 11.5606060606061  3.64285714285688 12.0909090909091  C 3.64285714285688 12.6212121212121  3.4657738095234 13.0719696969697  3.11160714285688 13.4431818181818  C 2.75744047619082 13.8143939393939  2.32738095238119 14  1.8214285714289 14  C 1.3154761904766 14  0.885416666666515 13.8143939393939  0.53125 13.4431818181818  C 0.177083333333485 13.0719696969697  0 12.6212121212121  0 12.0909090909091  C 0 11.5606060606061  0.177083333333485 11.1098484848485  0.53125 10.7386363636364  C 0.885416666666515 10.3674242424242  1.3154761904766 10.1818181818182  1.8214285714289 10.1818181818182  C 2.32738095238119 10.1818181818182  2.75744047619082 10.3674242424242  3.11160714285688 10.7386363636364  Z M 3.11160714285688 5.64772727272728  C 3.4657738095234 6.01893939393938  3.64285714285688 6.46969696969697  3.64285714285688 7  C 3.64285714285688 7.53030303030303  3.4657738095234 7.98106060606062  3.11160714285688 8.35227272727272  C 2.75744047619082 8.72348484848484  2.32738095238119 8.90909090909093  1.8214285714289 8.90909090909093  C 1.3154761904766 8.90909090909093  0.885416666666515 8.72348484848484  0.53125 8.35227272727272  C 0.177083333333485 7.98106060606062  0 7.53030303030303  0 7  C 0 6.46969696969697  0.177083333333485 6.01893939393938  0.53125 5.64772727272728  C 0.885416666666515 5.27651515151516  1.3154761904766 5.09090909090907  1.8214285714289 5.09090909090907  C 2.32738095238119 5.09090909090907  2.75744047619082 5.27651515151516  3.11160714285688 5.64772727272728  Z M 16.9098772321431 10.9126420454545  C 16.9699590773812 10.975615530303  17 11.0501893939394  17 11.1363636363636  L 17 13.0454545454545  C 17 13.1316287878788  16.9699590773812 13.2062026515152  16.9098772321431 13.2691761363636  C 16.8497953869046 13.3321496212121  16.7786458333335 13.3636363636364  16.6964285714289 13.3636363636364  L 5.16071428571422 13.3636363636364  C 5.07849702380918 13.3636363636364  5.00734747023807 13.3321496212121  4.947265625 13.2691761363636  C 4.88718377976193 13.2062026515152  4.85714285714312 13.1316287878788  4.85714285714312 13.0454545454545  L 4.85714285714312 11.1363636363636  C 4.85714285714312 11.0501893939394  4.88718377976193 10.975615530303  4.947265625 10.9126420454545  C 5.00734747023807 10.8496685606061  5.07849702380918 10.8181818181818  5.16071428571422 10.8181818181818  L 16.6964285714289 10.8181818181818  C 16.7786458333335 10.8181818181818  16.8497953869046 10.8496685606061  16.9098772321431 10.9126420454545  Z M 3.11160714285688 0.556818181818187  C 3.4657738095234 0.928030303030312  3.64285714285688 1.37878787878788  3.64285714285688 1.90909090909093  C 3.64285714285688 2.43939393939391  3.4657738095234 2.8901515151515  3.11160714285688 3.26136363636365  C 2.75744047619082 3.63257575757578  2.32738095238119 3.81818181818181  1.8214285714289 3.81818181818181  C 1.3154761904766 3.81818181818181  0.885416666666515 3.63257575757578  0.53125 3.26136363636365  C 0.177083333333485 2.8901515151515  0 2.43939393939391  0 1.90909090909093  C 0 1.37878787878788  0.177083333333485 0.928030303030312  0.53125 0.556818181818187  C 0.885416666666515 0.185606060606091  1.3154761904766 0  1.8214285714289 0  C 2.32738095238119 0  2.75744047619082 0.185606060606091  3.11160714285688 0.556818181818187  Z M 16.9098772321431 5.82173295454547  C 16.9699590773812 5.88470643939391  17 5.95928030303031  17 6.04545454545453  L 17 7.95454545454547  C 17 8.04071969696969  16.9699590773812 8.11529356060606  16.9098772321431 8.17826704545453  C 16.8497953869046 8.24124053030303  16.7786458333335 8.27272727272728  16.6964285714289 8  L 5.16071428571422 8  C 5.07849702380918 8.27272727272728  5.00734747023807 8.24124053030303  4.947265625 8.17826704545453  C 4.88718377976193 8.11529356060606  4.85714285714312 8.04071969696969  4.85714285714312 7.95454545454547  L 4.85714285714312 6.04545454545453  C 4.85714285714312 5.95928030303031  4.88718377976193 5.88470643939391  4.947265625 5.82173295454547  C 5.00734747023807 5.75875946969697  5.07849702380918 5.72727272727272  5.16071428571422 6  L 16.6964285714289 6  C 16.7786458333335 5.72727272727272  16.8497953869046 5.75875946969697  16.9098772321431 5.82173295454547  Z M 16.9098772321431 0.730823863636346  C 16.9699590773812 0.793797348484844  17 0.868371212121218  17 0.954545454545467  L 17 2.86363636363635  C 17 2.94981060606062  16.9699590773812 3.02438446969697  16.9098772321431 3.08735795454547  C 16.8497953869046 3.15033143939391  16.7786458333335 3.18181818181819  16.6964285714289 3.18181818181819  L 5.16071428571422 3.18181818181819  C 5.07849702380918 3.18181818181819  5.00734747023807 3.15033143939391  4.947265625 3.08735795454547  C 4.88718377976193 3.02438446969697  4.85714285714312 2.94981060606062  4.85714285714312 2.86363636363635  L 4.85714285714312 0.954545454545467  C 4.85714285714312 0.868371212121218  4.88718377976193 0.793797348484844  4.947265625 0.730823863636346  C 5.00734747023807 0.667850378787875  5.07849702380918 0.636363636363654  5.16071428571422 0.636363636363654  L 16.6964285714289 0.636363636363654  C 16.7786458333335 0.636363636363654  16.8497953869046 0.667850378787875  16.9098772321431 0.730823863636346  Z " fill-rule="nonzero" fill="#666666" stroke="none" transform="matrix(1 0 0 1 1232 26 )" />
  </g>
</svg>