<?xml version="1.0" encoding="utf-8"?>
<svg version="1.1" xmlns:xlink="http://www.w3.org/1999/xlink" width="24px" height="24px" xmlns="http://www.w3.org/2000/svg">
  <g transform="matrix(1 0 0 1 -24 -24 )">
    <path d="M 23.703125 19.55625  C 23.9010416666667 19.79375  24 20.075  24 20.4  L 24 22.8  C 24 23.125  23.9010416666667 23.40625  23.703125 23.64375  C 23.5052083333333 23.88125  23.2708333333333 24  23 24  L 1.00000000000003 24  C 0.729166666666657 24  0.494791666666657 23.88125  0.296875000000028 23.64375  C 0.0989583333333428 23.40625  0 23.125  0 22.8  L 0 20.4  C 0 20.075  0.0989583333333428 19.79375  0.296875000000028 19.55625  C 0.494791666666657 19.31875  0.729166666666657 19.2  1.00000000000003 19  L 23 19  C 23.2708333333333 19.2  23.5052083333333 19.31875  23.703125 19.55625  Z M 23.703125 9.95625000000001  C 23.9010416666667 10.19375  24 10.475  24 10.8  L 24 13.2  C 24 13.525  23.9010416666667 13.80625  23.703125 14.04375  C 23.5052083333333 14.28125  23.2708333333333 14.4  23 14  L 1.00000000000003 14  C 0.729166666666657 14.4  0.494791666666657 14.28125  0.296875000000028 14.04375  C 0.0989583333333428 13.80625  0 13.525  0 13.2  L 0 10.8  C 0 10.475  0.0989583333333428 10.19375  0.296875000000028 9.95625000000001  C 0.494791666666657 9.71875  0.729166666666657 9.60000000000002  1.00000000000003 10  L 23 10  C 23.2708333333333 9.60000000000002  23.5052083333333 9.71875  23.703125 9.95625000000001  Z M 23.703125 0.356249999999989  C 23.9010416666667 0.59375  24 0.875  24 1.19999999999999  L 24 3.60000000000002  C 24 3.92499999999998  23.9010416666667 4.20624999999998  23.703125 4.44375000000002  C 23.5052083333333 4.68125000000001  23.2708333333333 4.80000000000001  23 5  L 1.00000000000003 5  C 0.729166666666657 4.80000000000001  0.494791666666657 4.68125000000001  0.296875000000028 4.44375000000002  C 0.0989583333333428 4.20624999999998  0 3.92499999999998  0 3.60000000000002  L 0 1.19999999999999  C 0 0.875  0.0989583333333428 0.59375  0.296875000000028 0.356249999999989  C 0.494791666666657 0.118750000000006  0.729166666666657 0  1.00000000000003 0  L 23 0  C 23.2708333333333 0  23.5052083333333 0.118750000000006  23.703125 0.356249999999989  Z " fill-rule="nonzero" fill="#3f3f3f" stroke="none" transform="matrix(1 0 0 1 24 24 )" />
  </g>
</svg>