<?xml version="1.0" encoding="utf-8"?>
<svg version="1.1" xmlns:xlink="http://www.w3.org/1999/xlink" width="14px" height="12px" xmlns="http://www.w3.org/2000/svg">
  <g transform="matrix(1 0 0 1 -1125 -27 )">
    <path d="M 5.06490384615381 10.1420454545454  C 5.27804487179492 10.3579545454546  5.38461538461547 10.6136363636364  5.38461538461547 10.9090909090909  C 5.38461538461547 11.2045454545454  5.27804487179492 11.4602272727273  5.06490384615381 11.6761363636363  C 4.85176282051282 11.8920454545455  4.59935897435901 12  4.30769230769226 12  C 4.01602564102564 12  3.76362179487182 11.8920454545455  3.55048076923072 11.6761363636363  C 3.33733974358972 11.4602272727273  3.23076923076928 11.2045454545454  3.23076923076928 10.9090909090909  C 3.23076923076928 10.6136363636364  3.33733974358972 10.3579545454546  3.55048076923072 10.1420454545454  C 3.76362179487182 9.92613636363637  4.01602564102564 9.81818181818181  4.30769230769226 9.81818181818181  C 4.59935897435901 9.81818181818181  4.85176282051282 9.92613636363637  5.06490384615381 10.1420454545454  Z M 12.6033653846155 10.1420454545454  C 12.8165064102564 10.3579545454546  12.9230769230769 10.6136363636364  12.9230769230769 10.9090909090909  C 12.9230769230769 11.2045454545454  12.8165064102564 11.4602272727273  12.6033653846155 11.6761363636363  C 12.3902243589744 11.8920454545455  12.1378205128206 12  11.8461538461538 12  C 11.5544871794872 12  11.3020833333333 11.8920454545455  11.0889423076923 11.6761363636363  C 10.8758012820513 11.4602272727273  10.7692307692307 11.2045454545454  10.7692307692307 10.9090909090909  C 10.7692307692307 10.6136363636364  10.8758012820513 10.3579545454546  11.0889423076923 10.1420454545454  C 11.3020833333333 9.92613636363637  11.5544871794872 9.81818181818181  11.8461538461538 9.81818181818181  C 12.1378205128206 9.81818181818181  12.3902243589744 9.92613636363637  12.6033653846155 10.1420454545454  Z M 13.8401442307691 1.25284090909091  C 13.9467147435898 1.36079545454544  14 1.48863636363637  14 1.63636363636365  L 14 6  C 14 6.13636363636365  13.9537259615386 6.25710227272728  13.8611778846155 6.36221590909091  C 13.7686298076924 6.46732954545456  13.6550480769231 6.52840909090909  13.5204326923076 6.54545454545456  L 4.73677884615381 7.58522727272725  C 4.80969551282055 7.92613636363635  4.84615384615381 8.125  4.84615384615381 8.18181818181819  C 4.84615384615381 8.27272727272728  4.77884615384619 8.45454545454544  4.64423076923072 8.72727272727275  L 12.3846153846155 8.72727272727275  C 12.5304487179488 8.72727272727275  12.6566506410256 8.78125  12.7632211538462 8.88920454545456  C 12.8697916666666 8.99715909090909  12.9230769230769 9.125  12.9230769230769 9.27272727272725  C 12.9230769230769 9.42045454545456  12.8697916666666 9.54829545454547  12.7632211538462 9.65625  C 12.6566506410256 9.76420454545453  12.5304487179488 9.81818181818181  12.3846153846155 9.81818181818181  L 3.76923076923072 9.81818181818181  C 3.62339743589746 9.81818181818181  3.49719551282055 9.76420454545453  3.390625 9.65625  C 3.28405448717945 9.54829545454547  3.23076923076928 9.42045454545456  3.23076923076928 9.27272727272725  C 3.23076923076928 9.21022727272728  3.25320512820508 9.12073863636363  3.29807692307691 9.00426136363635  C 3.34294871794873 8.88778409090907  3.38782051282055 8.78551136363637  3.43269230769226 8.69744318181819  C 3.47756410256409 8.609375  3.53786057692309 8.49573863636363  3.61358173076928 8.35653409090909  C 3.68930288461547 8.21732954545453  3.73277243589746 8.13352272727272  3.74399038461547 8.10511363636365  L 2.25480769230774 1.09090909090909  L 0.538461538461547 1.09090909090909  C 0.392628205128176 1.09090909090909  0.26642628205127 1.03693181818181  0.159855769230717 0.928977272727252  C 0.0532852564102768 0.82102272727272  0 0.693181818181813  0 0.545454545454561  C 0 0.39772727272728  0.0532852564102768 0.269886363636374  0.159855769230717 0.161931818181813  C 0.26642628205127 0.0539772727272805  0.392628205128176 0  0.538461538461547 0  L 2.69230769230774 0  C 2.78205128205127 0  2.86197916666674 0.0184659090909065  2.93209134615381 0.0553977272727479  C 3.00220352564099 0.092329545454561  3.05689102564099 0.136363636363654  3.09615384615381 0.1875  C 3.13541666666674 0.238636363636346  3.171875 0.308238636363626  3.20552884615381 0.396306818181813  C 3.23918269230774 0.484375  3.26161858974353 0.558238636363654  3.27283653846155 0.617897727272748  C 3.28405448717945 0.677556818181813  3.29947916666674 0.761363636363626  3.31911057692309 0.869318181818187  C 3.33874198717945 0.97727272727272  3.35136217948718 1.05113636363637  3.35697115384619 1  L 13.4615384615386 1  C 13.6073717948718 1.09090909090909  13.7335737179487 1.14488636363637  13.8401442307691 1.25284090909091  Z " fill-rule="nonzero" fill="#666666" stroke="none" transform="matrix(1 0 0 1 1125 27 )" />
  </g>
</svg>