<?xml version="1.0" encoding="utf-8"?>
<svg version="1.1" xmlns:xlink="http://www.w3.org/1999/xlink" width="28px" height="28px" xmlns="http://www.w3.org/2000/svg">
  <g transform="matrix(1 0 0 1 -829 -368 )">
    <path d="M 843 369  C 850.28 369  856 374.72  856 382  C 856 389.28  850.28 395  843 395  C 835.72 395  830 389.28  830 382  C 830 374.72  835.72 369  843 369  Z " fill-rule="nonzero" fill="#ffffff" stroke="none" fill-opacity="0" />
    <path d="M 843 369  C 850.28 369  856 374.72  856 382  C 856 389.28  850.28 395  843 395  C 835.72 395  830 389.28  830 382  C 830 374.72  835.72 369  843 369  Z " stroke-width="2" stroke="#cccccc" fill="none" />
  </g>
</svg>