<?xml version="1.0" encoding="utf-8"?>
<svg version="1.1" xmlns:xlink="http://www.w3.org/1999/xlink" width="12px" height="12px" viewBox="728 10777  12 12" xmlns="http://www.w3.org/2000/svg">
  <path d="M 734 10777  C 737.36 10777  740 10779.64  740 10783  C 740 10786.36  737.36 10789  734 10789  C 730.64 10789  728 10786.36  728 10783  C 728 10779.64  730.64 10777  734 10777  Z " fill-rule="nonzero" fill="#ffffff" stroke="none" />
  <path d="M 734 10777.5  C 737.08 10777.5  739.5 10779.92  739.5 10783  C 739.5 10786.08  737.08 10788.5  734 10788.5  C 730.92 10788.5  728.5 10786.08  728.5 10783  C 728.5 10779.92  730.92 10777.5  734 10777.5  Z " stroke-width="1" stroke="#797979" fill="none" />
  <path d="M 734 10786  C 732.32 10786  731 10784.68  731 10783  C 731 10781.32  732.32 10780  734 10780  C 735.68 10780  737 10781.32  737 10783  C 737 10784.68  735.68 10786  734 10786  " fill-rule="nonzero" fill="#797979" stroke="none" />
</svg>