<?xml version="1.0" encoding="utf-8"?>
<svg version="1.1" xmlns:xlink="http://www.w3.org/1999/xlink" width="12px" height="12px" viewBox="659 10777  12 12" xmlns="http://www.w3.org/2000/svg">
  <path d="M 665 10777  C 668.36 10777  671 10779.64  671 10783  C 671 10786.36  668.36 10789  665 10789  C 661.64 10789  659 10786.36  659 10783  C 659 10779.64  661.64 10777  665 10777  Z " fill-rule="nonzero" fill="#ffffff" stroke="none" />
  <path d="M 665 10777.5  C 668.08 10777.5  670.5 10779.92  670.5 10783  C 670.5 10786.08  668.08 10788.5  665 10788.5  C 661.92 10788.5  659.5 10786.08  659.5 10783  C 659.5 10779.92  661.92 10777.5  665 10777.5  Z " stroke-width="1" stroke="#797979" fill="none" />
  <path d="M 665 10786  C 663.32 10786  662 10784.68  662 10783  C 662 10781.32  663.32 10780  665 10780  C 666.68 10780  668 10781.32  668 10783  C 668 10784.68  666.68 10786  665 10786  " fill-rule="nonzero" fill="#797979" stroke="none" />
</svg>