<?xml version="1.0" encoding="utf-8"?>
<svg version="1.1" xmlns:xlink="http://www.w3.org/1999/xlink" width="12px" height="12px" viewBox="659 7481  12 12" xmlns="http://www.w3.org/2000/svg">
  <path d="M 665 7481  C 668.36 7481  671 7483.64  671 7487  C 671 7490.36  668.36 7493  665 7493  C 661.64 7493  659 7490.36  659 7487  C 659 7483.64  661.64 7481  665 7481  Z " fill-rule="nonzero" fill="#ffffff" stroke="none" />
  <path d="M 665 7481.5  C 668.08 7481.5  670.5 7483.92  670.5 7487  C 670.5 7490.08  668.08 7492.5  665 7492.5  C 661.92 7492.5  659.5 7490.08  659.5 7487  C 659.5 7483.92  661.92 7481.5  665 7481.5  Z " stroke-width="1" stroke="#797979" fill="none" />
  <path d="M 665 7490  C 663.32 7490  662 7488.68  662 7487  C 662 7485.32  663.32 7484  665 7484  C 666.68 7484  668 7485.32  668 7487  C 668 7488.68  666.68 7490  665 7490  " fill-rule="nonzero" fill="#797979" stroke="none" />
</svg>