<?xml version="1.0" encoding="utf-8"?>
<svg version="1.1" xmlns:xlink="http://www.w3.org/1999/xlink" width="12px" height="15px" xmlns="http://www.w3.org/2000/svg">
  <defs>
    <mask fill="white" id="clip45">
      <path d="M 0.85714285714289 3.19999999999982  L 0.85714285714289 12.7999999999993  C 0.85714285714289 13.6839999999993  1.62428571428563 14.3999999999996  2.57142857142844 14.3999999999996  L 9.42857142857156 14.3999999999996  C 10.3757142857144 14.3999999999996  11.1428571428571 13.6839999999993  11.1428571428571 12.7999999999993  L 11.1428571428571 3.19999999999982  L 0.85714285714289 3.19999999999982  Z M 12 2.40000000000055  L 12 0.800000000001091  L 9 0.800000000001091  L 8.14285714285711 0  L 3.85714285714289 0  L 3 0.800000000001091  L 0 0.800000000001091  L 0 2.40000000000055  L 12 2.40000000000055  Z " fill-rule="evenodd" />
    </mask>
  </defs>
  <g transform="matrix(1 0 0 1 -550 -6026 )">
    <path d="M 0.85714285714289 3.19999999999982  L 0.85714285714289 12.7999999999993  C 0.85714285714289 13.6839999999993  1.62428571428563 14.3999999999996  2.57142857142844 14.3999999999996  L 9.42857142857156 14.3999999999996  C 10.3757142857144 14.3999999999996  11.1428571428571 13.6839999999993  11.1428571428571 12.7999999999993  L 11.1428571428571 3.19999999999982  L 0.85714285714289 3.19999999999982  Z M 12 2.40000000000055  L 12 0.800000000001091  L 9 0.800000000001091  L 8.14285714285711 0  L 3.85714285714289 0  L 3 0.800000000001091  L 0 0.800000000001091  L 0 2.40000000000055  L 12 2.40000000000055  Z " fill-rule="nonzero" fill="#ffffff" stroke="none" transform="matrix(1 0 0 1 550 6026 )" />
    <path d="M 0.85714285714289 3.19999999999982  L 0.85714285714289 12.7999999999993  C 0.85714285714289 13.6839999999993  1.62428571428563 14.3999999999996  2.57142857142844 14.3999999999996  L 9.42857142857156 14.3999999999996  C 10.3757142857144 14.3999999999996  11.1428571428571 13.6839999999993  11.1428571428571 12.7999999999993  L 11.1428571428571 3.19999999999982  L 0.85714285714289 3.19999999999982  Z " stroke-width="2" stroke="#108ee9" fill="none" transform="matrix(1 0 0 1 550 6026 )" mask="url(#clip45)" />
    <path d="M 12 2.40000000000055  L 12 0.800000000001091  L 9 0.800000000001091  L 8.14285714285711 0  L 3.85714285714289 0  L 3 0.800000000001091  L 0 0.800000000001091  L 0 2.40000000000055  L 12 2.40000000000055  Z " stroke-width="2" stroke="#108ee9" fill="none" transform="matrix(1 0 0 1 550 6026 )" mask="url(#clip45)" />
  </g>
</svg>