<?xml version="1.0" encoding="utf-8"?>
<svg version="1.1" xmlns:xlink="http://www.w3.org/1999/xlink" width="13px" height="13px" xmlns="http://www.w3.org/2000/svg">
  <g transform="matrix(1 0 0 1 -439 -1637 )">
    <path d="M 5.84999999999997 9.09999999999991  L 5.84999999999997 10.4000000000001  L 7.15000000000003 10.4000000000001  L 7.15000000000003 9.09999999999991  L 5.84999999999997 9.09999999999991  Z M 13 6.5  C 13 2.91200000000026  10.088 0  6.5 0  C 2.91199999999998 0  0 2.91200000000026  0 6.5  C 0 10.0879999999997  2.91199999999998 13  6.5 13  C 10.088 13  13 10.0879999999997  13 6.5  Z M 11.7 6.5  C 11.7 9.36650000000009  9.36650000000003 11.7000000000003  6.5 11.7000000000003  C 3.63349999999997 11.7000000000003  1.30000000000001 9.36650000000009  1.30000000000001 6.5  C 1.30000000000001 3.63349999999991  3.63349999999997 1.29999999999973  6.5 1.29999999999973  C 9.36650000000003 1.29999999999973  11.7 3.63349999999991  11.7 6.5  Z M 9.09999999999997 5.20000000000027  C 9.09999999999997 3.76350000000002  7.93650000000002 2.59999999999991  6.5 2.59999999999991  C 5.06349999999998 2.59999999999991  3.90000000000003 3.76350000000002  3.90000000000003 5.20000000000027  L 5.19999999999999 5.20000000000027  C 5.19999999999999 4.48499999999967  5.78499999999997 3.90000000000009  6.5 3.90000000000009  C 7.21500000000003 3.90000000000009  7.80000000000001 4.48499999999967  7.80000000000001 5.20000000000027  C 7.80000000000001 6.5  5.84999999999997 6.33750000000009  5.84999999999997 8.45000000000027  L 7.15000000000003 8.45000000000027  C 7.15000000000003 6.98749999999973  9.09999999999997 6.82500000000027  9.09999999999997 5.20000000000027  Z " fill-rule="nonzero" fill="#ffffff" stroke="none" transform="matrix(1 0 0 1 439 1637 )" />
  </g>
</svg>