<?xml version="1.0" encoding="utf-8"?>
<svg version="1.1" xmlns:xlink="http://www.w3.org/1999/xlink" width="22px" height="26px" xmlns="http://www.w3.org/2000/svg">
  <g transform="matrix(1 0 0 1 -1430 -491 )">
    <path d="M 18.3333333333333 7.42857142857143  C 18.3333333333333 8.85044642857143  17.9561631944443 10.1659226190476  17.2018229166667 11.375  C 17.6506076388889 11.5104166666667  18.0779079861111 11.6941964285714  18.4837239583333 11.9263392857143  C 18.8895399305557 12.1584821428571  19.314453125 12.5115327380952  19.7584635416667 12.9854910714286  C 20.2024739583333 13.4594494047619  20.58203125 14.0180431547619  20.8971354166667 14.6612723214286  C 21.2122395833333 15.3045014880952  21.4748263888889 16.1363467261905  21.6848958333333 17.1568080357143  C 21.8949652777776 18.1772693452381  22 19.3210565476191  22 20.5881696428571  C 22 22.0777529761905  21.5225694444443 23.3521205357143  20.5677083333333 24.4112723214286  C 19.6128472222224 25.4704241071429  18.4622395833333 26  17.1158854166667 26  L 4.88411458333326 26  C 3.53776041666674 26  2.3871527777776 25.4704241071429  1.43229166666674 24.4112723214286  C 0.477430555555657 23.3521205357143  0 22.0777529761905  0 20.5881696428571  C 0 19.3210565476191  0.105034722222399 18.1772693452381  0.315104166666742 17.1568080357143  C 0.525173611111086 16.1363467261905  0.787760416666742 15.3045014880952  1.10286458333326 14.6612723214286  C 1.41796875 14.0180431547619  1.79752604166674 13.4594494047619  2.24153645833326 12.9854910714286  C 2.685546875 12.5115327380952  3.11046006944434 12.1584821428571  3.51627604166674 11.9263392857143  C 3.92209201388891 11.6941964285714  4.34939236111109 11.5104166666667  4.79817708333326 11.375  C 4.04383680555566 10.1659226190476  3.66666666666674 8.85044642857143  3.66666666666674 7.42857142857143  C 3.66666666666674 6.42261904761904  3.86002604166674 5.46261160714285  4.24674479166674 4.54854910714285  C 4.63346354166674 3.63448660714285  5.15625 2.84375  5.81510416666674 2.17633928571428  C 6.47395833333326 1.50892857142857  7.25455729166674 0.979352678571427  8.15690104166674 0.587611607142858  C 9.05924479166674 0.195870535714285  10.0069444444443 0  11 0  C 11.9930555555557 0  12.9407552083333 0.195870535714285  13.8430989583333 0.587611607142858  C 14.7454427083333 0.979352678571427  15.5260416666667 1.50892857142857  16.1848958333333 2.17633928571428  C 16.84375 2.84375  17.3665364583333 3.63448660714285  17.7532552083333 4.54854910714285  C 18.1399739583333 5.46261160714285  18.3333333333333 6.42261904761904  18.3333333333333 7.42857142857143  Z M 14.888671875 3.48939732142857  C 13.814453125 2.40122767857143  12.5182291666667 1.85714285714285  11 1.85714285714285  C 9.48177083333326 1.85714285714285  8.185546875 2.40122767857143  7.111328125 3.48939732142857  C 6.037109375 4.57756696428572  5.5 5.890625  5.5 7.42857142857143  C 5.5 8.96651785714285  6.037109375 10.2795758928571  7.111328125 11.3677455357143  C 8.185546875 12.4559151785714  9.48177083333326 13  11 13  C 12.5182291666667 13  13.814453125 12.4559151785714  14.888671875 11.3677455357143  C 15.962890625 10.2795758928571  16.5 8.96651785714285  16.5 7.42857142857143  C 16.5 5.890625  15.962890625 4.57756696428572  14.888671875 3.48939732142857  Z M 4.88411458333326 24  L 17.1158854166667 24  C 17.9561631944443 24.1428571428571  18.6746961805557 23.7970610119048  19.271484375 23.10546875  C 19.8682725694443 22.4138764880952  20.1666666666667 21.5747767857143  20.1666666666667 20.5881696428571  C 20.1666666666667 18.2764136904762  19.7918836805557 16.453125  19.0423177083333 15.1183035714286  C 18.2927517361111 13.7834821428571  17.2161458333333 13.0822172619048  15.8125 13.0145089285714  C 14.4279513888889 14.242931547619  12.8237847222224 14.8571428571429  11 14.8571428571429  C 9.1762152777776 14.8571428571429  7.57204861111109 14.242931547619  6.1875 13.0145089285714  C 4.78385416666674 13.0822172619048  3.70724826388891 13.7834821428571  2.95768229166674 15.1183035714286  C 2.20811631944434 16.453125  1.83333333333326 18.2764136904762  1.83333333333326 20.5881696428571  C 1.83333333333326 21.5747767857143  2.13172743055566 22.4138764880952  2.728515625 23.10546875  C 3.32530381944434 23.7970610119048  4.04383680555566 24.1428571428571  4.88411458333326 24  Z " fill-rule="nonzero" fill="#666666" stroke="none" transform="matrix(1 0 0 1 1430 491 )" />
  </g>
</svg>