<?xml version="1.0" encoding="utf-8"?>
<svg version="1.1" xmlns:xlink="http://www.w3.org/1999/xlink" width="12px" height="12px" viewBox="292 5617  12 12" xmlns="http://www.w3.org/2000/svg">
  <path d="M 298 5617  C 301.36 5617  304 5619.64  304 5623  C 304 5626.36  301.36 5629  298 5629  C 294.64 5629  292 5626.36  292 5623  C 292 5619.64  294.64 5617  298 5617  Z " fill-rule="nonzero" fill="#ffffff" stroke="none" />
  <path d="M 298 5617.5  C 301.08 5617.5  303.5 5619.92  303.5 5623  C 303.5 5626.08  301.08 5628.5  298 5628.5  C 294.92 5628.5  292.5 5626.08  292.5 5623  C 292.5 5619.92  294.92 5617.5  298 5617.5  Z " stroke-width="1" stroke="#797979" fill="none" />
  <path d="M 298 5626  C 296.32 5626  295 5624.68  295 5623  C 295 5621.32  296.32 5620  298 5620  C 299.68 5620  301 5621.32  301 5623  C 301 5624.68  299.68 5626  298 5626  " fill-rule="nonzero" fill="#797979" stroke="none" />
</svg>