<?xml version="1.0" encoding="utf-8"?>
<svg version="1.1" xmlns:xlink="http://www.w3.org/1999/xlink" width="12px" height="12px" viewBox="235 5617  12 12" xmlns="http://www.w3.org/2000/svg">
  <path d="M 241 5617  C 244.36 5617  247 5619.64  247 5623  C 247 5626.36  244.36 5629  241 5629  C 237.64 5629  235 5626.36  235 5623  C 235 5619.64  237.64 5617  241 5617  Z " fill-rule="nonzero" fill="#ffffff" stroke="none" />
  <path d="M 241 5617.5  C 244.08 5617.5  246.5 5619.92  246.5 5623  C 246.5 5626.08  244.08 5628.5  241 5628.5  C 237.92 5628.5  235.5 5626.08  235.5 5623  C 235.5 5619.92  237.92 5617.5  241 5617.5  Z " stroke-width="1" stroke="#797979" fill="none" />
  <path d="M 241 5626  C 239.32 5626  238 5624.68  238 5623  C 238 5621.32  239.32 5620  241 5620  C 242.68 5620  244 5621.32  244 5623  C 244 5624.68  242.68 5626  241 5626  " fill-rule="nonzero" fill="#797979" stroke="none" />
</svg>