<?xml version="1.0" encoding="utf-8"?>
<svg version="1.1" xmlns:xlink="http://www.w3.org/1999/xlink" width="12px" height="12px" viewBox="202 13307  12 12" xmlns="http://www.w3.org/2000/svg">
  <path d="M 208 13307  C 211.36 13307  214 13309.64  214 13313  C 214 13316.36  211.36 13319  208 13319  C 204.64 13319  202 13316.36  202 13313  C 202 13309.64  204.64 13307  208 13307  Z " fill-rule="nonzero" fill="#ffffff" stroke="none" />
  <path d="M 208 13307.5  C 211.08 13307.5  213.5 13309.92  213.5 13313  C 213.5 13316.08  211.08 13318.5  208 13318.5  C 204.92 13318.5  202.5 13316.08  202.5 13313  C 202.5 13309.92  204.92 13307.5  208 13307.5  Z " stroke-width="1" stroke="#797979" fill="none" />
  <path d="M 208 13316  C 206.32 13316  205 13314.68  205 13313  C 205 13311.32  206.32 13310  208 13310  C 209.68 13310  211 13311.32  211 13313  C 211 13314.68  209.68 13316  208 13316  " fill-rule="nonzero" fill="#797979" stroke="none" />
</svg>