<?xml version="1.0" encoding="utf-8"?>
<svg version="1.1" xmlns:xlink="http://www.w3.org/1999/xlink" width="12px" height="12px" viewBox="668 8357  12 12" xmlns="http://www.w3.org/2000/svg">
  <path d="M 674 8357  C 677.36 8357  680 8359.64  680 8363  C 680 8366.36  677.36 8369  674 8369  C 670.64 8369  668 8366.36  668 8363  C 668 8359.64  670.64 8357  674 8357  Z " fill-rule="nonzero" fill="#ffffff" stroke="none" />
  <path d="M 674 8357.5  C 677.08 8357.5  679.5 8359.92  679.5 8363  C 679.5 8366.08  677.08 8368.5  674 8368.5  C 670.92 8368.5  668.5 8366.08  668.5 8363  C 668.5 8359.92  670.92 8357.5  674 8357.5  Z " stroke-width="1" stroke="#797979" fill="none" />
  <path d="M 674 8366  C 672.32 8366  671 8364.68  671 8363  C 671 8361.32  672.32 8360  674 8360  C 675.68 8360  677 8361.32  677 8363  C 677 8364.68  675.68 8366  674 8366  " fill-rule="nonzero" fill="#797979" stroke="none" />
</svg>