<?xml version="1.0" encoding="utf-8"?>
<svg version="1.1" xmlns:xlink="http://www.w3.org/1999/xlink" width="12px" height="12px" viewBox="662 13359  12 12" xmlns="http://www.w3.org/2000/svg">
  <path d="M 668 13359  C 671.36 13359  674 13361.64  674 13365  C 674 13368.36  671.36 13371  668 13371  C 664.64 13371  662 13368.36  662 13365  C 662 13361.64  664.64 13359  668 13359  Z " fill-rule="nonzero" fill="#ffffff" stroke="none" />
  <path d="M 668 13359.5  C 671.08 13359.5  673.5 13361.92  673.5 13365  C 673.5 13368.08  671.08 13370.5  668 13370.5  C 664.92 13370.5  662.5 13368.08  662.5 13365  C 662.5 13361.92  664.92 13359.5  668 13359.5  Z " stroke-width="1" stroke="#797979" fill="none" />
  <path d="M 668 13368  C 666.32 13368  665 13366.68  665 13365  C 665 13363.32  666.32 13362  668 13362  C 669.68 13362  671 13363.32  671 13365  C 671 13366.68  669.68 13368  668 13368  " fill-rule="nonzero" fill="#797979" stroke="none" />
</svg>