<?xml version="1.0" encoding="utf-8"?>
<svg version="1.1" xmlns:xlink="http://www.w3.org/1999/xlink" width="12px" height="12px" viewBox="719 13359  12 12" xmlns="http://www.w3.org/2000/svg">
  <path d="M 725 13359  C 728.36 13359  731 13361.64  731 13365  C 731 13368.36  728.36 13371  725 13371  C 721.64 13371  719 13368.36  719 13365  C 719 13361.64  721.64 13359  725 13359  Z " fill-rule="nonzero" fill="#ffffff" stroke="none" />
  <path d="M 725 13359.5  C 728.08 13359.5  730.5 13361.92  730.5 13365  C 730.5 13368.08  728.08 13370.5  725 13370.5  C 721.92 13370.5  719.5 13368.08  719.5 13365  C 719.5 13361.92  721.92 13359.5  725 13359.5  Z " stroke-width="1" stroke="#797979" fill="none" />
  <path d="M 725 13368  C 723.32 13368  722 13366.68  722 13365  C 722 13363.32  723.32 13362  725 13362  C 726.68 13362  728 13363.32  728 13365  C 728 13366.68  726.68 13368  725 13368  " fill-rule="nonzero" fill="#797979" stroke="none" />
</svg>