<?xml version="1.0" encoding="utf-8"?>
<svg version="1.1" xmlns:xlink="http://www.w3.org/1999/xlink" width="12px" height="12px" viewBox="660 13682  12 12" xmlns="http://www.w3.org/2000/svg">
  <path d="M 666 13682  C 669.36 13682  672 13684.64  672 13688  C 672 13691.36  669.36 13694  666 13694  C 662.64 13694  660 13691.36  660 13688  C 660 13684.64  662.64 13682  666 13682  Z " fill-rule="nonzero" fill="#ffffff" stroke="none" />
  <path d="M 666 13682.5  C 669.08 13682.5  671.5 13684.92  671.5 13688  C 671.5 13691.08  669.08 13693.5  666 13693.5  C 662.92 13693.5  660.5 13691.08  660.5 13688  C 660.5 13684.92  662.92 13682.5  666 13682.5  Z " stroke-width="1" stroke="#797979" fill="none" />
  <path d="M 666 13691  C 664.32 13691  663 13689.68  663 13688  C 663 13686.32  664.32 13685  666 13685  C 667.68 13685  669 13686.32  669 13688  C 669 13689.68  667.68 13691  666 13691  " fill-rule="nonzero" fill="#797979" stroke="none" />
</svg>