<?xml version="1.0" encoding="utf-8"?>
<svg version="1.1" xmlns:xlink="http://www.w3.org/1999/xlink" width="12px" height="12px" viewBox="1124 13680  12 12" xmlns="http://www.w3.org/2000/svg">
  <path d="M 1130 13680  C 1133.36 13680  1136 13682.64  1136 13686  C 1136 13689.36  1133.36 13692  1130 13692  C 1126.64 13692  1124 13689.36  1124 13686  C 1124 13682.64  1126.64 13680  1130 13680  Z " fill-rule="nonzero" fill="#ffffff" stroke="none" />
  <path d="M 1130 13680.5  C 1133.08 13680.5  1135.5 13682.92  1135.5 13686  C 1135.5 13689.08  1133.08 13691.5  1130 13691.5  C 1126.92 13691.5  1124.5 13689.08  1124.5 13686  C 1124.5 13682.92  1126.92 13680.5  1130 13680.5  Z " stroke-width="1" stroke="#797979" fill="none" />
  <path d="M 1130 13689  C 1128.32 13689  1127 13687.68  1127 13686  C 1127 13684.32  1128.32 13683  1130 13683  C 1131.68 13683  1133 13684.32  1133 13686  C 1133 13687.68  1131.68 13689  1130 13689  " fill-rule="nonzero" fill="#797979" stroke="none" />
</svg>