<?xml version="1.0" encoding="utf-8"?>
<svg version="1.1" xmlns:xlink="http://www.w3.org/1999/xlink" width="12px" height="12px" viewBox="205 14223  12 12" xmlns="http://www.w3.org/2000/svg">
  <path d="M 211 14223  C 214.36 14223  217 14225.64  217 14229  C 217 14232.36  214.36 14235  211 14235  C 207.64 14235  205 14232.36  205 14229  C 205 14225.64  207.64 14223  211 14223  Z " fill-rule="nonzero" fill="#ffffff" stroke="none" />
  <path d="M 211 14223.5  C 214.08 14223.5  216.5 14225.92  216.5 14229  C 216.5 14232.08  214.08 14234.5  211 14234.5  C 207.92 14234.5  205.5 14232.08  205.5 14229  C 205.5 14225.92  207.92 14223.5  211 14223.5  Z " stroke-width="1" stroke="#797979" fill="none" />
  <path d="M 211 14232  C 209.32 14232  208 14230.68  208 14229  C 208 14227.32  209.32 14226  211 14226  C 212.68 14226  214 14227.32  214 14229  C 214 14230.68  212.68 14232  211 14232  " fill-rule="nonzero" fill="#797979" stroke="none" />
</svg>