<?xml version="1.0" encoding="utf-8"?>
<svg version="1.1" xmlns:xlink="http://www.w3.org/1999/xlink" width="12px" height="12px" viewBox="262 14223  12 12" xmlns="http://www.w3.org/2000/svg">
  <path d="M 268 14223  C 271.36 14223  274 14225.64  274 14229  C 274 14232.36  271.36 14235  268 14235  C 264.64 14235  262 14232.36  262 14229  C 262 14225.64  264.64 14223  268 14223  Z " fill-rule="nonzero" fill="#ffffff" stroke="none" />
  <path d="M 268 14223.5  C 271.08 14223.5  273.5 14225.92  273.5 14229  C 273.5 14232.08  271.08 14234.5  268 14234.5  C 264.92 14234.5  262.5 14232.08  262.5 14229  C 262.5 14225.92  264.92 14223.5  268 14223.5  Z " stroke-width="1" stroke="#797979" fill="none" />
  <path d="M 268 14232  C 266.32 14232  265 14230.68  265 14229  C 265 14227.32  266.32 14226  268 14226  C 269.68 14226  271 14227.32  271 14229  C 271 14230.68  269.68 14232  268 14232  " fill-rule="nonzero" fill="#797979" stroke="none" />
</svg>