<?xml version="1.0" encoding="utf-8"?>
<svg version="1.1" xmlns:xlink="http://www.w3.org/1999/xlink" width="12px" height="12px" viewBox="212 345  12 12" xmlns="http://www.w3.org/2000/svg">
  <path d="M 218 345  C 221.36 345  224 347.64  224 351  C 224 354.36  221.36 357  218 357  C 214.64 357  212 354.36  212 351  C 212 347.64  214.64 345  218 345  Z " fill-rule="nonzero" fill="#f2f2f2" stroke="none" />
  <path d="M 218 345.5  C 221.08 345.5  223.5 347.92  223.5 351  C 223.5 354.08  221.08 356.5  218 356.5  C 214.92 356.5  212.5 354.08  212.5 351  C 212.5 347.92  214.92 345.5  218 345.5  Z " stroke-width="1" stroke="#797979" fill="none" />
  <path d="M 218 354  C 216.32 354  215 352.68  215 351  C 215 349.32  216.32 348  218 348  C 219.68 348  221 349.32  221 351  C 221 352.68  219.68 354  218 354  " fill-rule="nonzero" fill="#797979" stroke="none" />
</svg>