<?xml version="1.0" encoding="utf-8"?>
<svg version="1.1" xmlns:xlink="http://www.w3.org/1999/xlink" width="23px" height="17px" xmlns="http://www.w3.org/2000/svg">
  <g transform="matrix(1 0 0 1 -1595 -6099 )">
    <path d="M 22.7729194081351 10.7355  L 20.278989138026 9.32875  C 20.3262674369853 9.05675  20.3617261612048 8.7805  20.3617261612048 8.5  C 20.3617261612048 8.2195  20.3262674369853 7.94325  20.278989138026 7.67125  L 22.7788291955048 6.2645  C 23.0034011155622 6.137  23.0684087766313 5.9075  22.920664092383 5.7205  L 20.5567491444126 2.77525  C 20.4090044601644 2.5925  20.1016955169282 2.516  19.8357550852816 2.5925  L 16.8926809750581 3.44675  C 16.2839728759557 3.111  15.616166903154 2.82625  14.8951728440229 2.6095  L 14.4519387912783 0.357  C 14.398750704949 0.15725  14.1564494227821 0  13.8609600542857 0  L 9.13313015834433 0  C 8.83764078984814 0  8.59533950768105 0.15725  8.54806120872172 0.357  L 8.10482715597709 2.6095  C 7.38383309684605 2.82625  6.71602712404433 3.10675  6.10731902494194 3.44675  L 3.16424491471844 2.5925  C 2.8983044830718 2.52025  2.5909955398356 2.5925  2.44325085558739 2.77525  L 0.0793359076169509 5.7205  C -0.0684087766312587 5.90325  -0.00340111556215561 6.13275  0.221170804495159 6.2645  L 2.71510107460404 7.67125  C 2.66782277564471 7.94325  2.63236405142516 8.2195  2.63236405142516 8.5  C 2.63236405142516 8.7805  2.66782277564471 9.05675  2.71510107460404 9.32875  L 0.221170804495159 10.7355  C -0.00340111556215561 10.863  -0.0684087766312587 11.0925  0.0793359076169509 11.2795  L 2.44325085558739 14.22475  C 2.5909955398356 14.4075  2.8983044830718 14.484  3.16424491471844 14.4075  L 6.10731902494194 13.55325  C 6.71602712404433 13.889  7.38383309684605 14.17375  8.10482715597709 14.3905  L 8.54806120872172 16.643  C 8.59533950768105 16.84275  8.83764078984814 17  9.13313015834433 17  L 13.8609600542857 17  C 14.1564494227821 17  14.398750704949 16.84275  14.4460290039085 16.643  L 14.8892630566529 14.3905  C 15.610257115784 14.17375  16.2780630885857 13.89325  16.8867711876881 13.55325  L 19.8298452979116 14.4075  C 20.0957857295582 14.47975  20.4030946727944 14.4075  20.5508393570426 14.22475  L 22.9147543050133 11.2795  C 23.0624989892613 11.09675  22.9974913281922 10.86725  22.7729194081351 10.7355  Z M 15.6338962652637 8.5  C 15.6338962652637 10.14475  13.7841328184766 11.475  11.497045106315 11.475  C 9.20995739415343 11.475  7.3601939473665 10.14475  7.3601939473665 8.5  C 7.3601939473665 6.85525  9.20995739415343 5.525  11.497045106315 5.525  C 13.7841328184766 5.525  15.6338962652637 6.85525  15.6338962652637 8.5  Z " fill-rule="nonzero" fill="#666666" stroke="none" transform="matrix(1 0 0 1 1595 6099 )" />
  </g>
</svg>