<?xml version="1.0" encoding="utf-8"?>
<svg version="1.1" xmlns:xlink="http://www.w3.org/1999/xlink" width="17px" height="11px" xmlns="http://www.w3.org/2000/svg">
  <g transform="matrix(1 0 0 1 -1433 -6102 )">
    <path d="M 3.11160714285688 8.43750000000001  C 3.4657738095234 8.72916666666668  3.64285714285688 9.08333333333334  3.64285714285688 9.49999999999998  C 3.64285714285688 9.91666666666667  3.4657738095234 10.2708333333333  3.11160714285688 10.5625  C 2.75744047619082 10.8541666666667  2.32738095238119 11  1.8214285714289 11  C 1.3154761904766 11  0.885416666666515 10.8541666666667  0.53125 10.5625  C 0.177083333333485 10.2708333333333  0 9.91666666666667  0 9.49999999999998  C 0 9.08333333333334  0.177083333333485 8.72916666666668  0.53125 8.43750000000001  C 0.885416666666515 8.14583333333332  1.3154761904766 8  1.8214285714289 8  C 2.32738095238119 8  2.75744047619082 8.14583333333332  3.11160714285688 8.43750000000001  Z M 3.11160714285688 4.43750000000001  C 3.4657738095234 4.72916666666665  3.64285714285688 5.08333333333333  3.64285714285688 5.5  C 3.64285714285688 5.91666666666667  3.4657738095234 6.27083333333335  3.11160714285688 6.56249999999999  C 2.75744047619082 6.85416666666666  2.32738095238119 7.00000000000002  1.8214285714289 7.00000000000002  C 1.3154761904766 7.00000000000002  0.885416666666515 6.85416666666666  0.53125 6.56249999999999  C 0.177083333333485 6.27083333333335  0 5.91666666666667  0 5.5  C 0 5.08333333333333  0.177083333333485 4.72916666666665  0.53125 4.43750000000001  C 0.885416666666515 4.14583333333334  1.3154761904766 3.99999999999998  1.8214285714289 3.99999999999998  C 2.32738095238119 3.99999999999998  2.75744047619082 4.14583333333334  3.11160714285688 4.43750000000001  Z M 16.9098772321431 8.57421874999999  C 16.9699590773812 8.62369791666667  17 8.68229166666665  17 8.74999999999999  L 17 10.25  C 17 10.3177083333333  16.9699590773812 10.3763020833333  16.9098772321431 10.42578125  C 16.8497953869046 10.4752604166667  16.7786458333335 10.5  16.6964285714289 10.5  L 5.16071428571422 10.5  C 5.07849702380918 10.5  5.00734747023807 10.4752604166667  4.947265625 10.42578125  C 4.88718377976193 10.3763020833333  4.85714285714312 10.3177083333333  4.85714285714312 10.25  L 4.85714285714312 8.74999999999999  C 4.85714285714312 8.68229166666665  4.88718377976193 8.62369791666667  4.947265625 8.57421874999999  C 5.00734747023807 8.52473958333334  5.07849702380918 8.5  5.16071428571422 8.5  L 16.6964285714289 8.5  C 16.7786458333335 8.5  16.8497953869046 8.52473958333334  16.9098772321431 8.57421874999999  Z M 3.11160714285688 0.437500000000004  C 3.4657738095234 0.729166666666674  3.64285714285688 1.08333333333333  3.64285714285688 1.50000000000002  C 3.64285714285688 1.91666666666664  3.4657738095234 2.27083333333332  3.11160714285688 2.56250000000001  C 2.75744047619082 2.85416666666668  2.32738095238119 3  1.8214285714289 3  C 1.3154761904766 3  0.885416666666515 2.85416666666668  0.53125 2.56250000000001  C 0.177083333333485 2.27083333333332  0 1.91666666666664  0 1.50000000000002  C 0 1.08333333333333  0.177083333333485 0.729166666666674  0.53125 0.437500000000004  C 0.885416666666515 0.145833333333357  1.3154761904766 0  1.8214285714289 0  C 2.32738095238119 0  2.75744047619082 0.145833333333357  3.11160714285688 0.437500000000004  Z M 16.9098772321431 4.57421875000001  C 16.9699590773812 4.62369791666664  17 4.68229166666667  17 4.74999999999999  L 17 6.25000000000001  C 17 6.31770833333333  16.9699590773812 6.37630208333333  16.9098772321431 6.42578124999999  C 16.8497953869046 6.47526041666667  16.7786458333335 6.50000000000001  16.6964285714289 6.50000000000001  L 5.16071428571422 6.50000000000001  C 5.07849702380918 6.50000000000001  5.00734747023807 6.47526041666667  4.947265625 6.42578124999999  C 4.88718377976193 6.37630208333333  4.85714285714312 6.31770833333333  4.85714285714312 6.25000000000001  L 4.85714285714312 4.74999999999999  C 4.85714285714312 4.68229166666667  4.88718377976193 4.62369791666664  4.947265625 4.57421875000001  C 5.00734747023807 4.52473958333333  5.07849702380918 4.49999999999999  5.16071428571422 4.49999999999999  L 16.6964285714289 4.49999999999999  C 16.7786458333335 4.49999999999999  16.8497953869046 4.52473958333333  16.9098772321431 4.57421875000001  Z M 16.9098772321431 0.574218749999986  C 16.9699590773812 0.623697916666663  17 0.682291666666671  17 0.75000000000001  L 17 2.24999999999999  C 17 2.31770833333335  16.9699590773812 2.37630208333333  16.9098772321431 2.42578125000001  C 16.8497953869046 2.47526041666664  16.7786458333335 2.5  16.6964285714289 2.5  L 5.16071428571422 2.5  C 5.07849702380918 2.5  5.00734747023807 2.47526041666664  4.947265625 2.42578125000001  C 4.88718377976193 2.37630208333333  4.85714285714312 2.31770833333335  4.85714285714312 2.24999999999999  L 4.85714285714312 0.75000000000001  C 4.85714285714312 0.682291666666671  4.88718377976193 0.623697916666663  4.947265625 0.574218749999986  C 5.00734747023807 0.524739583333331  5.07849702380918 0.500000000000014  5.16071428571422 0.500000000000014  L 16.6964285714289 0.500000000000014  C 16.7786458333335 0.500000000000014  16.8497953869046 0.524739583333331  16.9098772321431 0.574218749999986  Z " fill-rule="nonzero" fill="#666666" stroke="none" transform="matrix(1 0 0 1 1433 6102 )" />
  </g>
</svg>