<?xml version="1.0" encoding="utf-8"?>
<svg version="1.1" xmlns:xlink="http://www.w3.org/1999/xlink" width="20px" height="17px" xmlns="http://www.w3.org/2000/svg">
  <g transform="matrix(1 0 0 1 -1547 -6099 )">
    <path d="M 16.6666666666665 4.85714285714286  C 16.6666666666665 5.78683035714286  16.3237847222222 6.6469494047619  15.6380208333335 7.4375  C 16.0460069444443 7.52604166666666  16.4344618055557 7.64620535714286  16.8033854166665 7.79799107142857  C 17.1723090277778 7.94977678571429  17.55859375 8.1806175595238  17.9622395833335 8.49051339285714  C 18.3658854166665 8.80040922619047  18.7109375 9.16564360119047  18.9973958333335 9.58621651785715  C 19.2838541666665 10.0067894345238  19.5225694444443 10.5506882440476  19.7135416666665 11.2179129464286  C 19.9045138888889 11.8851376488095  20 12.6329985119048  20 13.4614955357143  C 20 14.4354538690476  19.5659722222222 15.2686941964286  18.6979166666665 15.9612165178571  C 17.8298611111111 16.6537388392857  16.7838541666665 17  15.5598958333335 17  L 4.44010416666652 17  C 3.21614583333348 17  2.17013888888891 16.6537388392857  1.30208333333348 15.9612165178571  C 0.434027777777828 15.2686941964286  0 14.4354538690476  0 13.4614955357143  C 0 12.6329985119048  0.0954861111110858 11.8851376488095  0.286458333333485 11.2179129464286  C 0.477430555555657 10.5506882440476  0.716145833333485 10.0067894345238  1.00260416666652 9.58621651785715  C 1.2890625 9.16564360119047  1.63411458333348 8.80040922619047  2.03776041666652 8.49051339285714  C 2.44140625 8.1806175595238  2.82769097222217 7.94977678571429  3.19661458333348 7.79799107142857  C 3.56553819444434 7.64620535714286  3.95399305555566 7.52604166666666  4.36197916666652 7.4375  C 3.67621527777783 6.6469494047619  3.33333333333348 5.78683035714286  3.33333333333348 4.85714285714286  C 3.33333333333348 4.19940476190476  3.50911458333348 3.57170758928571  3.86067708333348 2.97405133928571  C 4.21223958333348 2.37639508928571  4.6875 1.859375  5.28645833333348 1.42299107142857  C 5.88541666666652 0.986607142857144  6.59505208333348 0.640345982142856  7.41536458333348 0.384207589285714  C 8.23567708333348 0.12806919642857  9.09722222222217 0  10 0  C 10.9027777777778 0  11.7643229166665 0.12806919642857  12.5846354166665 0.384207589285714  C 13.4049479166665 0.640345982142856  14.1145833333335 0.986607142857144  14.7135416666665 1.42299107142857  C 15.3125 1.859375  15.7877604166665 2.37639508928571  16.1393229166665 2.97405133928571  C 16.4908854166665 3.57170758928571  16.6666666666665 4.19940476190476  16.6666666666665 4.85714285714286  Z M 13.53515625 2.28152901785714  C 12.55859375 1.57003348214286  11.3802083333335 1.21428571428571  10 1.21428571428571  C 8.61979166666652 1.21428571428571  7.44140625 1.57003348214286  6.46484375 2.28152901785714  C 5.48828125 2.99302455357143  5 3.8515625  5 4.85714285714286  C 5 5.86272321428571  5.48828125 6.72126116071429  6.46484375 7.43275669642857  C 7.44140625 8.14425223214286  8.61979166666652 8.5  10 8.5  C 11.3802083333335 8.5  12.55859375 8.14425223214286  13.53515625 7.43275669642857  C 14.51171875 6.72126116071429  15 5.86272321428571  15 4.85714285714286  C 15 3.8515625  14.51171875 2.99302455357143  13.53515625 2.28152901785714  Z M 4.44010416666652 15.7857142857143  L 15.5598958333335 15.7857142857143  C 16.3237847222222 15.7857142857143  16.9769965277778 15.5596168154762  17.51953125 15.107421875  C 18.0620659722222 14.6552269345238  18.3333333333335 14.1065848214286  18.3333333333335 13.4614955357143  C 18.3333333333335 11.9499627976191  17.9926215277778 10.7578125  17.3111979166665 9.88504464285715  C 16.6297743055557 9.01227678571429  15.6510416666665 8.55375744047619  14.375 8.50948660714285  C 13.1163194444443 9.31268601190476  11.6579861111111 9.71428571428571  10 9.71428571428571  C 8.34201388888891 9.71428571428571  6.88368055555566 9.31268601190476  5.625 8.50948660714285  C 4.34895833333348 8.55375744047619  3.37022569444434 9.01227678571429  2.68880208333348 9.88504464285715  C 2.00737847222217 10.7578125  1.66666666666652 11.9499627976191  1.66666666666652 13.4614955357143  C 1.66666666666652 14.1065848214286  1.93793402777783 14.6552269345238  2.48046875 15.107421875  C 3.02300347222217 15.5596168154762  3.67621527777783 15.7857142857143  4.44010416666652 15.7857142857143  Z " fill-rule="nonzero" fill="#666666" stroke="none" transform="matrix(1 0 0 1 1547 6099 )" />
  </g>
</svg>