<?xml version="1.0" encoding="utf-8"?>
<svg version="1.1" xmlns:xlink="http://www.w3.org/1999/xlink" width="8px" height="4px" xmlns="http://www.w3.org/2000/svg">
  <g transform="matrix(1 0 0 1 -362 -2985 )">
    <path d="M 7.91983967935886 0.380650277557493  C 7.97327989311964 0.422944752841659  8 0.471583399418478  8 0.526566217287893  C 8 0.581549035157309  7.97327989311964 0.630187681734071  7.91983967935886 0.672482157018237  L 4.18436873747487 3.62886597938143  C 4.13092852371409 3.6711604546656  4.06947227788913 3.69230769230768  4 3.69230769230768  C 3.93052772211087 3.69230769230768  3.86907147628591 3.6711604546656  3.81563126252513 3.62886597938143  L 0.0801603206411414 0.672482157018237  C 0.0267201068803615 0.630187681734071  0 0.581549035157309  0 0.526566217287893  C 0 0.471583399418478  0.0267201068803615 0.422944752841659  0.0801603206411414 0.380650277557493  L 0.480961923847644 0.0634417129262488  C 0.534402137608424 0.0211472376420829  0.595858383433381 0  0.665330661322514 0  C 0.734802939211647 0  0.796259185036604 0.0211472376420829  0.849699398797725 0.0634417129262488  L 4 2.5567010309278  L 7.15030060120228 0.0634417129262488  C 7.2037408149634 0.0211472376420829  7.26519706078835 0  7.33466933867749 0  C 7.40414161656662 0  7.46559786239158 0.0211472376420829  7.51903807615236 0.0634417129262488  L 7.91983967935886 0.380650277557493  Z " fill-rule="nonzero" fill="#666666" stroke="none" transform="matrix(1 0 0 1 362 2985 )" />
  </g>
</svg>