<?xml version="1.0" encoding="utf-8"?>
<svg version="1.1" xmlns:xlink="http://www.w3.org/1999/xlink" width="12px" height="12px" viewBox="146 591  12 12" xmlns="http://www.w3.org/2000/svg">
  <path d="M 152 591  C 155.36 591  158 593.64  158 597  C 158 600.36  155.36 603  152 603  C 148.64 603  146 600.36  146 597  C 146 593.64  148.64 591  152 591  Z " fill-rule="nonzero" fill="#ffffff" stroke="none" />
  <path d="M 152 591.5  C 155.08 591.5  157.5 593.92  157.5 597  C 157.5 600.08  155.08 602.5  152 602.5  C 148.92 602.5  146.5 600.08  146.5 597  C 146.5 593.92  148.92 591.5  152 591.5  Z " stroke-width="1" stroke="#797979" fill="none" />
  <path d="M 152 600  C 150.32 600  149 598.68  149 597  C 149 595.32  150.32 594  152 594  C 153.68 594  155 595.32  155 597  C 155 598.68  153.68 600  152 600  " fill-rule="nonzero" fill="#797979" stroke="none" />
</svg>