<?xml version="1.0" encoding="utf-8"?>
<svg version="1.1" xmlns:xlink="http://www.w3.org/1999/xlink" width="12px" height="12px" viewBox="326 591  12 12" xmlns="http://www.w3.org/2000/svg">
  <path d="M 332 591  C 335.36 591  338 593.64  338 597  C 338 600.36  335.36 603  332 603  C 328.64 603  326 600.36  326 597  C 326 593.64  328.64 591  332 591  Z " fill-rule="nonzero" fill="#ffffff" stroke="none" />
  <path d="M 332 591.5  C 335.08 591.5  337.5 593.92  337.5 597  C 337.5 600.08  335.08 602.5  332 602.5  C 328.92 602.5  326.5 600.08  326.5 597  C 326.5 593.92  328.92 591.5  332 591.5  Z " stroke-width="1" stroke="#797979" fill="none" />
  <path d="M 332 600  C 330.32 600  329 598.68  329 597  C 329 595.32  330.32 594  332 594  C 333.68 594  335 595.32  335 597  C 335 598.68  333.68 600  332 600  " fill-rule="nonzero" fill="#797979" stroke="none" />
</svg>