<?xml version="1.0" encoding="utf-8"?>
<svg version="1.1" xmlns:xlink="http://www.w3.org/1999/xlink" width="22px" height="22px" xmlns="http://www.w3.org/2000/svg">
  <g transform="matrix(1 0 0 1 -616 -2763 )">
    <path d="M 627 2764  C 632.6 2764  637 2768.4  637 2774  C 637 2779.6  632.6 2784  627 2784  C 621.4 2784  617 2779.6  617 2774  C 617 2768.4  621.4 2764  627 2764  Z " fill-rule="nonzero" fill="#ffffff" stroke="none" />
    <path d="M 627 2764  C 632.6 2764  637 2768.4  637 2774  C 637 2779.6  632.6 2784  627 2784  C 621.4 2784  617 2779.6  617 2774  C 617 2768.4  621.4 2764  627 2764  Z " stroke-width="2" stroke="#108ee9" fill="none" />
  </g>
</svg>