<?xml version="1.0" encoding="utf-8"?>
<svg version="1.1" xmlns:xlink="http://www.w3.org/1999/xlink" width="22px" height="22px" xmlns="http://www.w3.org/2000/svg">
  <g transform="matrix(1 0 0 1 -899 -1480 )">
    <path d="M 910 1481  C 915.6 1481  920 1485.4  920 1491  C 920 1496.6  915.6 1501  910 1501  C 904.4 1501  900 1496.6  900 1491  C 900 1485.4  904.4 1481  910 1481  Z " fill-rule="nonzero" fill="#ffffff" stroke="none" fill-opacity="0" />
    <path d="M 910 1481  C 915.6 1481  920 1485.4  920 1491  C 920 1496.6  915.6 1501  910 1501  C 904.4 1501  900 1496.6  900 1491  C 900 1485.4  904.4 1481  910 1481  Z " stroke-width="2" stroke="#cccccc" fill="none" />
  </g>
</svg>