<?xml version="1.0" encoding="utf-8"?>
<svg version="1.1" xmlns:xlink="http://www.w3.org/1999/xlink" width="22px" height="22px" xmlns="http://www.w3.org/2000/svg">
  <g transform="matrix(1 0 0 1 -616 -1480 )">
    <path d="M 627 1481  C 632.6 1481  637 1485.4  637 1491  C 637 1496.6  632.6 1501  627 1501  C 621.4 1501  617 1496.6  617 1491  C 617 1485.4  621.4 1481  627 1481  Z " fill-rule="nonzero" fill="#108ee9" stroke="none" />
    <path d="M 627 1481  C 632.6 1481  637 1485.4  637 1491  C 637 1496.6  632.6 1501  627 1501  C 621.4 1501  617 1496.6  617 1491  C 617 1485.4  621.4 1481  627 1481  Z " stroke-width="2" stroke="#108ee9" fill="none" />
  </g>
</svg>