<?xml version="1.0" encoding="utf-8"?>
<svg version="1.1" xmlns:xlink="http://www.w3.org/1999/xlink" width="12px" height="12px" viewBox="934 351  12 12" xmlns="http://www.w3.org/2000/svg">
  <path d="M 940 351  C 943.36 351  946 353.64  946 357  C 946 360.36  943.36 363  940 363  C 936.64 363  934 360.36  934 357  C 934 353.64  936.64 351  940 351  Z " fill-rule="nonzero" fill="#ffffff" stroke="none" />
  <path d="M 940 351.5  C 943.08 351.5  945.5 353.92  945.5 357  C 945.5 360.08  943.08 362.5  940 362.5  C 936.92 362.5  934.5 360.08  934.5 357  C 934.5 353.92  936.92 351.5  940 351.5  Z " stroke-width="1" stroke="#797979" fill="none" />
  <path d="M 940 360  C 938.32 360  937 358.68  937 357  C 937 355.32  938.32 354  940 354  C 941.68 354  943 355.32  943 357  C 943 358.68  941.68 360  940 360  " fill-rule="nonzero" fill="#797979" stroke="none" />
</svg>