<?xml version="1.0" encoding="utf-8"?>
<svg version="1.1" xmlns:xlink="http://www.w3.org/1999/xlink" width="12px" height="12px" viewBox="265 10699  12 12" xmlns="http://www.w3.org/2000/svg">
  <path d="M 271 10699  C 274.36 10699  277 10701.64  277 10705  C 277 10708.36  274.36 10711  271 10711  C 267.64 10711  265 10708.36  265 10705  C 265 10701.64  267.64 10699  271 10699  Z " fill-rule="nonzero" fill="#ffffff" stroke="none" />
  <path d="M 271 10699.5  C 274.08 10699.5  276.5 10701.92  276.5 10705  C 276.5 10708.08  274.08 10710.5  271 10710.5  C 267.92 10710.5  265.5 10708.08  265.5 10705  C 265.5 10701.92  267.92 10699.5  271 10699.5  Z " stroke-width="1" stroke="#797979" fill="none" />
  <path d="M 271 10708  C 269.32 10708  268 10706.68  268 10705  C 268 10703.32  269.32 10702  271 10702  C 272.68 10702  274 10703.32  274 10705  C 274 10706.68  272.68 10708  271 10708  " fill-rule="nonzero" fill="#797979" stroke="none" />
</svg>