<?xml version="1.0" encoding="utf-8"?>
<svg version="1.1" xmlns:xlink="http://www.w3.org/1999/xlink" width="12px" height="12px" viewBox="346 10809  12 12" xmlns="http://www.w3.org/2000/svg">
  <path d="M 352 10809  C 355.36 10809  358 10811.64  358 10815  C 358 10818.36  355.36 10821  352 10821  C 348.64 10821  346 10818.36  346 10815  C 346 10811.64  348.64 10809  352 10809  Z " fill-rule="nonzero" fill="#ffffff" stroke="none" />
  <path d="M 352 10809.5  C 355.08 10809.5  357.5 10811.92  357.5 10815  C 357.5 10818.08  355.08 10820.5  352 10820.5  C 348.92 10820.5  346.5 10818.08  346.5 10815  C 346.5 10811.92  348.92 10809.5  352 10809.5  Z " stroke-width="1" stroke="#797979" fill="none" />
  <path d="M 352 10818  C 350.32 10818  349 10816.68  349 10815  C 349 10813.32  350.32 10812  352 10812  C 353.68 10812  355 10813.32  355 10815  C 355 10816.68  353.68 10818  352 10818  " fill-rule="nonzero" fill="#797979" stroke="none" />
</svg>