<?xml version="1.0" encoding="utf-8"?>
<svg version="1.1" xmlns:xlink="http://www.w3.org/1999/xlink" width="12px" height="12px" viewBox="347 10595  12 12" xmlns="http://www.w3.org/2000/svg">
  <path d="M 353 10595  C 356.36 10595  359 10597.64  359 10601  C 359 10604.36  356.36 10607  353 10607  C 349.64 10607  347 10604.36  347 10601  C 347 10597.64  349.64 10595  353 10595  Z " fill-rule="nonzero" fill="#ffffff" stroke="none" />
  <path d="M 353 10595.5  C 356.08 10595.5  358.5 10597.92  358.5 10601  C 358.5 10604.08  356.08 10606.5  353 10606.5  C 349.92 10606.5  347.5 10604.08  347.5 10601  C 347.5 10597.92  349.92 10595.5  353 10595.5  Z " stroke-width="1" stroke="#797979" fill="none" />
  <path d="M 353 10604  C 351.32 10604  350 10602.68  350 10601  C 350 10599.32  351.32 10598  353 10598  C 354.68 10598  356 10599.32  356 10601  C 356 10602.68  354.68 10604  353 10604  " fill-rule="nonzero" fill="#797979" stroke="none" />
</svg>