<?xml version="1.0" encoding="utf-8"?>
<svg version="1.1" xmlns:xlink="http://www.w3.org/1999/xlink" width="12px" height="12px" viewBox="266 10595  12 12" xmlns="http://www.w3.org/2000/svg">
  <path d="M 272 10595  C 275.36 10595  278 10597.64  278 10601  C 278 10604.36  275.36 10607  272 10607  C 268.64 10607  266 10604.36  266 10601  C 266 10597.64  268.64 10595  272 10595  Z " fill-rule="nonzero" fill="#ffffff" stroke="none" />
  <path d="M 272 10595.5  C 275.08 10595.5  277.5 10597.92  277.5 10601  C 277.5 10604.08  275.08 10606.5  272 10606.5  C 268.92 10606.5  266.5 10604.08  266.5 10601  C 266.5 10597.92  268.92 10595.5  272 10595.5  Z " stroke-width="1" stroke="#797979" fill="none" />
  <path d="M 272 10604  C 270.32 10604  269 10602.68  269 10601  C 269 10599.32  270.32 10598  272 10598  C 273.68 10598  275 10599.32  275 10601  C 275 10602.68  273.68 10604  272 10604  " fill-rule="nonzero" fill="#797979" stroke="none" />
</svg>