<?xml version="1.0" encoding="utf-8"?>
<svg version="1.1" xmlns:xlink="http://www.w3.org/1999/xlink" width="12px" height="12px" viewBox="197 10595  12 12" xmlns="http://www.w3.org/2000/svg">
  <path d="M 203 10595  C 206.36 10595  209 10597.64  209 10601  C 209 10604.36  206.36 10607  203 10607  C 199.64 10607  197 10604.36  197 10601  C 197 10597.64  199.64 10595  203 10595  Z " fill-rule="nonzero" fill="#ffffff" stroke="none" />
  <path d="M 203 10595.5  C 206.08 10595.5  208.5 10597.92  208.5 10601  C 208.5 10604.08  206.08 10606.5  203 10606.5  C 199.92 10606.5  197.5 10604.08  197.5 10601  C 197.5 10597.92  199.92 10595.5  203 10595.5  Z " stroke-width="1" stroke="#797979" fill="none" />
  <path d="M 203 10604  C 201.32 10604  200 10602.68  200 10601  C 200 10599.32  201.32 10598  203 10598  C 204.68 10598  206 10599.32  206 10601  C 206 10602.68  204.68 10604  203 10604  " fill-rule="nonzero" fill="#797979" stroke="none" />
</svg>