<?xml version="1.0" encoding="utf-8"?>
<svg version="1.1" xmlns:xlink="http://www.w3.org/1999/xlink" width="12px" height="12px" viewBox="265 10809  12 12" xmlns="http://www.w3.org/2000/svg">
  <path d="M 271 10809  C 274.36 10809  277 10811.64  277 10815  C 277 10818.36  274.36 10821  271 10821  C 267.64 10821  265 10818.36  265 10815  C 265 10811.64  267.64 10809  271 10809  Z " fill-rule="nonzero" fill="#ffffff" stroke="none" />
  <path d="M 271 10809.5  C 274.08 10809.5  276.5 10811.92  276.5 10815  C 276.5 10818.08  274.08 10820.5  271 10820.5  C 267.92 10820.5  265.5 10818.08  265.5 10815  C 265.5 10811.92  267.92 10809.5  271 10809.5  Z " stroke-width="1" stroke="#797979" fill="none" />
  <path d="M 271 10818  C 269.32 10818  268 10816.68  268 10815  C 268 10813.32  269.32 10812  271 10812  C 272.68 10812  274 10813.32  274 10815  C 274 10816.68  272.68 10818  271 10818  " fill-rule="nonzero" fill="#797979" stroke="none" />
</svg>