<?xml version="1.0" encoding="utf-8"?>
<svg version="1.1" xmlns:xlink="http://www.w3.org/1999/xlink" width="12px" height="12px" viewBox="196 10699  12 12" xmlns="http://www.w3.org/2000/svg">
  <path d="M 202 10699  C 205.36 10699  208 10701.64  208 10705  C 208 10708.36  205.36 10711  202 10711  C 198.64 10711  196 10708.36  196 10705  C 196 10701.64  198.64 10699  202 10699  Z " fill-rule="nonzero" fill="#ffffff" stroke="none" />
  <path d="M 202 10699.5  C 205.08 10699.5  207.5 10701.92  207.5 10705  C 207.5 10708.08  205.08 10710.5  202 10710.5  C 198.92 10710.5  196.5 10708.08  196.5 10705  C 196.5 10701.92  198.92 10699.5  202 10699.5  Z " stroke-width="1" stroke="#797979" fill="none" />
  <path d="M 202 10708  C 200.32 10708  199 10706.68  199 10705  C 199 10703.32  200.32 10702  202 10702  C 203.68 10702  205 10703.32  205 10705  C 205 10706.68  203.68 10708  202 10708  " fill-rule="nonzero" fill="#797979" stroke="none" />
</svg>