<?xml version="1.0" encoding="utf-8"?>
<svg version="1.1" xmlns:xlink="http://www.w3.org/1999/xlink" width="12px" height="12px" viewBox="191 11369  12 12" xmlns="http://www.w3.org/2000/svg">
  <path d="M 197 11369  C 200.36 11369  203 11371.64  203 11375  C 203 11378.36  200.36 11381  197 11381  C 193.64 11381  191 11378.36  191 11375  C 191 11371.64  193.64 11369  197 11369  Z " fill-rule="nonzero" fill="#ffffff" stroke="none" />
  <path d="M 197 11369.5  C 200.08 11369.5  202.5 11371.92  202.5 11375  C 202.5 11378.08  200.08 11380.5  197 11380.5  C 193.92 11380.5  191.5 11378.08  191.5 11375  C 191.5 11371.92  193.92 11369.5  197 11369.5  Z " stroke-width="1" stroke="#797979" fill="none" />
  <path d="M 197 11378  C 195.32 11378  194 11376.68  194 11375  C 194 11373.32  195.32 11372  197 11372  C 198.68 11372  200 11373.32  200 11375  C 200 11376.68  198.68 11378  197 11378  " fill-rule="nonzero" fill="#797979" stroke="none" />
</svg>