<?xml version="1.0" encoding="utf-8"?>
<svg version="1.1" xmlns:xlink="http://www.w3.org/1999/xlink" width="12px" height="12px" viewBox="191 11628  12 12" xmlns="http://www.w3.org/2000/svg">
  <path d="M 197 11628  C 200.36 11628  203 11630.64  203 11634  C 203 11637.36  200.36 11640  197 11640  C 193.64 11640  191 11637.36  191 11634  C 191 11630.64  193.64 11628  197 11628  Z " fill-rule="nonzero" fill="#ffffff" stroke="none" />
  <path d="M 197 11628.5  C 200.08 11628.5  202.5 11630.92  202.5 11634  C 202.5 11637.08  200.08 11639.5  197 11639.5  C 193.92 11639.5  191.5 11637.08  191.5 11634  C 191.5 11630.92  193.92 11628.5  197 11628.5  Z " stroke-width="1" stroke="#797979" fill="none" />
  <path d="M 197 11637  C 195.32 11637  194 11635.68  194 11634  C 194 11632.32  195.32 11631  197 11631  C 198.68 11631  200 11632.32  200 11634  C 200 11635.68  198.68 11637  197 11637  " fill-rule="nonzero" fill="#797979" stroke="none" />
</svg>