<?xml version="1.0" encoding="utf-8"?>
<svg version="1.1" xmlns:xlink="http://www.w3.org/1999/xlink" width="12px" height="12px" viewBox="258 11907  12 12" xmlns="http://www.w3.org/2000/svg">
  <path d="M 264 11907  C 267.36 11907  270 11909.64  270 11913  C 270 11916.36  267.36 11919  264 11919  C 260.64 11919  258 11916.36  258 11913  C 258 11909.64  260.64 11907  264 11907  Z " fill-rule="nonzero" fill="#ffffff" stroke="none" />
  <path d="M 264 11907.5  C 267.08 11907.5  269.5 11909.92  269.5 11913  C 269.5 11916.08  267.08 11918.5  264 11918.5  C 260.92 11918.5  258.5 11916.08  258.5 11913  C 258.5 11909.92  260.92 11907.5  264 11907.5  Z " stroke-width="1" stroke="#797979" fill="none" />
  <path d="M 264 11916  C 262.32 11916  261 11914.68  261 11913  C 261 11911.32  262.32 11910  264 11910  C 265.68 11910  267 11911.32  267 11913  C 267 11914.68  265.68 11916  264 11916  " fill-rule="nonzero" fill="#797979" stroke="none" />
</svg>