<?xml version="1.0" encoding="utf-8"?>
<svg version="1.1" xmlns:xlink="http://www.w3.org/1999/xlink" width="12px" height="12px" viewBox="191 11907  12 12" xmlns="http://www.w3.org/2000/svg">
  <path d="M 197 11907  C 200.36 11907  203 11909.64  203 11913  C 203 11916.36  200.36 11919  197 11919  C 193.64 11919  191 11916.36  191 11913  C 191 11909.64  193.64 11907  197 11907  Z " fill-rule="nonzero" fill="#ffffff" stroke="none" />
  <path d="M 197 11907.5  C 200.08 11907.5  202.5 11909.92  202.5 11913  C 202.5 11916.08  200.08 11918.5  197 11918.5  C 193.92 11918.5  191.5 11916.08  191.5 11913  C 191.5 11909.92  193.92 11907.5  197 11907.5  Z " stroke-width="1" stroke="#797979" fill="none" />
  <path d="M 197 11916  C 195.32 11916  194 11914.68  194 11913  C 194 11911.32  195.32 11910  197 11910  C 198.68 11910  200 11911.32  200 11913  C 200 11914.68  198.68 11916  197 11916  " fill-rule="nonzero" fill="#797979" stroke="none" />
</svg>