<?xml version="1.0" encoding="utf-8"?>
<svg version="1.1" xmlns:xlink="http://www.w3.org/1999/xlink" width="11px" height="14px" xmlns="http://www.w3.org/2000/svg">
  <defs>
    <mask fill="white" id="clip44">
      <path d="M 0.785714285714221 3.11111111111111  L 0.785714285714221 12.4444444444445  C 0.785714285714221 13.3038888888889  1.48892857142846 14  2.35714285714289 14  L 8.64285714285711 14  C 9.51107142857154 14  10.2142857142858 13.3038888888889  10.2142857142858 12.4444444444445  L 10.2142857142858 3.11111111111111  L 0.785714285714221 3.11111111111111  Z M 11 2.33333333333334  L 11 0.777777777777771  L 8.25 0.777777777777771  L 7.46428571428578 0  L 3.53571428571422 0  L 2.75 0.777777777777771  L 0 0.777777777777771  L 0 2.33333333333334  L 11 2.33333333333334  Z " fill-rule="evenodd" />
    </mask>
  </defs>
  <g transform="matrix(1 0 0 1 -536 -4993 )">
    <path d="M 0.785714285714221 3.11111111111111  L 0.785714285714221 12.4444444444445  C 0.785714285714221 13.3038888888889  1.48892857142846 14  2.35714285714289 14  L 8.64285714285711 14  C 9.51107142857154 14  10.2142857142858 13.3038888888889  10.2142857142858 12.4444444444445  L 10.2142857142858 3.11111111111111  L 0.785714285714221 3.11111111111111  Z M 11 2.33333333333334  L 11 0.777777777777771  L 8.25 0.777777777777771  L 7.46428571428578 0  L 3.53571428571422 0  L 2.75 0.777777777777771  L 0 0.777777777777771  L 0 2.33333333333334  L 11 2.33333333333334  Z " fill-rule="nonzero" fill="#ffffff" stroke="none" fill-opacity="0" transform="matrix(1 0 0 1 536 4993 )" />
    <path d="M 0.785714285714221 3.11111111111111  L 0.785714285714221 12.4444444444445  C 0.785714285714221 13.3038888888889  1.48892857142846 14  2.35714285714289 14  L 8.64285714285711 14  C 9.51107142857154 14  10.2142857142858 13.3038888888889  10.2142857142858 12.4444444444445  L 10.2142857142858 3.11111111111111  L 0.785714285714221 3.11111111111111  Z " stroke-width="4" stroke="#999999" fill="none" transform="matrix(1 0 0 1 536 4993 )" mask="url(#clip44)" />
    <path d="M 11 2.33333333333334  L 11 0.777777777777771  L 8.25 0.777777777777771  L 7.46428571428578 0  L 3.53571428571422 0  L 2.75 0.777777777777771  L 0 0.777777777777771  L 0 2.33333333333334  L 11 2.33333333333334  Z " stroke-width="4" stroke="#999999" fill="none" transform="matrix(1 0 0 1 536 4993 )" mask="url(#clip44)" />
  </g>
</svg>