<?xml version="1.0" encoding="utf-8"?>
<svg version="1.1" xmlns:xlink="http://www.w3.org/1999/xlink" width="22px" height="25px" xmlns="http://www.w3.org/2000/svg">
  <g transform="matrix(1 0 0 1 -1257 -1309 )">
    <path d="M 18.0611979166667 22.94921875  C 18.2426215277778 22.7725074404761  18.3333333333333 22.563244047619  18.3333333333333 22.3214285714287  C 18.3333333333333 22.0796130952382  18.2426215277778 21.870349702381  18.0611979166667 21.693638392857  C 17.8797743055557 21.5169270833334  17.6649305555557 21.4285714285713  17.4166666666667 21.4285714285713  C 17.1684027777778 21.4285714285713  16.9535590277778 21.5169270833334  16.7721354166667 21.693638392857  C 16.5907118055557 21.870349702381  16.5 22.0796130952382  16.5 22.3214285714287  C 16.5 22.563244047619  16.5907118055557 22.7725074404761  16.7721354166667 22.94921875  C 16.9535590277778 23.1259300595239  17.1684027777778 23.2142857142857  17.4166666666667 23.2142857142857  C 17.6649305555557 23.2142857142857  17.8797743055557 23.1259300595239  18.0611979166667 22.94921875  Z M 19.7083333333333 14.1671316964287  C 20.0138888888889 13.2510230654761  20.1666666666667 12.416294642857  20.1666666666667 11.6629464285713  C 20.1666666666667 9.90513392857133  19.3693576388889 9.02622767857133  17.7747395833333 9.02622767857133  C 17.5264756944443 9.02622767857133  17.2591145833333 9.04947916666663  16.97265625 9.095982142857  C 16.8198784722222 8.81696428571433  16.5692274305557 8.59607514880952  16.220703125 8.433314732143  C 15.8721788194443 8.27055431547615  15.5212673611111 8.189174107143  15.16796875 8.189174107143  C 14.8146701388889 8.189174107143  14.4852430555557 8.27287946428567  14.1796875 8.44029017857133  C 13.7022569444443 7.94735863095229  13.1341145833333 7.700892857143  12.4752604166667 7.700892857143  C 12.2365451388889 7.700892857143  11.9715711805557 7.74739583333337  11.6803385416667 7.84040178571433  C 11.3891059027778 7.93340773809518  11.1623263888889 8.04966517857133  11 8.189174107143  L 11 3.57142857142867  C 11 3.08779761904771  10.8185763888889 2.66927083333337  10.4557291666667 2.31584821428567  C 10.0928819444443 1.96242559523819  9.66319444444434 1.78571428571433  9.16666666666674 1.78571428571433  C 8.6796875 1.78571428571433  8.25238715277783 1.967075892857  7.884765625 2.329799107143  C 7.51714409722217 2.69252232142867  7.33333333333326 3.10639880952385  7.33333333333326 3.57142857142867  L 7.33333333333326 11.607142857143  C 7.14236111111109 11.607142857143  6.91080729166674 11.537388392857  6.638671875 11.3978794642857  C 6.36653645833326 11.2583705357143  6.10394965277783 11.1049107142857  5.85091145833326 10.9375  C 5.59787326388891 10.7700892857143  5.27322048611109 10.6166294642857  4.876953125 10.4771205357143  C 4.48068576388891 10.337611607143  4.07725694444434 10.267857142857  3.66666666666674 10.267857142857  C 3.02690972222217 10.267857142857  2.56141493055566 10.4747953869048  2.27018229166674 10.888671875  C 1.97894965277783 11.3025483630952  1.83333333333326 11.8396577380952  1.83333333333326 12.5  C 1.83333333333326 12.7232142857143  2.49696180555566 13.1417410714287  3.82421875 13.755580357143  C 4.24435763888891 13.978794642857  4.5546875 14.1508556547618  4.75520833333326 14.271763392857  C 5.36631944444434 14.643787202381  6.05859375 15.1646205357143  6.83203125 15.834263392857  C 7.60546875 16.4946056547618  8.11154513888891 16.9642857142857  8.35026041666674 17.2433035714287  C 8.89453125 17.885044642857  9.16666666666674 18.5360863095239  9.16666666666674 19.1964285714287  L 9.16666666666674 19.642857142857  L 18.3333333333333 19.642857142857  L 18.3333333333333 19.1964285714287  C 18.3333333333333 18.5267857142857  18.4861111111111 17.7501860119048  18.7916666666667 16.8666294642857  C 19.0972222222222 15.9830729166666  19.4027777777778 15.083240327381  19.7083333333333 14.1671316964287  Z M 20.8470052083333 8.42633928571433  C 21.6156684027778 9.22619047619048  22 10.2818080357143  22 11.5931919642857  C 22 12.8301711309523  21.6705729166667 14.3275669642857  21.01171875 16.0853794642857  C 20.4483506944443 17.6106770833334  20.1666666666667 18.647693452381  20.1666666666667 19.1964285714287  L 20.1666666666667 23.2142857142857  C 20.1666666666667 23.7072172619048  19.9876302083333 24.1280691964287  19.6295572916667 24.476841517857  C 19.271484375 24.8256138392857  18.8394097222222 25  18.3333333333333 25  L 9.16666666666674 25  C 8.66059027777783 25  8.228515625 24.8256138392857  7.87044270833326 24.476841517857  C 7.51236979166674 24.1280691964287  7.33333333333326 23.7072172619048  7.33333333333326 23.2142857142857  L 7.33333333333326 19.1964285714287  C 7.33333333333326 19.1034226190477  7.31184895833326 19.0034412202382  7.26888020833326 18.896484375  C 7.22591145833326 18.7895275297618  7.15907118055566 18.6802455357143  7.068359375 18.568638392857  C 6.97764756944434 18.45703125  6.89171006944434 18.3523995535713  6.810546875 18.2547433035713  C 6.72938368055566 18.1570870535713  6.62196180555566 18.0454799107143  6.48828125 17.919921875  C 6.35460069444434 17.7943638392857  6.251953125 17.6990327380952  6.18033854166674 17.6339285714287  C 6.10872395833326 17.5688244047618  6.00607638888891 17.48046875  5.87239583333326 17.368861607143  C 5.73871527777783 17.2572544642857  5.65755208333326 17.192150297619  5.62890625 17.173549107143  C 4.92230902777783 16.5690104166666  4.30642361111109 16.1039806547618  3.78125 15.7784598214287  C 3.58072916666674 15.6575520833334  3.28472222222217 15.5040922619048  2.89322916666674 15.318080357143  C 2.50173611111109 15.132068452381  2.15798611111109 14.9600074404761  1.86197916666674 14.8018973214287  C 1.56597222222217 14.643787202381  1.26519097222217 14.4554501488095  0.959635416666742 14.2368861607143  C 0.654079861111086 14.018322172619  0.417751736111086 13.7625558035713  0.250651041666742 13.4695870535713  C 0.0835503472221717 13.1766183035713  0 12.8534226190477  0 12.5  C 0 11.3374255952382  0.319878472222172 10.3771391369048  0.959635416666742 9.619140625  C 1.59939236111109 8.86114211309518  2.50173611111109 8.482142857143  3.66666666666674 8.482142857143  C 4.31597222222217 8.482142857143  4.92708333333326 8.58444940476181  5.5 8.7890625  L 5.5 3.57142857142867  C 5.5 2.60416666666663  5.86284722222217 1.76711309523819  6.58854166666674 1.060267857143  C 7.31423611111109 0.353422619047706  8.16883680555566 0  9.15234375 0  C 10.1549479166667 0  11.0190972222222 0.351097470238187  11.7447916666667 1.05329241071433  C 12.4704861111111 1.75548735119048  12.8333333333333 2.59486607142867  12.8333333333333 3.57142857142867  L 12.8333333333333 5.92912946428567  C 13.4253472222222 5.96633184523819  13.9934895833333 6.138392857143  14.5377604166667 6.4453125  C 14.73828125 6.41741071428567  14.9435763888889 6.40345982142867  15.1536458333333 6.40345982142867  C 16.1180555555557 6.40345982142867  16.9678819444443 6.68247767857133  17.703125 7.240513392857  C 19.0303819444443 7.23121279761904  20.0783420138889 7.62648809523819  20.8470052083333 8.42633928571433  Z " fill-rule="nonzero" fill="#000000" stroke="none" transform="matrix(1 0 0 1 1257 1309 )" />
  </g>
</svg>