<?xml version="1.0" encoding="utf-8"?>
<svg version="1.1" xmlns:xlink="http://www.w3.org/1999/xlink" width="119px" height="45px" xmlns="http://www.w3.org/2000/svg">
  <g transform="matrix(1 0 0 1 -1074 -8021 )">
    <path d="M 1076 8043.5  A 20.5 20.5 0 0 1 1096.5 8023 L 1170.5 8023  A 20.5 20.5 0 0 1 1191 8043.5 A 20.5 20.5 0 0 1 1170.5 8064 L 1096.5 8064  A 20.5 20.5 0 0 1 1076 8043.5 Z " fill-rule="nonzero" fill="#ffffff" stroke="none" />
    <path d="M 1075 8043.5  A 21.5 21.5 0 0 1 1096.5 8022 L 1170.5 8022  A 21.5 21.5 0 0 1 1192 8043.5 A 21.5 21.5 0 0 1 1170.5 8065 L 1096.5 8065  A 21.5 21.5 0 0 1 1075 8043.5 Z " stroke-width="2" stroke-dasharray="6,2" stroke="#108de9" fill="none" />
  </g>
</svg>