<?xml version="1.0" encoding="utf-8"?>
<svg version="1.1" xmlns:xlink="http://www.w3.org/1999/xlink" width="23px" height="23px" xmlns="http://www.w3.org/2000/svg">
  <g transform="matrix(1 0 0 1 -1370 -21 )">
    <path d="M 22.7729194081351 14.5245  L 20.2789891380257 12.62125  C 20.3262674369855 12.25325  20.3617261612051 11.8795  20.3617261612051 11.5  C 20.3617261612051 11.1205  20.3262674369855 10.74675  20.2789891380257 10.37875  L 22.7788291955051 8.47550000000001  C 23.0034011155622 8.30300000000011  23.0684087766313 7.99249999999995  22.9206640923833 7.73950000000002  L 20.5567491444124 3.75475000000006  C 20.4090044601644 3.50750000000005  20.1016955169284 3.404  19.8357550852813 3.50750000000005  L 16.8926809750581 4.66325000000006  C 16.2839728759557 4.20899999999995  15.616166903154 3.82375000000013  14.8951728440229 3.53050000000007  L 14.4519387912783 0.482999999999947  C 14.398750704949 0.212750000000028  14.1564494227819 0  13.8609600542859 0  L 9.13313015834433 0  C 8.83764078984814 0  8.59533950768105 0.212750000000028  8.54806120872172 0.482999999999947  L 8.10482715597709 3.53050000000007  C 7.38383309684605 3.82375000000013  6.71602712404433 4.20325000000003  6.10731902494194 4.66325000000006  L 3.16424491471867 3.50750000000005  C 2.89830448307157 3.40974999999992  2.5909955398356 3.50750000000005  2.44325085558762 3.75475000000006  L 0.0793359076167235 7.73950000000002  C -0.0684087766312587 7.98675000000003  -0.00340111556215561 8.29724999999996  0.221170804494932 8.47550000000001  L 2.71510107460426 10.37875  C 2.66782277564471 10.74675  2.63236405142516 11.1205  2.63236405142516 11.5  C 2.63236405142516 11.8795  2.66782277564471 12.25325  2.71510107460426 12.62125  L 0.221170804494932 14.5245  C -0.00340111556215561 14.6969999999999  -0.0684087766312587 15.0075000000001  0.0793359076167235 15.2605  L 2.44325085558762 19.2452499999999  C 2.5909955398356 19.4925  2.89830448307157 19.596  3.16424491471867 19.4925  L 6.10731902494194 18.3367499999999  C 6.71602712404433 18.7910000000001  7.38383309684605 19.1762499999999  8.10482715597709 19.4694999999999  L 8.54806120872172 22.5170000000001  C 8.59533950768105 22.78725  8.83764078984814 23  9.13313015834433 23  L 13.8609600542859 23  C 14.1564494227819 23  14.398750704949 22.78725  14.4460290039083 22.5170000000001  L 14.8892630566529 19.4694999999999  C 15.6102571157842 19.1762499999999  16.2780630885857 18.79675  16.8867711876881 18.3367499999999  L 19.8298452979116 19.4925  C 20.095785729558 19.5902500000001  20.4030946727944 19.4925  20.5508393570428 19.2452499999999  L 22.9147543050133 15.2605  C 23.0624989892613 15.01325  22.9974913281922 14.70275  22.7729194081351 14.5245  Z M 15.6338962652637 11.5  C 15.6338962652637 13.7252500000001  13.7841328184768 15.5250000000001  11.497045106315 15.5250000000001  C 9.20995739415343 15.5250000000001  7.3601939473665 13.7252500000001  7.3601939473665 11.5  C 7.3601939473665 9.27474999999993  9.20995739415343 7.47499999999991  11.497045106315 7.47499999999991  C 13.7841328184768 7.47499999999991  15.6338962652637 9.27474999999993  15.6338962652637 11.5  Z " fill-rule="nonzero" fill="#666666" stroke="none" transform="matrix(1 0 0 1 1370 21 )" />
  </g>
</svg>