<?xml version="1.0" encoding="utf-8"?>
<svg version="1.1" xmlns:xlink="http://www.w3.org/1999/xlink" width="436px" height="49px" xmlns="http://www.w3.org/2000/svg">
  <g transform="matrix(1 0 0 1 0 -217 )">
    <path d="M 1.5 0  L 1.5 43  C 0.578457446808518 46.0799999999999  2.19612627197036 47.5  5.75942414431079 47.5  L 429.240575855689 47.5  C 432.80387372803 47.5  434.421542553192 46.0799999999999  434.5 43  L 434.5 0  L 1.5 0  Z " fill-rule="nonzero" fill="#ffffff" stroke="none" transform="matrix(1 0 0 1 0 217 )" />
    <path d="M 1.5 0  L 1.5 43  C 0.578457446808518 46.0799999999999  2.19612627197036 47.5  5.75942414431079 47.5  L 429.240575855689 47.5  C 432.80387372803 47.5  434.421542553192 46.0799999999999  434.5 43  L 434.5 0  " stroke-width="1" stroke="#e4e4e4" fill="none" transform="matrix(1 0 0 1 0 217 )" />
  </g>
</svg>