<?xml version="1.0" encoding="utf-8"?>
<svg version="1.1" xmlns:xlink="http://www.w3.org/1999/xlink" width="20px" height="23px" xmlns="http://www.w3.org/2000/svg">
  <g transform="matrix(1 0 0 1 -177 -3094 )">
    <path d="M 16.4192708333333 21.11328125  C 16.5842013888889 20.9507068452385  16.6666666666667 20.7581845238092  16.6666666666667 20.5357142857138  C 16.6666666666667 20.3132440476184  16.5842013888889 20.1207217261908  16.4192708333333 19.9581473214294  C 16.2543402777778 19.7955729166661  16.0590277777778 19.7142857142862  15.8333333333333 19.7142857142862  C 15.6076388888889 19.7142857142862  15.4123263888889 19.7955729166661  15.2473958333333 19.9581473214294  C 15.0824652777778 20.1207217261908  15 20.3132440476184  15 20.5357142857138  C 15 20.7581845238092  15.0824652777778 20.9507068452385  15.2473958333333 21.11328125  C 15.4123263888889 21.2758556547615  15.6076388888889 21.3571428571431  15.8333333333333 21.3571428571431  C 16.0590277777778 21.3571428571431  16.2543402777778 21.2758556547615  16.4192708333333 21.11328125  Z M 17.9166666666667 13.0337611607138  C 18.1944444444445 12.1909412202385  18.3333333333333 11.4229910714294  18.3333333333333 10.7299107142862  C 18.3333333333333 9.11272321428623  17.6085069444445 8.30412946428623  16.1588541666667 8.30412946428623  C 15.9331597222222 8.30412946428623  15.6901041666667 8.32552083333394  15.4296875 8.36830357142935  C 15.2907986111111 8.11160714285688  15.0629340277778 7.90838913690459  14.74609375 7.75864955357065  C 14.4292534722222 7.60890997023853  14.1102430555555 7.53404017857065  13.7890625 7.53404017857065  C 13.4678819444445 7.53404017857065  13.1684027777778 7.61104910714312  12.890625 7.76506696428623  C 12.4565972222222 7.31156994047706  11.9401041666667 7.08482142857065  11.3411458333333 7.08482142857065  C 11.1241319444445 7.08482142857065  10.8832465277778 7.12760416666606  10.6184895833333 7.21316964285688  C 10.3537326388889 7.29873511904771  10.1475694444445 7.40569196428623  10 7.53404017857065  L 10 3.28571428571377  C 10 2.84077380952294  9.83506944444446 2.45572916666606  9.50520833333331 2.13058035714312  C 9.17534722222223 1.80543154761835  8.78472222222223 1.64285714285688  8.33333333333331 1.64285714285688  C 7.890625 1.64285714285688  7.50217013888891 1.80970982142935  7.16796875 2.14341517857065  C 6.83376736111109 2.47712053571377  6.66666666666669 2.85788690476147  6.66666666666669 3.28571428571377  L 6.66666666666669 10.6785714285706  C 6.49305555555554 10.6785714285706  6.28255208333331 10.6143973214294  6.03515625 10.4860491071431  C 5.78776041666669 10.3577008928569  5.54904513888891 10.2165178571431  5.31901041666669 10.0625  C 5.08897569444446 9.90848214285688  4.79383680555554 9.76729910714312  4.43359375 9.63895089285688  C 4.07335069444446 9.51060267857065  3.70659722222223 9.44642857142935  3.33333333333331 9.44642857142935  C 2.75173611111109 9.44642857142935  2.32855902777777 9.63681175595229  2.06380208333331 10.017578125  C 1.79904513888891 10.3983444940477  1.66666666666669 10.8924851190477  1.66666666666669 11.5  C 1.66666666666669 11.7053571428569  2.26996527777777 12.0904017857138  3.4765625 12.6551339285707  C 3.85850694444446 12.8604910714293  4.140625 13.0187872023816  4.32291666666669 13.1300223214293  C 4.87847222222223 13.4722842261908  5.5078125 13.9514508928569  6.2109375 14.5675223214293  C 6.9140625 15.1750372023816  7.37413194444446 15.6071428571431  7.59114583333331 15.8638392857138  C 8.0859375 16.4542410714294  8.33333333333331 17.0531994047615  8.33333333333331 17.6607142857138  L 8.33333333333331 18.0714285714294  L 16.6666666666667 18.0714285714294  L 16.6666666666667 17.6607142857138  C 16.6666666666667 17.0446428571431  16.8055555555555 16.3301711309523  17.0833333333333 15.5172991071431  C 17.3611111111111 14.7044270833339  17.6388888888889 13.8765811011908  17.9166666666667 13.0337611607138  Z M 18.9518229166667 7.75223214285688  C 19.6506076388889 8.48809523809541  20 9.45926339285688  20 10.6657366071431  C 20 11.8037574404771  19.7005208333333 13.1813616071431  19.1015625 14.7985491071431  C 18.5894097222222 16.2018229166661  18.3333333333333 17.1558779761908  18.3333333333333 17.6607142857138  L 18.3333333333333 21.3571428571431  C 18.3333333333333 21.8106398809523  18.1705729166667 22.1978236607138  17.8450520833333 22.5186941964294  C 17.51953125 22.8395647321431  17.1267361111111 23  16.6666666666667 23  L 8.33333333333331 23  C 7.87326388888891 23  7.48046875 22.8395647321431  7.15494791666669 22.5186941964294  C 6.82942708333331 22.1978236607138  6.66666666666669 21.8106398809523  6.66666666666669 21.3571428571431  L 6.66666666666669 17.6607142857138  C 6.66666666666669 17.5751488095229  6.64713541666669 17.4831659226184  6.60807291666669 17.384765625  C 6.56901041666669 17.2863653273816  6.50824652777777 17.1858258928569  6.42578125 17.0831473214294  C 6.34331597222223 16.98046875  6.26519097222223 16.8842075892862  6.19140625 16.7943638392862  C 6.11762152777777 16.7045200892862  6.01996527777777 16.6018415178569  5.8984375 16.486328125  C 5.77690972222223 16.3708147321431  5.68359375 16.2831101190477  5.61848958333331 16.2232142857138  C 5.55338541666669 16.1633184523816  5.46006944444446 16.08203125  5.33854166666669 15.9793526785707  C 5.21701388888891 15.8766741071431  5.14322916666669 15.8167782738092  5.1171875 15.7996651785707  C 4.47482638888891 15.2434895833339  3.91493055555554 14.8156622023816  3.4375 14.5161830357138  C 3.25520833333331 14.4049479166661  2.98611111111109 14.2637648809523  2.63020833333331 14.0926339285707  C 2.27430555555554 13.9215029761908  1.96180555555554 13.7632068452385  1.69270833333331 13.6177455357138  C 1.42361111111109 13.4722842261908  1.15017361111109 13.2990141369046  0.872395833333314 13.0979352678569  C 0.594618055555543 12.8968563988092  0.379774305555543 12.6615513392862  0.227864583333314 12.3920200892862  C 0.0759548611110858 12.1224888392862  0 11.8251488095229  0 11.5  C 0 10.4304315476184  0.290798611111086 9.54696800595229  0.872395833333314 8.849609375  C 1.45399305555554 8.15225074404771  2.27430555555554 7.80357142857065  3.33333333333331 7.80357142857065  C 3.92361111111109 7.80357142857065  4.47916666666669 7.89769345238165  5 8.0859375  L 5 3.28571428571377  C 5 2.39583333333394  5.32986111111109 1.62574404761835  5.98958333333331 0.975446428570649  C 6.64930555555554 0.325148809522943  7.42621527777777 0  8.3203125 0  C 9.23177083333331 0  10.0173611111111 0.323009672618355  10.6770833333333 0.969029017856883  C 11.3368055555555 1.61504836309541  11.6666666666667 2.38727678571377  11.6666666666667 3.28571428571377  L 11.6666666666667 5.45479910714312  C 12.2048611111111 5.48902529761835  12.7213541666667 5.64732142857065  13.2161458333333 5.9296875  C 13.3984375 5.90401785714312  13.5850694444445 5.89118303571377  13.7760416666667 5.89118303571377  C 14.6527777777778 5.89118303571377  15.4253472222222 6.14787946428623  16.09375 6.66127232142935  C 17.3003472222222 6.65271577380918  18.2530381944445 7.01636904761835  18.9518229166667 7.75223214285688  Z " fill-rule="nonzero" fill="#000000" stroke="none" transform="matrix(1 0 0 1 177 3094 )" />
  </g>
</svg>