<?xml version="1.0" encoding="utf-8"?>
<svg version="1.1" xmlns:xlink="http://www.w3.org/1999/xlink" width="14px" height="16px" xmlns="http://www.w3.org/2000/svg">
  <g transform="matrix(1 0 0 1 -404 -18 )">
    <path d="M 13.933888888889 13.6585365853658  C 13.933888888889 12.4019512195122  12.9188888888889 11.3834146341463  11.6666666666667 11.3834146341463  C 11.0755555555556 11.3834146341463  10.5427777777777 11.6136585365854  10.1383333333333 11.9843902439025  L 4.59666666666681 8.7414634146341  C 4.63944444444451 8.56585365853658  4.66666666666674 8.38243902439024  4.66666666666674 8.19512195121951  C 4.66666666666674 8.00780487804877  4.63944444444451 7.82439024390249  4.59666666666681 7.64878048780486  L 10.0800000000002 4.43707317073171  C 10.4961111111111 4.82731707317078  11.0522222222223 5.06926829268292  11.6666666666667 5.06926829268292  C 12.9538888888887 5.06926829268292  14 4.01951219512193  14 2.72780487804874  C 14 1.43609756097561  12.9538888888887 0.386341463414624  11.6666666666667 0.386341463414624  C 10.3794444444445 0.386341463414624  9.33333333333326 1.43609756097561  9.33333333333326 2.72780487804874  C 9.33333333333326 2.91512195121953  9.36055555555549 3.09853658536582  9.40333333333319 3.27414634146345  L 3.91999999999985 6.4858536585366  C 3.50388888888892 6.09560975609753  2.94777777777767 5.85365853658539  2.33333333333326 5.85365853658539  C 1.04611111111126 5.85365853658539  0 6.90341463414637  0 8.19512195121951  C 0 9.48682926829269  1.04611111111126 10.5365853658537  2.33333333333326 10.5365853658537  C 2.94777777777767 10.5365853658537  3.50388888888892 10.2946341463415  3.91999999999985 9.90439024390247  L 9.46166666666659 13.1473170731707  C 9.42277777777781 13.3112195121951  9.39944444444427 13.4829268292683  9.39944444444427 13.6585365853658  C 9.39944444444427 14.9151219512195  10.4144444444446 15.9336585365854  11.6666666666667 15.9336585365854  C 12.9188888888889 15.9336585365854  13.933888888889 14.9151219512195  13.933888888889 13.6585365853658  Z " fill-rule="nonzero" fill="#999999" stroke="none" transform="matrix(1 0 0 1 404 18 )" />
  </g>
</svg>