<?xml version="1.0" encoding="utf-8"?>
<svg version="1.1" xmlns:xlink="http://www.w3.org/1999/xlink" width="12px" height="15px" xmlns="http://www.w3.org/2000/svg">
  <defs>
    <mask fill="white" id="clip49">
      <path d="M 0.85714285714289 3.33333333333303  L 0.85714285714289 13.333333333333  C 0.85714285714289 14.2541666666666  1.62428571428563 15  2.57142857142867 15  L 9.42857142857133 15  C 10.3757142857144 15  11.1428571428571 14.2541666666666  11.1428571428571 13.333333333333  L 11.1428571428571 3.33333333333303  L 0.85714285714289 3.33333333333303  Z M 12 2.5  L 12 0.83333333333303  L 9 0.83333333333303  L 8.14285714285711 0  L 3.85714285714289 0  L 3 0.83333333333303  L 0 0.83333333333303  L 0 2.5  L 12 2.5  Z " fill-rule="evenodd" />
    </mask>
  </defs>
  <g transform="matrix(1 0 0 1 -1412 -5917 )">
    <path d="M 0.85714285714289 3.33333333333303  L 0.85714285714289 13.333333333333  C 0.85714285714289 14.2541666666666  1.62428571428563 15  2.57142857142867 15  L 9.42857142857133 15  C 10.3757142857144 15  11.1428571428571 14.2541666666666  11.1428571428571 13.333333333333  L 11.1428571428571 3.33333333333303  L 0.85714285714289 3.33333333333303  Z M 12 2.5  L 12 0.83333333333303  L 9 0.83333333333303  L 8.14285714285711 0  L 3.85714285714289 0  L 3 0.83333333333303  L 0 0.83333333333303  L 0 2.5  L 12 2.5  Z " fill-rule="nonzero" fill="#ffffff" stroke="none" fill-opacity="0" transform="matrix(1 0 0 1 1412 5917 )" />
    <path d="M 0.85714285714289 3.33333333333303  L 0.85714285714289 13.333333333333  C 0.85714285714289 14.2541666666666  1.62428571428563 15  2.57142857142867 15  L 9.42857142857133 15  C 10.3757142857144 15  11.1428571428571 14.2541666666666  11.1428571428571 13.333333333333  L 11.1428571428571 3.33333333333303  L 0.85714285714289 3.33333333333303  Z " stroke-width="2" stroke="#999999" fill="none" transform="matrix(1 0 0 1 1412 5917 )" mask="url(#clip49)" />
    <path d="M 12 2.5  L 12 0.83333333333303  L 9 0.83333333333303  L 8.14285714285711 0  L 3.85714285714289 0  L 3 0.83333333333303  L 0 0.83333333333303  L 0 2.5  L 12 2.5  Z " stroke-width="2" stroke="#999999" fill="none" transform="matrix(1 0 0 1 1412 5917 )" mask="url(#clip49)" />
  </g>
</svg>