<?xml version="1.0" encoding="utf-8"?>
<svg version="1.1" xmlns:xlink="http://www.w3.org/1999/xlink" width="10px" height="11px" xmlns="http://www.w3.org/2000/svg">
  <g transform="matrix(1 0 0 1 -1317 -1817 )">
    <path d="M 0.769230769230717 8.44642857142857  L 0.769230769230717 10.2142857142857  L 2.5 10.2142857142857  L 2.5 8.44642857142857  L 0.769230769230717 8.44642857142857  Z M 2.88461538461536 8.44642857142857  L 2.88461538461536 10.2142857142857  L 4.80769230769226 10.2142857142857  L 4.80769230769226 8.44642857142857  L 2.88461538461536 8.44642857142857  Z M 0.769230769230717 6.08928571428571  L 0.769230769230717 8.05357142857143  L 2.5 8.05357142857143  L 2.5 6.08928571428571  L 0.769230769230717 6.08928571428571  Z M 2.88461538461536 6.08928571428571  L 2.88461538461536 8.05357142857143  L 4.80769230769226 8.05357142857143  L 4.80769230769226 6.08928571428571  L 2.88461538461536 6.08928571428571  Z M 0.769230769230717 3.92857142857143  L 0.769230769230717 5.69642857142857  L 2.5 5.69642857142857  L 2.5 3.92857142857143  L 0.769230769230717 3.92857142857143  Z M 5.19230769230774 8.44642857142857  L 5.19230769230774 10.2142857142857  L 7.11538461538464 10.2142857142857  L 7.11538461538464 8.44642857142857  L 5.19230769230774 8.44642857142857  Z M 2.88461538461536 3.92857142857143  L 2.88461538461536 5.69642857142857  L 4.80769230769226 5.69642857142857  L 4.80769230769226 3.92857142857143  L 2.88461538461536 3.92857142857143  Z M 7.5 8.44642857142857  L 7.5 10.2142857142857  L 9.23076923076928 10.2142857142857  L 9.23076923076928 8.44642857142857  L 7.5 8.44642857142857  Z M 5.19230769230774 6.08928571428571  L 5.19230769230774 8.05357142857143  L 7.11538461538464 8.05357142857143  L 7.11538461538464 6.08928571428571  L 5.19230769230774 6.08928571428571  Z M 3.01983173076928 2.88811383928571  C 3.05789262820508 2.84923735119048  3.07692307692309 2.8031994047619  3.07692307692309 2.75  L 3.07692307692309 0.982142857142861  C 3.07692307692309 0.928943452380949  3.05789262820508 0.88290550595238  3.01983173076928 0.844029017857139  C 2.98177083333337 0.805152529761898  2.93669871794873 0.785714285714292  2.88461538461536 0.785714285714292  L 2.5 0.785714285714292  C 2.44791666666663 0.785714285714292  2.4028445512821 0.805152529761898  2.36478365384619 0.844029017857139  C 2.32672275641028 0.88290550595238  2.30769230769226 0.928943452380949  2.30769230769226 0.982142857142861  L 2.30769230769226 2.75  C 2.30769230769226 2.8031994047619  2.32672275641028 2.84923735119048  2.36478365384619 2.88811383928571  C 2.4028445512821 2.92699032738095  2.44791666666663 2.94642857142857  2.5 2.94642857142857  L 2.88461538461536 2.94642857142857  C 2.93669871794873 2.94642857142857  2.98177083333337 2.92699032738095  3.01983173076928 2.88811383928571  Z M 7.5 6.08928571428571  L 7.5 8.05357142857143  L 9.23076923076928 8.05357142857143  L 9.23076923076928 6.08928571428571  L 7.5 6.08928571428571  Z M 5.19230769230774 3.92857142857143  L 5.19230769230774 5.69642857142857  L 7.11538461538464 5.69642857142857  L 7.11538461538464 3.92857142857143  L 5.19230769230774 3.92857142857143  Z M 7.5 3.92857142857143  L 7.5 5.69642857142857  L 9.23076923076928 5.69642857142857  L 9.23076923076928 3.92857142857143  L 7.5 3.92857142857143  Z M 7.63521634615381 2.88811383928571  C 7.67327724358972 2.84923735119048  7.69230769230774 2.8031994047619  7.69230769230774 2.75  L 7.69230769230774 0.982142857142861  C 7.69230769230774 0.928943452380949  7.67327724358972 0.88290550595238  7.63521634615381 0.844029017857139  C 7.5971554487179 0.805152529761898  7.55208333333337 0.785714285714292  7.5 0.785714285714292  L 7.11538461538464 0.785714285714292  C 7.06330128205127 0.785714285714292  7.01822916666663 0.805152529761898  6.98016826923072 0.844029017857139  C 6.94210737179492 0.88290550595238  6.92307692307691 0.928943452380949  6.92307692307691 0.982142857142861  L 6.92307692307691 2.75  C 6.92307692307691 2.8031994047619  6.94210737179492 2.84923735119048  6.98016826923072 2.88811383928571  C 7.01822916666663 2.92699032738095  7.06330128205127 2.94642857142857  7.11538461538464 2.94642857142857  L 7.5 2.94642857142857  C 7.55208333333337 2.94642857142857  7.5971554487179 2.92699032738095  7.63521634615381 2.88811383928571  Z M 9.77163461538464 1.8046875  C 9.92387820512818 1.96019345238095  10 2.14434523809524  10 2.35714285714286  L 10 10.2142857142857  C 10 10.4270833333333  9.92387820512818 10.6112351190476  9.77163461538464 10.7667410714286  C 9.61939102564099 10.9222470238095  9.43910256410254 11  9.23076923076928 11  L 0.769230769230717 11  C 0.560897435897459 11  0.380608974359006 10.9222470238095  0.228365384615358 10.7667410714286  C 0.076121794871824 10.6112351190476  0 10.4270833333333  0 10.2142857142857  L 0 2.35714285714286  C 0 2.14434523809524  0.076121794871824 1.96019345238095  0.228365384615358 1.8046875  C 0.380608974359006 1.64918154761905  0.560897435897459 1.57142857142857  0.769230769230717 1.57142857142857  L 1.53846153846155 1.57142857142857  L 1.53846153846155 0.982142857142861  C 1.53846153846155 0.712053571428569  1.63261217948718 0.480840773809518  1.82091346153845 0.288504464285708  C 2.00921474358972 0.096168154761898  2.23557692307691 0  2.5 0  L 2.88461538461536 0  C 3.14903846153845 0  3.37540064102564 0.096168154761898  3.56370192307691 0.288504464285708  C 3.75200320512818 0.480840773809518  3.84615384615381 0.712053571428569  3.84615384615381 0.982142857142861  L 3.84615384615381 1.57142857142857  L 6.15384615384619 1.57142857142857  L 6.15384615384619 0.982142857142861  C 6.15384615384619 0.712053571428569  6.24799679487182 0.480840773809518  6.43629807692309 0.288504464285708  C 6.62459935897436 0.096168154761898  6.85096153846155 0  7.11538461538464 0  L 7.5 0  C 7.76442307692309 0  7.99078525641028 0.096168154761898  8.17908653846155 0.288504464285708  C 8.36738782051282 0.480840773809518  8.46153846153845 0.712053571428569  8.46153846153845 0.982142857142861  L 8.46153846153845 1.57142857142857  L 9.23076923076928 1.57142857142857  C 9.43910256410254 1.57142857142857  9.61939102564099 1.64918154761905  9.77163461538464 1.8046875  Z " fill-rule="nonzero" fill="#999999" stroke="none" transform="matrix(1 0 0 1 1317 1817 )" />
  </g>
</svg>