<?xml version="1.0" encoding="utf-8"?>
<svg version="1.1" xmlns:xlink="http://www.w3.org/1999/xlink" width="13px" height="13px" xmlns="http://www.w3.org/2000/svg">
  <g transform="matrix(1 0 0 1 -654 -2871 )">
    <path d="M 12.3923512747875 0  C 12.6501416430595 0  12.831208687441 0.120028409090537  12.935552407932 0.360085227272521  C 13.039896128423 0.612452651515014  12.9969310670444 0.827888257575523  12.806657223796 1.0063920454545  L 8.26770538243625 5.55823863636351  L 8.26770538243625 12.4090909090905  C 8.26770538243625 12.6676136363635  8.14801699716713 12.8491950757575  7.9086402266289 12.9538352272725  C 7.8288479697828 12.9846117424245  7.75212464589237 13  7.67847025495752 13  C 7.51274787535411 13  7.37464589235128 12.941524621212  7.26416430594901 12.8245738636365  L 4.907223796034 10.4609375  C 4.79060434372047 10.3439867424245  4.73229461756375 10.2054924242425  4.73229461756375 10.0454545454545  L 4.73229461756375 5.55823863636351  L 0.193342776203963 1.0063920454545  C 0.00306893295561395 0.827888257575523  -0.0398961284230381 0.612452651515014  0.0644475920679781 0.360085227272521  C 0.168791312559023 0.120028409090537  0.349858356940501 0  0.607648725212442 0  L 12.3923512747875 0  Z " fill-rule="nonzero" fill="#108de9" stroke="none" transform="matrix(1 0 0 1 654 2871 )" />
  </g>
</svg>