<?xml version="1.0" encoding="utf-8"?>
<svg version="1.1" xmlns:xlink="http://www.w3.org/1999/xlink" width="12px" height="12px" viewBox="662 3145  12 12" xmlns="http://www.w3.org/2000/svg">
  <path d="M 668 3145  C 671.36 3145  674 3147.64  674 3151  C 674 3154.36  671.36 3157  668 3157  C 664.64 3157  662 3154.36  662 3151  C 662 3147.64  664.64 3145  668 3145  Z " fill-rule="nonzero" fill="#ffffff" stroke="none" />
  <path d="M 668 3145.5  C 671.08 3145.5  673.5 3147.92  673.5 3151  C 673.5 3154.08  671.08 3156.5  668 3156.5  C 664.92 3156.5  662.5 3154.08  662.5 3151  C 662.5 3147.92  664.92 3145.5  668 3145.5  Z " stroke-width="1" stroke="#797979" fill="none" />
  <path d="M 668 3154  C 666.32 3154  665 3152.68  665 3151  C 665 3149.32  666.32 3148  668 3148  C 669.68 3148  671 3149.32  671 3151  C 671 3152.68  669.68 3154  668 3154  " fill-rule="nonzero" fill="#797979" stroke="none" />
</svg>