<?xml version="1.0" encoding="utf-8"?>
<svg version="1.1" xmlns:xlink="http://www.w3.org/1999/xlink" width="12px" height="12px" viewBox="731 3145  12 12" xmlns="http://www.w3.org/2000/svg">
  <path d="M 737 3145  C 740.36 3145  743 3147.64  743 3151  C 743 3154.36  740.36 3157  737 3157  C 733.64 3157  731 3154.36  731 3151  C 731 3147.64  733.64 3145  737 3145  Z " fill-rule="nonzero" fill="#ffffff" stroke="none" />
  <path d="M 737 3145.5  C 740.08 3145.5  742.5 3147.92  742.5 3151  C 742.5 3154.08  740.08 3156.5  737 3156.5  C 733.92 3156.5  731.5 3154.08  731.5 3151  C 731.5 3147.92  733.92 3145.5  737 3145.5  Z " stroke-width="1" stroke="#797979" fill="none" />
  <path d="M 737 3154  C 735.32 3154  734 3152.68  734 3151  C 734 3149.32  735.32 3148  737 3148  C 738.68 3148  740 3149.32  740 3151  C 740 3152.68  738.68 3154  737 3154  " fill-rule="nonzero" fill="#797979" stroke="none" />
</svg>