<?xml version="1.0" encoding="utf-8"?>
<svg version="1.1" xmlns:xlink="http://www.w3.org/1999/xlink" width="15px" height="12px" xmlns="http://www.w3.org/2000/svg">
  <g transform="matrix(1 0 0 1 -940 -8169 )">
    <path d="M 6.99551569506724 9  L 7.4663677130045 9  L 8.44170403587447 8.01136363636397  L 7.16367713004485 6.71590909090901  L 6.18834080717488 7.70454545454504  L 6.18834080717488 8.18181818181802  L 6.99551569506724 8.18181818181802  L 6.99551569506724 9  Z M 11.1575112107623 3.14488636363603  C 11.2528026905829 3.04829545454504  11.2556053811659 2.95454545454504  11.1659192825112 2.86363636363603  C 11.0762331838565 2.77272727272702  10.9837443946188 2.77556818181802  10.8884529147982 2.87215909090901  L 7.94562780269058 5.85511363636397  C 7.85033632286996 5.95170454545496  7.84753363228697 6.04545454545496  7.93721973094171 6.13636363636397  C 8.02690582959639 6.22727272727298  8.11939461883406 6.22443181818198  8.21468609865474 6.12784090909099  L 11.1575112107623 3.14488636363603  Z M 11.670403587444 7.67897727272702  C 11.7825112107623 7.72443181818198  11.8385650224215 7.80681818181802  11.8385650224215 7.92613636363603  L 11.8385650224215 9.54545454545496  C 11.8385650224215 10.221590909091  11.6017376681614 10.799715909091  11.1280829596412 11.279829545455  C 10.6544282511211 11.759943181818  10.0840807174888 12  9.41704035874437 12  L 2.42152466367713 12  C 1.75448430493276 12  1.18413677130047 11.759943181818  0.710482062780272 11.279829545455  C 0.236827354260072 10.799715909091  0 10.221590909091  0 9.54545454545496  L 0 2.45454545454504  C 0 1.77840909090901  0.236827354260072 1.20028409090901  0.710482062780272 0.720170454545041  C 1.18413677130047 0.240056818181984  1.75448430493276 0  2.42152466367713 0  L 9.41704035874437 0  C 9.77017937219733 0  10.0980941704036 0.0710227272729753  10.4007847533632 0.213068181818016  C 10.484865470852 0.252840909090992  10.5353139013453 0.318181818181984  10.5521300448431 0.409090909090992  C 10.5689461883408 0.505681818181984  10.5437219730942 0.588068181818016  10.4764573991031 0.65625  L 10.0644618834081 1.07386363636397  C 9.98598654708519 1.15340909090901  9.89630044843051 1.17613636363603  9.79540358744396 1.14204545454504  C 9.66647982062779 1.10795454545496  9.54035874439461 1.09090909090901  9.41704035874437 1.09090909090901  L 2.42152466367713 1.09090909090901  C 2.05156950672648 1.09090909090901  1.73486547085201 1.22443181818198  1.47141255605379 1.49147727272702  C 1.20795964125563 1.75852272727298  1.07623318385652 2.07954545454504  1.07623318385652 2.45454545454504  L 1.07623318385652 9.54545454545496  C 1.07623318385652 9.92045454545496  1.20795964125563 10.241477272727  1.47141255605379 10.508522727273  C 1.73486547085201 10.775568181818  2.05156950672648 10.909090909091  2.42152466367713 10.909090909091  L 9.41704035874437 10.909090909091  C 9.78699551569508 10.909090909091  10.1036995515695 10.775568181818  10.3671524663677 10.508522727273  C 10.6306053811659 10.241477272727  10.762331838565 9.92045454545496  10.762331838565 9.54545454545496  L 10.762331838565 8.47159090909099  C 10.762331838565 8.39772727272702  10.7875560538117 8.33522727272702  10.8380044843049 8.28409090909099  L 11.3761210762332 7.73863636363603  C 11.460201793722 7.65340909090901  11.5582959641255 7.63352272727298  11.670403587444 7.67897727272702  Z M 5.38116591928252 7.36363636363603  L 11.0313901345291 1.63636363636397  L 13.4529147982063 4.09090909090901  L 7.80269058295966 9.81818181818198  L 5.38116591928252 9.81818181818198  L 5.38116591928252 7.36363636363603  Z M 15 2.18181818181802  C 15 2.40909090909099  14.9215246636771 2.60227272727298  14.7645739910314 2.76136363636397  L 13.9910313901345 3.54545454545496  L 11.5695067264574 1.09090909090901  L 12.3430493273543 0.306818181818016  C 12.5 0.147727272727025  12.6905829596412 0.0681818181819835  12.914798206278 0.0681818181819835  C 13.1390134529148 0.0681818181819835  13.329596412556 0.147727272727025  13.4865470852018 0.306818181818016  L 14.7645739910314 1.60227272727298  C 14.9215246636771 1.76136363636397  15 1.95454545454504  15 2.18181818181802  Z " fill-rule="nonzero" fill="#108de9" stroke="none" transform="matrix(1 0 0 1 940 8169 )" />
  </g>
</svg>