<?xml version="1.0" encoding="utf-8"?>
<svg version="1.1" xmlns:xlink="http://www.w3.org/1999/xlink" width="12px" height="12px" viewBox="662 9531  12 12" xmlns="http://www.w3.org/2000/svg">
  <path d="M 668 9531  C 671.36 9531  674 9533.64  674 9537  C 674 9540.36  671.36 9543  668 9543  C 664.64 9543  662 9540.36  662 9537  C 662 9533.64  664.64 9531  668 9531  Z " fill-rule="nonzero" fill="#ffffff" stroke="none" />
  <path d="M 668 9531.5  C 671.08 9531.5  673.5 9533.92  673.5 9537  C 673.5 9540.08  671.08 9542.5  668 9542.5  C 664.92 9542.5  662.5 9540.08  662.5 9537  C 662.5 9533.92  664.92 9531.5  668 9531.5  Z " stroke-width="1" stroke="#797979" fill="none" />
  <path d="M 668 9540  C 666.32 9540  665 9538.68  665 9537  C 665 9535.32  666.32 9534  668 9534  C 669.68 9534  671 9535.32  671 9537  C 671 9538.68  669.68 9540  668 9540  " fill-rule="nonzero" fill="#797979" stroke="none" />
</svg>