<?xml version="1.0" encoding="utf-8"?>
<svg version="1.1" xmlns:xlink="http://www.w3.org/1999/xlink" width="12px" height="12px" viewBox="731 9531  12 12" xmlns="http://www.w3.org/2000/svg">
  <path d="M 737 9531  C 740.36 9531  743 9533.64  743 9537  C 743 9540.36  740.36 9543  737 9543  C 733.64 9543  731 9540.36  731 9537  C 731 9533.64  733.64 9531  737 9531  Z " fill-rule="nonzero" fill="#ffffff" stroke="none" />
  <path d="M 737 9531.5  C 740.08 9531.5  742.5 9533.92  742.5 9537  C 742.5 9540.08  740.08 9542.5  737 9542.5  C 733.92 9542.5  731.5 9540.08  731.5 9537  C 731.5 9533.92  733.92 9531.5  737 9531.5  Z " stroke-width="1" stroke="#797979" fill="none" />
  <path d="M 737 9540  C 735.32 9540  734 9538.68  734 9537  C 734 9535.32  735.32 9534  737 9534  C 738.68 9534  740 9535.32  740 9537  C 740 9538.68  738.68 9540  737 9540  " fill-rule="nonzero" fill="#797979" stroke="none" />
</svg>