<?xml version="1.0" encoding="utf-8"?>
<svg version="1.1" xmlns:xlink="http://www.w3.org/1999/xlink" width="10px" height="10px" xmlns="http://www.w3.org/2000/svg">
  <g transform="matrix(1 0 0 1 -151 -5064 )">
    <path d="M 156 5064  C 158.8 5064  161 5066.2  161 5069  C 161 5071.8  158.8 5074  156 5074  C 153.2 5074  151 5071.8  151 5069  C 151 5066.2  153.2 5064  156 5064  Z " fill-rule="nonzero" fill="#008000" stroke="none" />
    <path d="M 156 5064.5  C 158.52 5064.5  160.5 5066.48  160.5 5069  C 160.5 5071.52  158.52 5073.5  156 5073.5  C 153.48 5073.5  151.5 5071.52  151.5 5069  C 151.5 5066.48  153.48 5064.5  156 5064.5  Z " stroke-width="1" stroke="#797979" fill="none" />
  </g>
</svg>