<?xml version="1.0" encoding="utf-8"?>
<svg version="1.1" xmlns:xlink="http://www.w3.org/1999/xlink" width="18px" height="18px" xmlns="http://www.w3.org/2000/svg">
  <g transform="matrix(1 0 0 1 -528 -11389 )">
    <path d="M 537 11392.9213203436  C 535.2 11390.5  533.4 11390.5  532.5 11390.5  C 531.3 11390.5  529.5 11391.7827586207  529.5 11394.22  C 529.5 11400.542671591  537 11405.1690166576  537 11405.1690166576  C 537 11405.1690166576  544.5 11400.542671591  544.5 11394.22  C 544.5 11391.7827586207  542.7 11390.5  541.5 11390.5  C 540.6 11390.5  538.8 11390.5  537 11392.9213203436  Z " fill-rule="nonzero" fill="#ffffff" stroke="none" fill-opacity="0" />
    <path d="M 537 11390.8  C 535.2 11389  533.4 11389  532.5 11389  C 530.7 11389  528 11390.8  528 11394.22  C 528 11401.6  537 11407  537 11407  C 537 11407  546 11401.6  546 11394.22  C 546 11390.8  543.3 11389  541.5 11389  C 540.6 11389  538.8 11389  537 11390.8  Z M 537 11393.6284271247  C 538.8 11391  540.6 11391  541.5 11391  C 542.5 11391  544 11392.1103448276  544 11394.22  C 544 11400.190228788  537 11404.5586888769  537 11404.5586888769  C 537 11404.5586888769  530 11400.190228788  530 11394.22  C 530 11392.1103448276  531.5 11391  532.5 11391  C 533.4 11391  535.2 11391  537 11393.6284271247  Z " fill-rule="nonzero" fill="#666666" stroke="none" />
  </g>
</svg>