<?xml version="1.0" encoding="utf-8"?>
<svg version="1.1" xmlns:xlink="http://www.w3.org/1999/xlink" width="18px" height="18px" xmlns="http://www.w3.org/2000/svg">
  <g transform="matrix(1 0 0 1 -199 -11772 )">
    <path d="M 208 11775.9213203436  C 206.2 11773.5  204.4 11773.5  203.5 11773.5  C 202.3 11773.5  200.5 11774.7827586207  200.5 11777.22  C 200.5 11783.542671591  208 11788.1690166576  208 11788.1690166576  C 208 11788.1690166576  215.5 11783.542671591  215.5 11777.22  C 215.5 11774.7827586207  213.7 11773.5  212.5 11773.5  C 211.6 11773.5  209.8 11773.5  208 11775.9213203436  Z " fill-rule="nonzero" fill="#f59a23" stroke="none" />
    <path d="M 208 11773.8  C 206.2 11772  204.4 11772  203.5 11772  C 201.7 11772  199 11773.8  199 11777.22  C 199 11784.6  208 11790  208 11790  C 208 11790  217 11784.6  217 11777.22  C 217 11773.8  214.3 11772  212.5 11772  C 211.6 11772  209.8 11772  208 11773.8  Z M 208 11776.6284271247  C 209.8 11774  211.6 11774  212.5 11774  C 213.5 11774  215 11775.1103448276  215 11777.22  C 215 11783.190228788  208 11787.5586888769  208 11787.5586888769  C 208 11787.5586888769  201 11783.190228788  201 11777.22  C 201 11775.1103448276  202.5 11774  203.5 11774  C 204.4 11774  206.2 11774  208 11776.6284271247  Z " fill-rule="nonzero" fill="#f59a23" stroke="none" />
  </g>
</svg>