<?xml version="1.0" encoding="utf-8"?>
<svg version="1.1" xmlns:xlink="http://www.w3.org/1999/xlink" width="22px" height="26px" xmlns="http://www.w3.org/2000/svg">
  <g transform="matrix(1 0 0 1 -181 -9879 )">
    <path d="M 18.0611979166667 23.8671875  C 18.2426215277778 23.6834077380952  18.3333333333333 23.4657738095239  18.3333333333333 23.2142857142858  C 18.3333333333333 22.9627976190477  18.2426215277778 22.7451636904761  18.0611979166667 22.5613839285713  C 17.8797743055557 22.3776041666667  17.6649305555557 22.2857142857142  17.4166666666667 22.2857142857142  C 17.1684027777778 22.2857142857142  16.9535590277778 22.3776041666667  16.7721354166667 22.5613839285713  C 16.5907118055557 22.7451636904761  16.5 22.9627976190477  16.5 23.2142857142858  C 16.5 23.4657738095239  16.5907118055557 23.6834077380952  16.7721354166667 23.8671875  C 16.9535590277778 24.0509672619048  17.1684027777778 24.1428571428571  17.4166666666667 24.1428571428571  C 17.6649305555557 24.1428571428571  17.8797743055557 24.0509672619048  18.0611979166667 23.8671875  Z M 19.7083333333333 14.7338169642858  C 20.0138888888889 13.7810639880952  20.1666666666667 12.9129464285713  20.1666666666667 12.1294642857142  C 20.1666666666667 10.3013392857142  19.3693576388889 9.38727678571422  17.7747395833333 9.38727678571422  C 17.5264756944443 9.38727678571422  17.2591145833333 9.41145833333326  16.97265625 9.45982142857133  C 16.8198784722222 9.16964285714289  16.5692274305557 8.93991815476193  16.220703125 8.77064732142867  C 15.8721788194443 8.60137648809518  15.5212673611111 8.51674107142867  15.16796875 8.51674107142867  C 14.8146701388889 8.51674107142867  14.4852430555557 8.60379464285711  14.1796875 8.77790178571422  C 13.7022569444443 8.26525297619037  13.1341145833333 8.00892857142867  12.4752604166667 8.00892857142867  C 12.2365451388889 8.00892857142867  11.9715711805557 8.05729166666674  11.6803385416667 8.15401785714289  C 11.3891059027778 8.25074404761904  11.1623263888889 8.37165178571422  11 8.51674107142867  L 11 3.71428571428578  C 11 3.21130952380963  10.8185763888889 2.77604166666674  10.4557291666667 2.40848214285711  C 10.0928819444443 2.04092261904771  9.66319444444434 1.85714285714289  9.16666666666674 1.85714285714289  C 8.6796875 1.85714285714289  8.25238715277783 2.04575892857133  7.884765625 2.42299107142867  C 7.51714409722217 2.80022321428578  7.33333333333326 3.23065476190482  7.33333333333326 3.71428571428578  L 7.33333333333326 12.0714285714287  C 7.14236111111109 12.0714285714287  6.91080729166674 11.9988839285713  6.638671875 11.8537946428571  C 6.36653645833326 11.7087053571429  6.10394965277783 11.5491071428571  5.85091145833326 11.375  C 5.59787326388891 11.2008928571429  5.27322048611109 11.0412946428571  4.876953125 10.8962053571429  C 4.48068576388891 10.7511160714287  4.07725694444434 10.6785714285713  3.66666666666674 10.6785714285713  C 3.02690972222217 10.6785714285713  2.56141493055566 10.893787202381  2.27018229166674 11.32421875  C 1.97894965277783 11.754650297619  1.83333333333326 12.313244047619  1.83333333333326 13  C 1.83333333333326 13.2321428571429  2.49696180555566 13.6674107142858  3.82421875 14.3058035714287  C 4.24435763888891 14.5379464285713  4.5546875 14.7168898809523  4.75520833333326 14.8426339285713  C 5.36631944444434 15.2295386904761  6.05859375 15.7712053571429  6.83203125 16.4676339285713  C 7.60546875 17.1543898809523  8.11154513888891 17.6428571428571  8.35026041666674 17.9330357142858  C 8.89453125 18.6004464285713  9.16666666666674 19.2775297619048  9.16666666666674 19.9642857142858  L 9.16666666666674 20.4285714285713  L 18.3333333333333 20.4285714285713  L 18.3333333333333 19.9642857142858  C 18.3333333333333 19.2678571428571  18.4861111111111 18.460193452381  18.7916666666667 17.5412946428571  C 19.0972222222222 16.6223958333333  19.4027777777778 15.6865699404761  19.7083333333333 14.7338169642858  Z M 20.8470052083333 8.76339285714289  C 21.6156684027778 9.59523809523807  22 10.6930803571429  22 12.0569196428571  C 22 13.3433779761904  21.6705729166667 14.9006696428571  21.01171875 16.7287946428571  C 20.4483506944443 18.3151041666667  20.1666666666667 19.3936011904761  20.1666666666667 19.9642857142858  L 20.1666666666667 24.1428571428571  C 20.1666666666667 24.655505952381  19.9876302083333 25.0931919642858  19.6295572916667 25.4559151785713  C 19.271484375 25.8186383928571  18.8394097222222 26  18.3333333333333 26  L 9.16666666666674 26  C 8.66059027777783 26  8.228515625 25.8186383928571  7.87044270833326 25.4559151785713  C 7.51236979166674 25.0931919642858  7.33333333333326 24.655505952381  7.33333333333326 24.1428571428571  L 7.33333333333326 19.9642857142858  C 7.33333333333326 19.8675595238096  7.31184895833326 19.7635788690477  7.26888020833326 19.65234375  C 7.22591145833326 19.5411086309523  7.15907118055566 19.4274553571429  7.068359375 19.3113839285713  C 6.97764756944434 19.1953125  6.89171006944434 19.0864955357142  6.810546875 18.9849330357142  C 6.72938368055566 18.8833705357142  6.62196180555566 18.7672991071429  6.48828125 18.63671875  C 6.35460069444434 18.5061383928571  6.251953125 18.406994047619  6.18033854166674 18.3392857142858  C 6.10872395833326 18.2715773809523  6.00607638888891 18.1796875  5.87239583333326 18.0636160714287  C 5.73871527777783 17.9475446428571  5.65755208333326 17.8798363095239  5.62890625 17.8604910714287  C 4.92230902777783 17.2317708333333  4.30642361111109 16.7481398809523  3.78125 16.4095982142858  C 3.58072916666674 16.2838541666667  3.28472222222217 16.124255952381  2.89322916666674 15.9308035714287  C 2.50173611111109 15.7373511904761  2.15798611111109 15.5584077380952  1.86197916666674 15.3939732142858  C 1.56597222222217 15.2295386904761  1.26519097222217 15.0336681547619  0.959635416666742 14.8063616071429  C 0.654079861111086 14.5790550595239  0.417751736111086 14.3130580357142  0.250651041666742 14.0083705357142  C 0.0835503472221717 13.7036830357142  0 13.3675595238096  0 13  C 0 11.7909226190477  0.319878472222172 10.792224702381  0.959635416666742 10.00390625  C 1.59939236111109 9.21558779761904  2.50173611111109 8.82142857142867  3.66666666666674 8.82142857142867  C 4.31597222222217 8.82142857142867  4.92708333333326 8.92782738095229  5.5 9.140625  L 5.5 3.71428571428578  C 5.5 2.70833333333326  5.86284722222217 1.83779761904771  6.58854166666674 1.10267857142867  C 7.31423611111109 0.367559523809632  8.16883680555566 0  9.15234375 0  C 10.1549479166667 0  11.0190972222222 0.365141369047706  11.7447916666667 1.09542410714289  C 12.4704861111111 1.82570684523807  12.8333333333333 2.69866071428578  12.8333333333333 3.71428571428578  L 12.8333333333333 6.16629464285711  C 13.4253472222222 6.20498511904771  13.9934895833333 6.38392857142867  14.5377604166667 6.703125  C 14.73828125 6.67410714285711  14.9435763888889 6.65959821428578  15.1536458333333 6.65959821428578  C 16.1180555555557 6.65959821428578  16.9678819444443 6.94977678571422  17.703125 7.53013392857133  C 19.0303819444443 7.52046130952385  20.0783420138889 7.93154761904771  20.8470052083333 8.76339285714289  Z " fill-rule="nonzero" fill="#000000" stroke="none" transform="matrix(1 0 0 1 181 9879 )" />
  </g>
</svg>