<?xml version="1.0" encoding="utf-8"?>
<svg version="1.1" xmlns:xlink="http://www.w3.org/1999/xlink" width="20px" height="17px" xmlns="http://www.w3.org/2000/svg">
  <defs>
    <mask fill="white" id="clip42">
      <path d="M 7.23557692307693 14.3678977272727  C 7.54006410256412 14.6737689393939  7.69230769230768 15.0359848484849  7.69230769230768 15.4545454545454  C 7.69230769230768 15.8731060606061  7.54006410256412 16.235321969697  7.23557692307693 16.5411931818182  C 6.93108974358975 16.8470643939394  6.57051282051282 17  6.15384615384616 17  C 5.73717948717947 17  5.37660256410257 16.8470643939394  5.07211538461539 16.5411931818182  C 4.7676282051282 16.235321969697  4.61538461538461 15.8731060606061  4.61538461538461 15.4545454545454  C 4.61538461538461 15.0359848484849  4.7676282051282 14.6737689393939  5.07211538461539 14.3678977272727  C 5.37660256410257 14.0620265151515  5.73717948717947 13.9090909090909  6.15384615384616 13.9090909090909  C 6.57051282051282 13.9090909090909  6.93108974358975 14.0620265151515  7.23557692307693 14.3678977272727  Z M 18.0048076923077 14.3678977272727  C 18.3092948717949 14.6737689393939  18.4615384615385 15.0359848484849  18.4615384615385 15.4545454545454  C 18.4615384615385 15.8731060606061  18.3092948717949 16.235321969697  18.0048076923077 16.5411931818182  C 17.7003205128205 16.8470643939394  17.3397435897436 17  16.9230769230769 17  C 16.5064102564102 17  16.1458333333333 16.8470643939394  15.8413461538462 16.5411931818182  C 15.536858974359 16.235321969697  15.3846153846154 15.8731060606061  15.3846153846154 15.4545454545454  C 15.3846153846154 15.0359848484849  15.536858974359 14.6737689393939  15.8413461538462 14.3678977272727  C 16.1458333333333 14.0620265151515  16.5064102564102 13.9090909090909  16.9230769230769 13.9090909090909  C 17.3397435897436 13.9090909090909  17.7003205128205 14.0620265151515  18.0048076923077 14.3678977272727  Z M 19.7716346153846 1.77485795454544  C 19.9238782051282 1.92779356060606  20 2.1089015151515  20 2.31818181818181  L 20 8.5  C 20 8.69318181818181  19.9338942307692 8.864228219697  19.8016826923077 9.01313920454544  C 19.6694711538462 9.16205018939394  19.5072115384615 9.24857954545456  19.3149038461538 9.27272727272725  L 6.76682692307693 10.7457386363636  C 6.87099358974359 11.2286931818182  6.92307692307693 11.5104166666667  6.92307692307693 11.5909090909091  C 6.92307692307693 11.7196969696969  6.82692307692307 11.9772727272727  6.63461538461539 12.3636363636364  L 17.6923076923077 12.3636363636364  C 17.900641025641 12.3636363636364  18.0809294871795 12.4401041666667  18.2331730769231 12.5930397727273  C 18.3854166666667 12.7459753787879  18.4615384615385 12.9270833333333  18.4615384615385 13.1363636363636  C 18.4615384615385 13.3456439393939  18.3854166666667 13.5267518939394  18.2331730769231 13.6796875  C 18.0809294871795 13.8326231060606  17.900641025641 13.9090909090909  17.6923076923077 14  L 5.38461538461539 14  C 5.17628205128204 13.9090909090909  4.99599358974359 13.8326231060606  4.84375 13.6796875  C 4.69150641025641 13.5267518939394  4.61538461538461 13.3456439393939  4.61538461538461 13.1363636363636  C 4.61538461538461 13.047821969697  4.64743589743588 12.9210464015151  4.71153846153845 12.7560369318182  C 4.77564102564102 12.5910274621212  4.83974358974359 12.4461410984849  4.90384615384616 12.3213778409091  C 4.96794871794873 12.1966145833333  5.05408653846155 12.0356297348485  5.16225961538461 11.8384232954546  C 5.27043269230768 11.6412168560606  5.33253205128204 11.522490530303  5.34855769230768 11.4822443181818  L 3.22115384615384 1.54545454545456  L 0.769230769230774 1.54545454545456  C 0.560897435897431 1.54545454545456  0.380608974358978 1.46898674242425  0.228365384615387 1.31605113636363  C 0.0761217948717956 1.163115530303  0 0.982007575757564  0 0.772727272727252  C 0 0.56344696969694  0.0761217948717956 0.382339015151501  0.228365384615387 0.229403409090935  C 0.380608974358978 0.0764678030303116  0.560897435897431 0  0.769230769230774 0  L 3.84615384615384 0  C 3.97435897435898 0  4.08854166666666 0.0261600378788103  4.18870192307693 0.078480113636374  C 4.28886217948718 0.130800189393938  4.36698717948718 0.193181818181813  4.42307692307693 0.265625  C 4.47916666666666 0.338068181818187  4.53125 0.436671401515127  4.57932692307693 0.561434659090935  C 4.62740384615384 0.686197916666686  4.65945512820514 0.790838068181813  4.67548076923077 0.875355113636374  C 4.69150641025641 0.959872159090935  4.71354166666666 1.0785984848485  4.74158653846155 1.23153409090907  C 4.76963141025641 1.38446969696969  4.78766025641025 1.48910984848487  4.79567307692307 1.54545454545456  L 19.2307692307692 1.54545454545456  C 19.4391025641026 1.54545454545456  19.619391025641 1.62192234848487  19.7716346153846 1.77485795454544  Z " fill-rule="evenodd" />
    </mask>
  </defs>
  <g transform="matrix(1 0 0 1 -661 -3758 )">
    <path d="M 7.23557692307693 14.3678977272727  C 7.54006410256412 14.6737689393939  7.69230769230768 15.0359848484849  7.69230769230768 15.4545454545454  C 7.69230769230768 15.8731060606061  7.54006410256412 16.235321969697  7.23557692307693 16.5411931818182  C 6.93108974358975 16.8470643939394  6.57051282051282 17  6.15384615384616 17  C 5.73717948717947 17  5.37660256410257 16.8470643939394  5.07211538461539 16.5411931818182  C 4.7676282051282 16.235321969697  4.61538461538461 15.8731060606061  4.61538461538461 15.4545454545454  C 4.61538461538461 15.0359848484849  4.7676282051282 14.6737689393939  5.07211538461539 14.3678977272727  C 5.37660256410257 14.0620265151515  5.73717948717947 13.9090909090909  6.15384615384616 13.9090909090909  C 6.57051282051282 13.9090909090909  6.93108974358975 14.0620265151515  7.23557692307693 14.3678977272727  Z M 18.0048076923077 14.3678977272727  C 18.3092948717949 14.6737689393939  18.4615384615385 15.0359848484849  18.4615384615385 15.4545454545454  C 18.4615384615385 15.8731060606061  18.3092948717949 16.235321969697  18.0048076923077 16.5411931818182  C 17.7003205128205 16.8470643939394  17.3397435897436 17  16.9230769230769 17  C 16.5064102564102 17  16.1458333333333 16.8470643939394  15.8413461538462 16.5411931818182  C 15.536858974359 16.235321969697  15.3846153846154 15.8731060606061  15.3846153846154 15.4545454545454  C 15.3846153846154 15.0359848484849  15.536858974359 14.6737689393939  15.8413461538462 14.3678977272727  C 16.1458333333333 14.0620265151515  16.5064102564102 13.9090909090909  16.9230769230769 13.9090909090909  C 17.3397435897436 13.9090909090909  17.7003205128205 14.0620265151515  18.0048076923077 14.3678977272727  Z M 19.7716346153846 1.77485795454544  C 19.9238782051282 1.92779356060606  20 2.1089015151515  20 2.31818181818181  L 20 8.5  C 20 8.69318181818181  19.9338942307692 8.864228219697  19.8016826923077 9.01313920454544  C 19.6694711538462 9.16205018939394  19.5072115384615 9.24857954545456  19.3149038461538 9.27272727272725  L 6.76682692307693 10.7457386363636  C 6.87099358974359 11.2286931818182  6.92307692307693 11.5104166666667  6.92307692307693 11.5909090909091  C 6.92307692307693 11.7196969696969  6.82692307692307 11.9772727272727  6.63461538461539 12.3636363636364  L 17.6923076923077 12.3636363636364  C 17.900641025641 12.3636363636364  18.0809294871795 12.4401041666667  18.2331730769231 12.5930397727273  C 18.3854166666667 12.7459753787879  18.4615384615385 12.9270833333333  18.4615384615385 13.1363636363636  C 18.4615384615385 13.3456439393939  18.3854166666667 13.5267518939394  18.2331730769231 13.6796875  C 18.0809294871795 13.8326231060606  17.900641025641 13.9090909090909  17.6923076923077 14  L 5.38461538461539 14  C 5.17628205128204 13.9090909090909  4.99599358974359 13.8326231060606  4.84375 13.6796875  C 4.69150641025641 13.5267518939394  4.61538461538461 13.3456439393939  4.61538461538461 13.1363636363636  C 4.61538461538461 13.047821969697  4.64743589743588 12.9210464015151  4.71153846153845 12.7560369318182  C 4.77564102564102 12.5910274621212  4.83974358974359 12.4461410984849  4.90384615384616 12.3213778409091  C 4.96794871794873 12.1966145833333  5.05408653846155 12.0356297348485  5.16225961538461 11.8384232954546  C 5.27043269230768 11.6412168560606  5.33253205128204 11.522490530303  5.34855769230768 11.4822443181818  L 3.22115384615384 1.54545454545456  L 0.769230769230774 1.54545454545456  C 0.560897435897431 1.54545454545456  0.380608974358978 1.46898674242425  0.228365384615387 1.31605113636363  C 0.0761217948717956 1.163115530303  0 0.982007575757564  0 0.772727272727252  C 0 0.56344696969694  0.0761217948717956 0.382339015151501  0.228365384615387 0.229403409090935  C 0.380608974358978 0.0764678030303116  0.560897435897431 0  0.769230769230774 0  L 3.84615384615384 0  C 3.97435897435898 0  4.08854166666666 0.0261600378788103  4.18870192307693 0.078480113636374  C 4.28886217948718 0.130800189393938  4.36698717948718 0.193181818181813  4.42307692307693 0.265625  C 4.47916666666666 0.338068181818187  4.53125 0.436671401515127  4.57932692307693 0.561434659090935  C 4.62740384615384 0.686197916666686  4.65945512820514 0.790838068181813  4.67548076923077 0.875355113636374  C 4.69150641025641 0.959872159090935  4.71354166666666 1.0785984848485  4.74158653846155 1.23153409090907  C 4.76963141025641 1.38446969696969  4.78766025641025 1.48910984848487  4.79567307692307 1.54545454545456  L 19.2307692307692 1.54545454545456  C 19.4391025641026 1.54545454545456  19.619391025641 1.62192234848487  19.7716346153846 1.77485795454544  Z " fill-rule="nonzero" fill="#ffffff" stroke="none" fill-opacity="0" transform="matrix(1 0 0 1 661 3758 )" />
    <path d="M 7.23557692307693 14.3678977272727  C 7.54006410256412 14.6737689393939  7.69230769230768 15.0359848484849  7.69230769230768 15.4545454545454  C 7.69230769230768 15.8731060606061  7.54006410256412 16.235321969697  7.23557692307693 16.5411931818182  C 6.93108974358975 16.8470643939394  6.57051282051282 17  6.15384615384616 17  C 5.73717948717947 17  5.37660256410257 16.8470643939394  5.07211538461539 16.5411931818182  C 4.7676282051282 16.235321969697  4.61538461538461 15.8731060606061  4.61538461538461 15.4545454545454  C 4.61538461538461 15.0359848484849  4.7676282051282 14.6737689393939  5.07211538461539 14.3678977272727  C 5.37660256410257 14.0620265151515  5.73717948717947 13.9090909090909  6.15384615384616 13.9090909090909  C 6.57051282051282 13.9090909090909  6.93108974358975 14.0620265151515  7.23557692307693 14.3678977272727  Z " stroke-width="4" stroke="#666666" fill="none" transform="matrix(1 0 0 1 661 3758 )" mask="url(#clip42)" />
    <path d="M 18.0048076923077 14.3678977272727  C 18.3092948717949 14.6737689393939  18.4615384615385 15.0359848484849  18.4615384615385 15.4545454545454  C 18.4615384615385 15.8731060606061  18.3092948717949 16.235321969697  18.0048076923077 16.5411931818182  C 17.7003205128205 16.8470643939394  17.3397435897436 17  16.9230769230769 17  C 16.5064102564102 17  16.1458333333333 16.8470643939394  15.8413461538462 16.5411931818182  C 15.536858974359 16.235321969697  15.3846153846154 15.8731060606061  15.3846153846154 15.4545454545454  C 15.3846153846154 15.0359848484849  15.536858974359 14.6737689393939  15.8413461538462 14.3678977272727  C 16.1458333333333 14.0620265151515  16.5064102564102 13.9090909090909  16.9230769230769 13.9090909090909  C 17.3397435897436 13.9090909090909  17.7003205128205 14.0620265151515  18.0048076923077 14.3678977272727  Z " stroke-width="4" stroke="#666666" fill="none" transform="matrix(1 0 0 1 661 3758 )" mask="url(#clip42)" />
    <path d="M 19.7716346153846 1.77485795454544  C 19.9238782051282 1.92779356060606  20 2.1089015151515  20 2.31818181818181  L 20 8.5  C 20 8.69318181818181  19.9338942307692 8.864228219697  19.8016826923077 9.01313920454544  C 19.6694711538462 9.16205018939394  19.5072115384615 9.24857954545456  19.3149038461538 9.27272727272725  L 6.76682692307693 10.7457386363636  C 6.87099358974359 11.2286931818182  6.92307692307693 11.5104166666667  6.92307692307693 11.5909090909091  C 6.92307692307693 11.7196969696969  6.82692307692307 11.9772727272727  6.63461538461539 12.3636363636364  L 17.6923076923077 12.3636363636364  C 17.900641025641 12.3636363636364  18.0809294871795 12.4401041666667  18.2331730769231 12.5930397727273  C 18.3854166666667 12.7459753787879  18.4615384615385 12.9270833333333  18.4615384615385 13.1363636363636  C 18.4615384615385 13.3456439393939  18.3854166666667 13.5267518939394  18.2331730769231 13.6796875  C 18.0809294871795 13.8326231060606  17.900641025641 13.9090909090909  17.6923076923077 14  L 5.38461538461539 14  C 5.17628205128204 13.9090909090909  4.99599358974359 13.8326231060606  4.84375 13.6796875  C 4.69150641025641 13.5267518939394  4.61538461538461 13.3456439393939  4.61538461538461 13.1363636363636  C 4.61538461538461 13.047821969697  4.64743589743588 12.9210464015151  4.71153846153845 12.7560369318182  C 4.77564102564102 12.5910274621212  4.83974358974359 12.4461410984849  4.90384615384616 12.3213778409091  C 4.96794871794873 12.1966145833333  5.05408653846155 12.0356297348485  5.16225961538461 11.8384232954546  C 5.27043269230768 11.6412168560606  5.33253205128204 11.522490530303  5.34855769230768 11.4822443181818  L 3.22115384615384 1.54545454545456  L 0.769230769230774 1.54545454545456  C 0.560897435897431 1.54545454545456  0.380608974358978 1.46898674242425  0.228365384615387 1.31605113636363  C 0.0761217948717956 1.163115530303  0 0.982007575757564  0 0.772727272727252  C 0 0.56344696969694  0.0761217948717956 0.382339015151501  0.228365384615387 0.229403409090935  C 0.380608974358978 0.0764678030303116  0.560897435897431 0  0.769230769230774 0  L 3.84615384615384 0  C 3.97435897435898 0  4.08854166666666 0.0261600378788103  4.18870192307693 0.078480113636374  C 4.28886217948718 0.130800189393938  4.36698717948718 0.193181818181813  4.42307692307693 0.265625  C 4.47916666666666 0.338068181818187  4.53125 0.436671401515127  4.57932692307693 0.561434659090935  C 4.62740384615384 0.686197916666686  4.65945512820514 0.790838068181813  4.67548076923077 0.875355113636374  C 4.69150641025641 0.959872159090935  4.71354166666666 1.0785984848485  4.74158653846155 1.23153409090907  C 4.76963141025641 1.38446969696969  4.78766025641025 1.48910984848487  4.79567307692307 1.54545454545456  L 19.2307692307692 1.54545454545456  C 19.4391025641026 1.54545454545456  19.619391025641 1.62192234848487  19.7716346153846 1.77485795454544  Z " stroke-width="4" stroke="#666666" fill="none" transform="matrix(1 0 0 1 661 3758 )" mask="url(#clip42)" />
  </g>
</svg>