<?xml version="1.0" encoding="utf-8"?>
<svg version="1.1" xmlns:xlink="http://www.w3.org/1999/xlink" width="25px" height="29px" xmlns="http://www.w3.org/2000/svg">
  <g transform="matrix(1 0 0 1 -305 -4203 )">
    <path d="M 20.5240885416667 26.62109375  C 20.7302517361111 26.4161086309524  20.8333333333333 26.1733630952381  20.8333333333333 25.8928571428571  C 20.8333333333333 25.6123511904761  20.7302517361111 25.3696056547619  20.5240885416667 25.1646205357143  C 20.3179253472222 24.9596354166666  20.0737847222222 24.8571428571429  19.7916666666667 24.8571428571429  C 19.5095486111111 24.8571428571429  19.2654079861111 24.9596354166666  19.0592447916667 25.1646205357143  C 18.8530815972222 25.3696056547619  18.75 25.6123511904761  18.75 25.8928571428571  C 18.75 26.1733630952381  18.8530815972222 26.4161086309524  19.0592447916667 26.62109375  C 19.2654079861111 26.8260788690476  19.5095486111111 26.9285714285714  19.7916666666667 26.9285714285714  C 20.0737847222222 26.9285714285714  20.3179253472222 26.8260788690476  20.5240885416667 26.62109375  Z M 22.3958333333333 16.4338727678571  C 22.7430555555557 15.3711867559524  22.9166666666667 14.4029017857143  22.9166666666667 13.5290178571429  C 22.9166666666667 11.4899553571429  22.0106336805557 10.4704241071429  20.1985677083333 10.4704241071429  C 19.9164496527778 10.4704241071429  19.6126302083333 10.4973958333334  19.287109375 10.5513392857143  C 19.1134982638889 10.2276785714286  18.8286675347222 9.97144717261904  18.4326171875 9.78264508928567  C 18.0365668402778 9.59384300595241  17.6378038194443 9.49944196428567  17.236328125 9.49944196428567  C 16.8348524305557 9.49944196428567  16.4605034722222 9.59654017857144  16.11328125 9.79073660714289  C 15.5707465277778 9.21893601190482  14.9251302083333 8.93303571428567  14.1764322916667 8.93303571428567  C 13.9051649305557 8.93303571428567  13.6040581597222 8.98697916666663  13.2731119791667 9.09486607142856  C 12.9421657986111 9.20275297619048  12.6844618055557 9.33761160714289  12.5 9.49944196428567  L 12.5 4.14285714285711  C 12.5 3.58184523809518  12.2938368055557 3.09635416666663  11.8815104166667 2.68638392857144  C 11.4691840277778 2.27641369047615  10.9809027777778 2.07142857142856  10.4166666666667 2.07142857142856  C 9.86328125 2.07142857142856  9.37771267361109 2.28180803571433  8.9599609375 2.70256696428567  C 8.54220920138891 3.12332589285711  8.33333333333326 3.60342261904759  8.33333333333326 4.14285714285711  L 8.33333333333326 13.4642857142857  C 8.11631944444434 13.4642857142857  7.85319010416674 13.3833705357143  7.5439453125 13.2215401785714  C 7.23470052083326 13.0597098214286  6.93630642361109 12.8816964285714  6.64876302083326 12.6875  C 6.36121961805566 12.4933035714286  5.99229600694434 12.3152901785714  5.5419921875 12.1534598214286  C 5.09168836805566 11.9916294642857  4.63324652777783 11.9107142857143  4.16666666666674 11.9107142857143  C 3.43967013888891 11.9107142857143  2.91069878472217 12.1507626488095  2.57975260416674 12.630859375  C 2.24880642361109 13.1109561011905  2.08333333333326 13.7340029761905  2.08333333333326 14.5  C 2.08333333333326 14.7589285714286  2.83745659722217 15.2444196428571  4.345703125 15.9564732142857  C 4.82313368055566 16.2154017857143  5.17578125 16.4149925595239  5.40364583333326 16.5552455357143  C 6.09809027777783 16.9867931547619  6.884765625 17.5909598214286  7.763671875 18.3677455357143  C 8.642578125 19.1337425595239  9.21766493055566 19.6785714285714  9.48893229166674 20.0022321428571  C 10.107421875 20.7466517857143  10.4166666666667 21.5018601190476  10.4166666666667 22.2678571428571  L 10.4166666666667 22.7857142857143  L 20.8333333333333 22.7857142857143  L 20.8333333333333 22.2678571428571  C 20.8333333333333 21.4910714285714  21.0069444444443 20.5902157738095  21.3541666666667 19.5652901785714  C 21.7013888888889 18.5403645833334  22.0486111111111 17.4965587797619  22.3958333333333 16.4338727678571  Z M 23.6897786458333 9.77455357142856  C 24.5632595486111 10.702380952381  25 11.9268973214286  25 13.4481026785714  C 25 14.8829985119048  24.6256510416667 16.6199776785714  23.876953125 18.6590401785714  C 23.2367621527778 20.4283854166666  22.9166666666667 21.6313244047619  22.9166666666667 22.2678571428571  L 22.9166666666667 26.9285714285714  C 22.9166666666667 27.5003720238095  22.7132161458333 27.9885602678571  22.3063151041667 28.3931361607143  C 21.8994140625 28.7977120535714  21.4084201388889 29  20.8333333333333 29  L 10.4166666666667 29  C 9.84157986111109 29  9.3505859375 28.7977120535714  8.94368489583326 28.3931361607143  C 8.53678385416674 27.9885602678571  8.33333333333326 27.5003720238095  8.33333333333326 26.9285714285714  L 8.33333333333326 22.2678571428571  C 8.33333333333326 22.1599702380952  8.30891927083326 22.0439918154761  8.26009114583326 21.919921875  C 8.21126302083326 21.7958519345239  8.13530815972217 21.6690848214286  8.0322265625 21.5396205357143  C 7.92914496527783 21.41015625  7.83148871527783 21.2887834821429  7.7392578125 21.1755022321429  C 7.64702690972217 21.0622209821429  7.52495659722217 20.9327566964286  7.373046875 20.787109375  C 7.22113715277783 20.6414620535714  7.1044921875 20.5308779761905  7.02311197916674 20.4553571428571  C 6.94173177083326 20.3798363095239  6.82508680555566 20.27734375  6.67317708333326 20.1478794642857  C 6.52126736111109 20.0184151785714  6.42903645833326 19.9428943452381  6.396484375 19.9213169642857  C 5.59353298611109 19.2200520833334  4.89366319444434 18.6806175595239  4.296875 18.3030133928571  C 4.06901041666674 18.1627604166666  3.73263888888891 17.9847470238095  3.28776041666674 17.7689732142857  C 2.84288194444434 17.5531994047619  2.45225694444434 17.3536086309524  2.11588541666674 17.1702008928571  C 1.77951388888891 16.9867931547619  1.43771701388891 16.768322172619  1.09049479166674 16.5147879464286  C 0.743272569444343 16.2612537202381  0.474717881944343 15.9645647321429  0.284830729166742 15.6247209821429  C 0.0949435763889142 15.2848772321429  0 14.9099702380952  0 14.5  C 0 13.1514136904761  0.363498263888914 12.0374813988095  1.09049479166674 11.158203125  C 1.81749131944434 10.2789248511905  2.84288194444434 9.83928571428567  4.16666666666674 9.83928571428567  C 4.90451388888891 9.83928571428567  5.59895833333326 9.95796130952385  6.25 10.1953125  L 6.25 4.14285714285711  C 6.25 3.02083333333337  6.66232638888891 2.04985119047615  7.48697916666674 1.22991071428567  C 8.31163194444434 0.409970238095298  9.28276909722217 0  10.400390625 0  C 11.5397135416667 0  12.5217013888889 0.407273065476147  13.3463541666667 1.22181919642856  C 14.1710069444443 2.03636532738096  14.5833333333333 3.01004464285711  14.5833333333333 4.14285714285711  L 14.5833333333333 6.87779017857144  C 15.2560763888889 6.92094494047615  15.9016927083333 7.12053571428567  16.5201822916667 7.4765625  C 16.748046875 7.44419642857145  16.9813368055557 7.42801339285711  17.2200520833333 7.42801339285711  C 18.3159722222222 7.42801339285711  19.2816840277778 7.75167410714289  20.1171875 8.39899553571433  C 21.6254340277778 8.38820684523807  22.8162977430557 8.84672619047615  23.6897786458333 9.77455357142856  Z " fill-rule="nonzero" fill="#000000" stroke="none" transform="matrix(1 0 0 1 305 4203 )" />
  </g>
</svg>