<?xml version="1.0" encoding="utf-8"?>
<svg version="1.1" xmlns:xlink="http://www.w3.org/1999/xlink" width="8px" height="4px" xmlns="http://www.w3.org/2000/svg">
  <g transform="matrix(1 0 0 1 -357 -4190 )">
    <path d="M 7.91983967935872 0.412371134020759  C 7.97327989311955 0.458190148911854  8 0.510882016036703  8 0.570446735395308  C 8 0.630011454753458  7.97327989311955 0.682703321878307  7.91983967935872 0.728522336769856  L 4.18436873747496 3.93127147766336  C 4.13092852371409 3.97709049255445  4.0694722778891 4  4 4  C 3.9305277221109 4  3.86907147628591 3.97709049255445  3.81563126252505 3.93127147766336  L 0.0801603206412835 0.728522336769856  C 0.0267201068804468 0.682703321878307  0 0.630011454753458  0 0.570446735395308  C 0 0.510882016036703  0.0267201068804468 0.458190148911854  0.0801603206412835 0.412371134020759  L 0.480961923847673 0.0687285223366416  C 0.534402137608566 0.0229095074455472  0.595858383433523 0  0.665330661322628 0  C 0.734802939211761 0  0.796259185036746 0.0229095074455472  0.849699398797583 0.0687285223366416  L 4 2.76975945017193  L 7.15030060120242 0.0687285223366416  C 7.20374081496325 0.0229095074455472  7.26519706078824 0  7.33466933867737 0  C 7.40414161656648 0  7.46559786239143 0.0229095074455472  7.51903807615233 0.0687285223366416  L 7.91983967935872 0.412371134020759  Z " fill-rule="nonzero" fill="#999999" stroke="none" transform="matrix(1 0 0 1 357 4190 )" />
  </g>
</svg>