<?xml version="1.0" encoding="utf-8"?>
<svg version="1.1" xmlns:xlink="http://www.w3.org/1999/xlink" width="8px" height="4px" xmlns="http://www.w3.org/2000/svg">
  <g transform="matrix(1 0 0 1 -604 -5103 )">
    <path d="M 7.91983967935872 3.58762886597924  C 7.97327989311955 3.54180985108815  8 3.4891179839633  8 3.42955326460469  C 8 3.36998854524654  7.97327989311955 3.31729667812169  7.91983967935872 3.27147766323014  L 4.18436873747496 0.0687285223366416  C 4.13092852371409 0.0229095074455472  4.0694722778891 0  4 0  C 3.9305277221109 0  3.86907147628591 0.0229095074455472  3.81563126252505 0.0687285223366416  L 0.0801603206412835 3.27147766323014  C 0.0267201068804468 3.31729667812169  0 3.36998854524654  0 3.42955326460469  C 0 3.4891179839633  0.0267201068804468 3.54180985108815  0.0801603206412835 3.58762886597924  L 0.480961923847673 3.93127147766336  C 0.534402137608566 3.97709049255445  0.595858383433523 4  0.665330661322628 4  C 0.734802939211761 4  0.796259185036746 3.97709049255445  0.849699398797583 3.93127147766336  L 4 1.23024054982807  L 7.15030060120242 3.93127147766336  C 7.20374081496325 3.97709049255445  7.26519706078824 4  7.33466933867737 4  C 7.40414161656648 4  7.46559786239143 3.97709049255445  7.51903807615233 3.93127147766336  L 7.91983967935872 3.58762886597924  Z " fill-rule="nonzero" fill="#999999" stroke="none" transform="matrix(1 0 0 1 604 5103 )" />
  </g>
</svg>