<?xml version="1.0" encoding="utf-8"?>
<svg version="1.1" xmlns:xlink="http://www.w3.org/1999/xlink" width="14px" height="14px" xmlns="http://www.w3.org/2000/svg">
  <g transform="matrix(1 0 0 1 -1417 -25 )">
    <path d="M 6.29999999999995 9.8  L 6.29999999999995 11.2  L 7.70000000000005 11.2  L 7.70000000000005 9.8  L 6.29999999999995 9.8  Z M 14 7  C 14 3.136  10.864 0  7 0  C 3.13599999999997 0  0 3.136  0 7  C 0 10.864  3.13599999999997 14  7 14  C 10.864 14  14 10.864  14 7  Z M 12.5999999999999 7  C 12.5999999999999 10.087  10.087 12.6  7 12.6  C 3.91300000000001 12.6  1.40000000000009 10.087  1.40000000000009 7  C 1.40000000000009 3.913  3.91300000000001 1.4  7 1.4  C 10.087 1.4  12.5999999999999 3.913  12.5999999999999 7  Z M 9.79999999999995 5.6  C 9.79999999999995 4.053  8.54700000000003 2.8  7 2.8  C 5.45299999999997 2.8  4.20000000000005 4.053  4.20000000000005 5.6  L 5.59999999999991 5.6  C 5.59999999999991 4.83  6.23000000000002 4.2  7 4.2  C 7.76999999999998 4.2  8.40000000000009 4.83  8.40000000000009 5.6  C 8.40000000000009 7  6.29999999999995 6.825  6.29999999999995 9.1  L 7.70000000000005 9.1  C 7.70000000000005 7.525  9.79999999999995 7.35  9.79999999999995 5.6  Z " fill-rule="nonzero" fill="#666666" stroke="none" transform="matrix(1 0 0 1 1417 25 )" />
  </g>
</svg>