<?xml version="1.0" encoding="utf-8"?>
<svg version="1.1" xmlns:xlink="http://www.w3.org/1999/xlink" width="12px" height="14px" xmlns="http://www.w3.org/2000/svg">
  <g transform="matrix(1 0 0 1 -1384 -25 )">
    <path d="M 10 4  C 10 4.765625  9.79427083333326 5.47395833333334  9.3828125 6.125  C 9.62760416666674 6.19791666666666  9.86067708333326 6.296875  10.08203125 6.421875  C 10.3033854166667 6.546875  10.53515625 6.73697916666666  10.77734375 6.9921875  C 11.01953125 7.24739583333334  11.2265625 7.54817708333334  11.3984375 7.89453125  C 11.5703125 8.24088541666667  11.7135416666667 8.68880208333333  11.828125 9.23828125  C 11.9427083333333 9.78776041666666  12 10.4036458333333  12 11.0859375  C 12 11.8880208333333  11.7395833333333 12.57421875  11.21875 13.14453125  C 10.6979166666667 13.71484375  10.0703125 14  9.3359375 14  L 2.6640625 14  C 1.9296875 14  1.30208333333326 13.71484375  0.78125 13.14453125  C 0.260416666666742 12.57421875  0 11.8880208333333  0 11.0859375  C 0 10.4036458333333  0.0572916666667425 9.78776041666666  0.171875 9.23828125  C 0.286458333333258 8.68880208333333  0.4296875 8.24088541666667  0.6015625 7.89453125  C 0.7734375 7.54817708333334  0.98046875 7.24739583333334  1.22265625 6.9921875  C 1.46484375 6.73697916666666  1.69661458333326 6.546875  1.91796875 6.421875  C 2.13932291666674 6.296875  2.37239583333326 6.19791666666666  2.6171875 6.125  C 2.20572916666674 5.47395833333334  2 4.765625  2 4  C 2 3.45833333333333  2.10546875 2.94140625  2.31640625 2.44921875  C 2.52734375 1.95703125  2.8125 1.53125  3.171875 1.171875  C 3.53125 0.8125  3.95703125 0.52734375  4.44921875 0.31640625  C 4.94140625 0.10546875  5.45833333333326 0  6 0  C 6.54166666666674 0  7.05859375 0.10546875  7.55078125 0.31640625  C 8.04296875 0.52734375  8.46875 0.8125  8.828125 1.171875  C 9.1875 1.53125  9.47265625 1.95703125  9.68359375 2.44921875  C 9.89453125 2.94140625  10 3.45833333333333  10 4  Z M 8.12109375 1.87890625  C 7.53515625 1.29296875  6.828125 0.999999999999996  6 0.999999999999996  C 5.171875 0.999999999999996  4.46484375 1.29296875  3.87890625 1.87890625  C 3.29296875 2.46484375  3 3.171875  3 4  C 3 4.828125  3.29296875 5.53515625  3.87890625 6.12109375  C 4.46484375 6.70703125  5.171875 7  6 7  C 6.828125 7  7.53515625 6.70703125  8.12109375 6.12109375  C 8.70703125 5.53515625  9 4.828125  9 4  C 9 3.171875  8.70703125 2.46484375  8.12109375 1.87890625  Z M 2.6640625 13  L 9.3359375 13  C 9.79427083333326 13  10.1861979166667 12.8138020833333  10.51171875 12.44140625  C 10.8372395833333 12.0690104166667  11 11.6171875  11 11.0859375  C 11 9.84114583333333  10.7955729166667 8.859375  10.38671875 8.140625  C 9.97786458333326 7.421875  9.390625 7.04427083333333  8.625 7.0078125  C 7.86979166666674 7.66927083333333  6.99479166666674 8  6 8  C 5.00520833333326 8  4.13020833333326 7.66927083333333  3.375 7.0078125  C 2.609375 7.04427083333333  2.02213541666674 7.421875  1.61328125 8.140625  C 1.20442708333326 8.859375  1 9.84114583333333  1 11.0859375  C 1 11.6171875  1.16276041666674 12.0690104166667  1.48828125 12.44140625  C 1.81380208333326 12.8138020833333  2.20572916666674 13  2.6640625 13  Z " fill-rule="nonzero" fill="#666666" stroke="none" transform="matrix(1 0 0 1 1384 25 )" />
  </g>
</svg>