<?xml version="1.0" encoding="utf-8"?>
<svg version="1.1" xmlns:xlink="http://www.w3.org/1999/xlink" width="15px" height="12px" xmlns="http://www.w3.org/2000/svg">
  <g transform="matrix(1 0 0 1 -94 -491 )">
    <path d="M 2.74553571428571 9.20454545454545  C 3.05803571428572 9.52272727272727  3.21428571428571 9.90909090909091  3.21428571428571 10.3636363636364  C 3.21428571428571 10.8181818181818  3.05803571428572 11.2045454545455  2.74553571428571 11.5227272727273  C 2.43303571428572 11.8409090909091  2.05357142857143 12  1.60714285714286 12  C 1.16071428571429 12  0.78125 11.8409090909091  0.46875 11.5227272727273  C 0.15625 11.2045454545455  0 10.8181818181818  0 10.3636363636364  C 0 9.90909090909091  0.15625 9.52272727272727  0.46875 9.20454545454545  C 0.78125 8.88636363636364  1.16071428571429 8.72727272727272  1.60714285714286 8.72727272727272  C 2.05357142857143 8.72727272727272  2.43303571428572 8.88636363636364  2.74553571428571 9.20454545454545  Z M 2.74553571428571 4.84090909090909  C 3.05803571428572 5.15909090909091  3.21428571428571 5.54545454545455  3.21428571428571 6  C 3.21428571428571 6.45454545454545  3.05803571428572 6.84090909090909  2.74553571428571 7.15909090909091  C 2.43303571428572 7.47727272727273  2.05357142857143 7.63636363636363  1.60714285714286 7.63636363636363  C 1.16071428571429 7.63636363636363  0.78125 7.47727272727273  0.46875 7.15909090909091  C 0.15625 6.84090909090909  0 6.45454545454545  0 6  C 0 5.54545454545455  0.15625 5.15909090909091  0.46875 4.84090909090909  C 0.78125 4.52272727272727  1.16071428571429 4.36363636363637  1.60714285714286 4.36363636363637  C 2.05357142857143 4.36363636363637  2.43303571428572 4.52272727272727  2.74553571428571 4.84090909090909  Z M 14.9204799107143 9.35369318181819  C 14.9734933035714 9.40767045454545  15 9.47159090909091  15 9.54545454545455  L 15 11.1818181818182  C 15 11.2556818181818  14.9734933035714 11.3196022727273  14.9204799107143 11.3735795454545  C 14.8674665178571 11.4275568181818  14.8046875 11.4545454545455  14.7321428571429 11.4545454545455  L 4.55357142857143 11.4545454545455  C 4.48102678571429 11.4545454545455  4.41824776785714 11.4275568181818  4.365234375 11.3735795454545  C 4.31222098214286 11.3196022727273  4.28571428571428 11.2556818181818  4.28571428571428 11.1818181818182  L 4.28571428571428 9.54545454545455  C 4.28571428571428 9.47159090909091  4.31222098214286 9.40767045454545  4.365234375 9.35369318181819  C 4.41824776785714 9.29971590909091  4.48102678571429 9.27272727272728  4.55357142857143 9.27272727272728  L 14.7321428571429 9.27272727272728  C 14.8046875 9.27272727272728  14.8674665178571 9.29971590909091  14.9204799107143 9.35369318181819  Z M 2.74553571428571 0.47727272727272  C 3.05803571428572 0.795454545454547  3.21428571428571 1.18181818181819  3.21428571428571 1.63636363636363  C 3.21428571428571 2.09090909090909  3.05803571428572 2.47727272727272  2.74553571428571 2.79545454545455  C 2.43303571428572 3.11363636363636  2.05357142857143 3.27272727272728  1.60714285714286 3.27272727272728  C 1.16071428571429 3.27272727272728  0.78125 3.11363636363636  0.46875 2.79545454545455  C 0.15625 2.47727272727272  0 2.09090909090909  0 1.63636363636363  C 0 1.18181818181819  0.15625 0.795454545454547  0.46875 0.47727272727272  C 0.78125 0.159090909090907  1.16071428571429 0  1.60714285714286 0  C 2.05357142857143 0  2.43303571428572 0.159090909090907  2.74553571428571 0.47727272727272  Z M 14.9204799107143 4.99005681818181  C 14.9734933035714 5.04403409090909  15 5.10795454545455  15 5.18181818181819  L 15 6.81818181818181  C 15 6.89204545454545  14.9734933035714 6.95596590909091  14.9204799107143 7.00994318181819  C 14.8674665178571 7.06392045454545  14.8046875 7.09090909090909  14.7321428571429 7  L 4.55357142857143 7  C 4.48102678571429 7.09090909090909  4.41824776785714 7.06392045454545  4.365234375 7.00994318181819  C 4.31222098214286 6.95596590909091  4.28571428571428 6.89204545454545  4.28571428571428 6.81818181818181  L 4.28571428571428 5.18181818181819  C 4.28571428571428 5.10795454545455  4.31222098214286 5.04403409090909  4.365234375 4.99005681818181  C 4.41824776785714 4.93607954545455  4.48102678571429 4.90909090909091  4.55357142857143 5  L 14.7321428571429 5  C 14.8046875 4.90909090909091  14.8674665178571 4.93607954545455  14.9204799107143 4.99005681818181  Z M 14.9204799107143 0.626420454545453  C 14.9734933035714 0.680397727272734  15 0.744318181818173  15 0.818181818181813  L 15 2.45454545454545  C 15 2.52840909090909  14.9734933035714 2.59232954545455  14.9204799107143 2.64630681818181  C 14.8674665178571 2.70028409090909  14.8046875 2.72727272727272  14.7321428571429 2.72727272727272  L 4.55357142857143 2.72727272727272  C 4.48102678571429 2.72727272727272  4.41824776785714 2.70028409090909  4.365234375 2.64630681818181  C 4.31222098214286 2.59232954545455  4.28571428571428 2.52840909090909  4.28571428571428 2.45454545454545  L 4.28571428571428 0.818181818181813  C 4.28571428571428 0.744318181818173  4.31222098214286 0.680397727272734  4.365234375 0.626420454545453  C 4.41824776785714 0.572443181818187  4.48102678571429 0.545454545454547  4.55357142857143 0.545454545454547  L 14.7321428571429 0.545454545454547  C 14.8046875 0.545454545454547  14.8674665178571 0.572443181818187  14.9204799107143 0.626420454545453  Z " fill-rule="nonzero" fill="#108de9" stroke="none" transform="matrix(1 0 0 1 94 491 )" />
  </g>
</svg>