<?xml version="1.0" encoding="utf-8"?>
<svg version="1.1" xmlns:xlink="http://www.w3.org/1999/xlink" width="12px" height="18px" xmlns="http://www.w3.org/2000/svg">
  <g transform="matrix(1 0 0 1 -439 -888 )">
    <path d="M 1.13344887348353 0.190848214285893  L 11.7816291161179 10.4765625  C 11.9965337954939 10.6774553571428  12.0450606585788 10.9084821428572  11.9272097053727 11.1696428571428  C 11.8093587521664 11.4375000000001  11.6048526863085 11.5714285714287  11.313691507799 11.5714285714287  L 7.34142114384747 11.5714285714287  L 9.43154246100522 16.3526785714287  C 9.50086655112653 16.5200892857142  9.50086655112653 16.6841517857141  9.43154246100522 16.8448660714287  C 9.36221837088391 17.0055803571428  9.24436741767767 17.1227678571429  9.07798960138649 17.1964285714287  L 7.2374350086655 17.9497767857141  C 7.06412478336222 18.0167410714287  6.89428076256496 18.0167410714287  6.72790294627384 17.9497767857141  C 6.56152512998267 17.8828124999999  6.4402079722704 17.7689732142859  6.36395147313692 17.6082589285713  L 4.37781629116114 13.0680803571428  L 1.13344887348353 16.2020089285713  C 1.00173310225301 16.3292410714287  0.845753899480087 16.3928571428572  0.665511265164639 16.3928571428572  C 0.582322357019052 16.3928571428572  0.499133448873522 16.3761160714286  0.415944540727935 16.3426339285713  C 0.138648180242626 16.228794642857  0 16.03125  0 15.75  L 0 0.642857142857224  C 0 0.361607142857224  0.138648180242626 0.164062499999886  0.415944540727935 0.0502232142858929  C 0.499133448873522 0.0167410714286689  0.582322357019052 0  0.665511265164639 0  C 0.852686308492196 0  1.00866551126518 0.0636160714285552  1.13344887348353 0.190848214285893  Z " fill-rule="nonzero" fill="#000000" stroke="none" transform="matrix(1 0 0 1 439 888 )" />
  </g>
</svg>