<?xml version="1.0" encoding="utf-8"?>
<svg version="1.1" xmlns:xlink="http://www.w3.org/1999/xlink" width="28px" height="28px" xmlns="http://www.w3.org/2000/svg">
  <g transform="matrix(1 0 0 1 -605 -7728 )">
    <path d="M 619 7729  C 626.28 7729  632 7734.72  632 7742  C 632 7749.28  626.28 7755  619 7755  C 611.72 7755  606 7749.28  606 7742  C 606 7734.72  611.72 7729  619 7729  Z " fill-rule="nonzero" fill="#108ee9" stroke="none" />
    <path d="M 619 7729  C 626.28 7729  632 7734.72  632 7742  C 632 7749.28  626.28 7755  619 7755  C 611.72 7755  606 7749.28  606 7742  C 606 7734.72  611.72 7729  619 7729  Z " stroke-width="2" stroke="#108ee9" fill="none" />
  </g>
</svg>