<?xml version="1.0" encoding="utf-8"?>
<svg version="1.1" xmlns:xlink="http://www.w3.org/1999/xlink" width="28px" height="28px" xmlns="http://www.w3.org/2000/svg">
  <g transform="matrix(1 0 0 1 -605 -8556 )">
    <path d="M 619 8557  C 626.28 8557  632 8562.72  632 8570  C 632 8577.28  626.28 8583  619 8583  C 611.72 8583  606 8577.28  606 8570  C 606 8562.72  611.72 8557  619 8557  Z " fill-rule="nonzero" fill="#ffffff" stroke="none" />
    <path d="M 619 8557  C 626.28 8557  632 8562.72  632 8570  C 632 8577.28  626.28 8583  619 8583  C 611.72 8583  606 8577.28  606 8570  C 606 8562.72  611.72 8557  619 8557  Z " stroke-width="2" stroke="#108ee9" fill="none" />
  </g>
</svg>