<?xml version="1.0" encoding="utf-8"?>
<svg version="1.1" xmlns:xlink="http://www.w3.org/1999/xlink" width="13px" height="16px" xmlns="http://www.w3.org/2000/svg">
  <defs>
    <mask fill="white" id="clip33">
      <path d="M 0.928571428571331 3.55555555555543  L 0.928571428571331 14.2222222222224  C 0.928571428571331 15.2044444444443  1.75964285714292 16  2.78571428571433 16  L 10.2142857142857 16  C 11.2403571428571 16  12.0714285714287 15.2044444444443  12.0714285714287 14.2222222222224  L 12.0714285714287 3.55555555555543  L 0.928571428571331 3.55555555555543  Z M 13 2.66666666666652  L 13 0.888888888888914  L 9.75 0.888888888888914  L 8.82142857142867 0  L 4.17857142857133 0  L 3.25 0.888888888888914  L 0 0.888888888888914  L 0 2.66666666666652  L 13 2.66666666666652  Z " fill-rule="evenodd" />
    </mask>
  </defs>
  <g transform="matrix(1 0 0 1 -855 -4395 )">
    <path d="M 0.928571428571331 3.55555555555543  L 0.928571428571331 14.2222222222224  C 0.928571428571331 15.2044444444443  1.75964285714292 16  2.78571428571433 16  L 10.2142857142857 16  C 11.2403571428571 16  12.0714285714287 15.2044444444443  12.0714285714287 14.2222222222224  L 12.0714285714287 3.55555555555543  L 0.928571428571331 3.55555555555543  Z M 13 2.66666666666652  L 13 0.888888888888914  L 9.75 0.888888888888914  L 8.82142857142867 0  L 4.17857142857133 0  L 3.25 0.888888888888914  L 0 0.888888888888914  L 0 2.66666666666652  L 13 2.66666666666652  Z " fill-rule="nonzero" fill="#ffffff" stroke="none" fill-opacity="0" transform="matrix(1 0 0 1 855 4395 )" />
    <path d="M 0.928571428571331 3.55555555555543  L 0.928571428571331 14.2222222222224  C 0.928571428571331 15.2044444444443  1.75964285714292 16  2.78571428571433 16  L 10.2142857142857 16  C 11.2403571428571 16  12.0714285714287 15.2044444444443  12.0714285714287 14.2222222222224  L 12.0714285714287 3.55555555555543  L 0.928571428571331 3.55555555555543  Z " stroke-width="4" stroke="#999999" fill="none" transform="matrix(1 0 0 1 855 4395 )" mask="url(#clip33)" />
    <path d="M 13 2.66666666666652  L 13 0.888888888888914  L 9.75 0.888888888888914  L 8.82142857142867 0  L 4.17857142857133 0  L 3.25 0.888888888888914  L 0 0.888888888888914  L 0 2.66666666666652  L 13 2.66666666666652  Z " stroke-width="4" stroke="#999999" fill="none" transform="matrix(1 0 0 1 855 4395 )" mask="url(#clip33)" />
  </g>
</svg>