<?xml version="1.0" encoding="utf-8"?>
<svg version="1.1" xmlns:xlink="http://www.w3.org/1999/xlink" width="10px" height="10px" xmlns="http://www.w3.org/2000/svg">
  <g transform="matrix(1 0 0 1 -870 -964 )">
    <path d="M 875 965.707106781187  C 874 964.5  873 964.5  872.5 964.5  C 871.7 964.5  870.5 965.327586206897  870.5 966.9  C 870.5 970.647557197011  875 973.389672219213  875 973.389672219213  C 875 973.389672219213  879.5 970.647557197011  879.5 966.9  C 879.5 965.327586206897  878.3 964.5  877.5 964.5  C 877 964.5  876 964.5  875 965.707106781187  Z " fill-rule="nonzero" fill="#999999" stroke="none" />
    <path d="M 875 965  C 874 964  873 964  872.5 964  C 871.5 964  870 965  870 966.9  C 870 971  875 974  875 974  C 875 974  880 971  880 966.9  C 880 965  878.5 964  877.5 964  C 877 964  876 964  875 965  Z M 875 966.414213562373  C 876 965  877 965  877.5 965  C 878.1 965  879 965.655172413793  879 966.9  C 879 970.295114394021  875 972.779344438427  875 972.779344438427  C 875 972.779344438427  871 970.295114394021  871 966.9  C 871 965.655172413793  871.9 965  872.5 965  C 873 965  874 965  875 966.414213562373  Z " fill-rule="nonzero" fill="#999999" stroke="none" />
  </g>
</svg>