<?xml version="1.0" encoding="utf-8"?>
<svg version="1.1" xmlns:xlink="http://www.w3.org/1999/xlink" width="8px" height="4px" xmlns="http://www.w3.org/2000/svg">
  <g transform="matrix(1 0 0 1 -665 -6468 )">
    <path d="M 7.91983967935874 0.412371134020759  C 7.97327989311958 0.458190148911854  8 0.510882016036703  8 0.570446735395308  C 8 0.630011454753458  7.97327989311958 0.682703321878762  7.91983967935874 0.728522336769856  L 4.18436873747493 3.93127147766336  C 4.13092852371409 3.97709049255445  4.06947227788913 4  4 4  C 3.93052772211087 4  3.86907147628591 3.97709049255445  3.81563126252507 3.93127147766336  L 0.0801603206412551 0.728522336769856  C 0.0267201068804184 0.682703321878762  0 0.630011454753458  0 0.570446735395308  C 0 0.510882016036703  0.0267201068804184 0.458190148911854  0.0801603206412551 0.412371134020759  L 0.480961923847701 0.0687285223366416  C 0.534402137608538 0.0229095074455472  0.595858383433551 0  0.665330661322628 0  C 0.734802939211761 0  0.796259185036718 0.0229095074455472  0.849699398797611 0.0687285223366416  L 4 2.76975945017193  L 7.15030060120239 0.0687285223366416  C 7.20374081496328 0.0229095074455472  7.26519706078824 0  7.33466933867737 0  C 7.40414161656645 0  7.46559786239146 0.0229095074455472  7.5190380761523 0.0687285223366416  L 7.91983967935874 0.412371134020759  Z " fill-rule="nonzero" fill="#999999" stroke="none" transform="matrix(1 0 0 1 665 6468 )" />
  </g>
</svg>