<?xml version="1.0" encoding="utf-8"?>
<svg version="1.1" xmlns:xlink="http://www.w3.org/1999/xlink" width="13px" height="11px" xmlns="http://www.w3.org/2000/svg">
  <defs>
    <mask fill="white" id="clip34">
      <path d="M 4.703125 9.296875  C 4.90104166666663 9.49479166666666  5 9.72916666666666  5 10  C 5 10.2708333333333  4.90104166666663 10.5052083333333  4.703125 10.703125  C 4.50520833333337 10.9010416666667  4.27083333333337 11  4 11  C 3.72916666666663 11  3.49479166666663 10.9010416666667  3.296875 10.703125  C 3.09895833333337 10.5052083333333  3 10.2708333333333  3 10  C 3 9.72916666666666  3.09895833333337 9.49479166666666  3.296875 9.296875  C 3.49479166666663 9.09895833333334  3.72916666666663 9  4 9  C 4.27083333333337 9  4.50520833333337 9.09895833333334  4.703125 9.296875  Z M 11.703125 9.296875  C 11.9010416666666 9.49479166666666  12 9.72916666666666  12 10  C 12 10.2708333333333  11.9010416666666 10.5052083333333  11.703125 10.703125  C 11.5052083333334 10.9010416666667  11.2708333333334 11  11 11  C 10.7291666666666 11  10.4947916666666 10.9010416666667  10.296875 10.703125  C 10.0989583333334 10.5052083333333  10 10.2708333333333  10 10  C 10 9.72916666666666  10.0989583333334 9.49479166666666  10.296875 9.296875  C 10.4947916666666 9.09895833333334  10.7291666666666 9  11 9  C 11.2708333333334 9  11.5052083333334 9.09895833333334  11.703125 9.296875  Z M 12.8515625 1.1484375  C 12.9505208333334 1.24739583333334  13 1.36458333333334  13 1.5  L 13 5.5  C 13 5.625  12.95703125 5.73567708333334  12.87109375 5.83203125  C 12.78515625 5.92838541666666  12.6796875 5.984375  12.5546875 6  L 4.3984375 6.953125  C 4.46614583333337 7.265625  4.5 7.44791666666666  4.5 7.5  C 4.5 7.58333333333334  4.4375 7.75  4.3125 8  L 11.5 8  C 11.6354166666666 8  11.7526041666666 8.04947916666666  11.8515625 8.1484375  C 11.9505208333334 8.24739583333334  12 8.36458333333334  12 8.5  C 12 8.63541666666666  11.9505208333334 8.75260416666666  11.8515625 8.8515625  C 11.7526041666666 8.95052083333334  11.6354166666666 9  11.5 9  L 3.5 9  C 3.36458333333337 9  3.24739583333337 8.95052083333334  3.1484375 8.8515625  C 3.04947916666663 8.75260416666666  3 8.63541666666666  3 8.5  C 3 8.44270833333334  3.02083333333337 8.36067708333334  3.0625 8.25390625  C 3.10416666666663 8.14713541666666  3.14583333333337 8.05338541666666  3.1875 7.97265625  C 3.22916666666663 7.89192708333334  3.28515625 7.78776041666666  3.35546875 7.66015625  C 3.42578125 7.53255208333334  3.46614583333337 7.45572916666666  3.4765625 7.4296875  L 2.09375 1  L 0.5 1  C 0.364583333333371 1  0.247395833333371 0.950520833333343  0.1484375 0.8515625  C 0.0494791666666288 0.752604166666657  0 0.635416666666657  0 0.5  C 0 0.364583333333343  0.0494791666666288 0.247395833333343  0.1484375 0.1484375  C 0.247395833333371 0.0494791666666572  0.364583333333371 0  0.5 0  L 2.5 0  C 2.58333333333337 0  2.65755208333337 0.0169270833333428  2.72265625 0.05078125  C 2.78776041666663 0.0846354166666572  2.83854166666663 0.125  2.875 0.171875  C 2.91145833333337 0.21875  2.9453125 0.282552083333343  2.9765625 0.36328125  C 3.0078125 0.444010416666657  3.02864583333337 0.51171875  3.0390625 0.56640625  C 3.04947916666663 0.62109375  3.06380208333337 0.697916666666657  3.08203125 0.796875  C 3.10026041666663 0.895833333333343  3.11197916666663 0.963541666666657  3.1171875 1  L 12.5 1  C 12.6354166666666 1  12.7526041666666 1.04947916666666  12.8515625 1.1484375  Z " fill-rule="evenodd" />
    </mask>
  </defs>
  <g transform="matrix(1 0 0 1 -285 -2008 )">
    <path d="M 4.703125 9.296875  C 4.90104166666663 9.49479166666666  5 9.72916666666666  5 10  C 5 10.2708333333333  4.90104166666663 10.5052083333333  4.703125 10.703125  C 4.50520833333337 10.9010416666667  4.27083333333337 11  4 11  C 3.72916666666663 11  3.49479166666663 10.9010416666667  3.296875 10.703125  C 3.09895833333337 10.5052083333333  3 10.2708333333333  3 10  C 3 9.72916666666666  3.09895833333337 9.49479166666666  3.296875 9.296875  C 3.49479166666663 9.09895833333334  3.72916666666663 9  4 9  C 4.27083333333337 9  4.50520833333337 9.09895833333334  4.703125 9.296875  Z M 11.703125 9.296875  C 11.9010416666666 9.49479166666666  12 9.72916666666666  12 10  C 12 10.2708333333333  11.9010416666666 10.5052083333333  11.703125 10.703125  C 11.5052083333334 10.9010416666667  11.2708333333334 11  11 11  C 10.7291666666666 11  10.4947916666666 10.9010416666667  10.296875 10.703125  C 10.0989583333334 10.5052083333333  10 10.2708333333333  10 10  C 10 9.72916666666666  10.0989583333334 9.49479166666666  10.296875 9.296875  C 10.4947916666666 9.09895833333334  10.7291666666666 9  11 9  C 11.2708333333334 9  11.5052083333334 9.09895833333334  11.703125 9.296875  Z M 12.8515625 1.1484375  C 12.9505208333334 1.24739583333334  13 1.36458333333334  13 1.5  L 13 5.5  C 13 5.625  12.95703125 5.73567708333334  12.87109375 5.83203125  C 12.78515625 5.92838541666666  12.6796875 5.984375  12.5546875 6  L 4.3984375 6.953125  C 4.46614583333337 7.265625  4.5 7.44791666666666  4.5 7.5  C 4.5 7.58333333333334  4.4375 7.75  4.3125 8  L 11.5 8  C 11.6354166666666 8  11.7526041666666 8.04947916666666  11.8515625 8.1484375  C 11.9505208333334 8.24739583333334  12 8.36458333333334  12 8.5  C 12 8.63541666666666  11.9505208333334 8.75260416666666  11.8515625 8.8515625  C 11.7526041666666 8.95052083333334  11.6354166666666 9  11.5 9  L 3.5 9  C 3.36458333333337 9  3.24739583333337 8.95052083333334  3.1484375 8.8515625  C 3.04947916666663 8.75260416666666  3 8.63541666666666  3 8.5  C 3 8.44270833333334  3.02083333333337 8.36067708333334  3.0625 8.25390625  C 3.10416666666663 8.14713541666666  3.14583333333337 8.05338541666666  3.1875 7.97265625  C 3.22916666666663 7.89192708333334  3.28515625 7.78776041666666  3.35546875 7.66015625  C 3.42578125 7.53255208333334  3.46614583333337 7.45572916666666  3.4765625 7.4296875  L 2.09375 1  L 0.5 1  C 0.364583333333371 1  0.247395833333371 0.950520833333343  0.1484375 0.8515625  C 0.0494791666666288 0.752604166666657  0 0.635416666666657  0 0.5  C 0 0.364583333333343  0.0494791666666288 0.247395833333343  0.1484375 0.1484375  C 0.247395833333371 0.0494791666666572  0.364583333333371 0  0.5 0  L 2.5 0  C 2.58333333333337 0  2.65755208333337 0.0169270833333428  2.72265625 0.05078125  C 2.78776041666663 0.0846354166666572  2.83854166666663 0.125  2.875 0.171875  C 2.91145833333337 0.21875  2.9453125 0.282552083333343  2.9765625 0.36328125  C 3.0078125 0.444010416666657  3.02864583333337 0.51171875  3.0390625 0.56640625  C 3.04947916666663 0.62109375  3.06380208333337 0.697916666666657  3.08203125 0.796875  C 3.10026041666663 0.895833333333343  3.11197916666663 0.963541666666657  3.1171875 1  L 12.5 1  C 12.6354166666666 1  12.7526041666666 1.04947916666666  12.8515625 1.1484375  Z " fill-rule="nonzero" fill="#ffffff" stroke="none" fill-opacity="0" transform="matrix(1 0 0 1 285 2008 )" />
    <path d="M 4.703125 9.296875  C 4.90104166666663 9.49479166666666  5 9.72916666666666  5 10  C 5 10.2708333333333  4.90104166666663 10.5052083333333  4.703125 10.703125  C 4.50520833333337 10.9010416666667  4.27083333333337 11  4 11  C 3.72916666666663 11  3.49479166666663 10.9010416666667  3.296875 10.703125  C 3.09895833333337 10.5052083333333  3 10.2708333333333  3 10  C 3 9.72916666666666  3.09895833333337 9.49479166666666  3.296875 9.296875  C 3.49479166666663 9.09895833333334  3.72916666666663 9  4 9  C 4.27083333333337 9  4.50520833333337 9.09895833333334  4.703125 9.296875  Z " stroke-width="4" stroke="#666666" fill="none" transform="matrix(1 0 0 1 285 2008 )" mask="url(#clip34)" />
    <path d="M 11.703125 9.296875  C 11.9010416666666 9.49479166666666  12 9.72916666666666  12 10  C 12 10.2708333333333  11.9010416666666 10.5052083333333  11.703125 10.703125  C 11.5052083333334 10.9010416666667  11.2708333333334 11  11 11  C 10.7291666666666 11  10.4947916666666 10.9010416666667  10.296875 10.703125  C 10.0989583333334 10.5052083333333  10 10.2708333333333  10 10  C 10 9.72916666666666  10.0989583333334 9.49479166666666  10.296875 9.296875  C 10.4947916666666 9.09895833333334  10.7291666666666 9  11 9  C 11.2708333333334 9  11.5052083333334 9.09895833333334  11.703125 9.296875  Z " stroke-width="4" stroke="#666666" fill="none" transform="matrix(1 0 0 1 285 2008 )" mask="url(#clip34)" />
    <path d="M 12.8515625 1.1484375  C 12.9505208333334 1.24739583333334  13 1.36458333333334  13 1.5  L 13 5.5  C 13 5.625  12.95703125 5.73567708333334  12.87109375 5.83203125  C 12.78515625 5.92838541666666  12.6796875 5.984375  12.5546875 6  L 4.3984375 6.953125  C 4.46614583333337 7.265625  4.5 7.44791666666666  4.5 7.5  C 4.5 7.58333333333334  4.4375 7.75  4.3125 8  L 11.5 8  C 11.6354166666666 8  11.7526041666666 8.04947916666666  11.8515625 8.1484375  C 11.9505208333334 8.24739583333334  12 8.36458333333334  12 8.5  C 12 8.63541666666666  11.9505208333334 8.75260416666666  11.8515625 8.8515625  C 11.7526041666666 8.95052083333334  11.6354166666666 9  11.5 9  L 3.5 9  C 3.36458333333337 9  3.24739583333337 8.95052083333334  3.1484375 8.8515625  C 3.04947916666663 8.75260416666666  3 8.63541666666666  3 8.5  C 3 8.44270833333334  3.02083333333337 8.36067708333334  3.0625 8.25390625  C 3.10416666666663 8.14713541666666  3.14583333333337 8.05338541666666  3.1875 7.97265625  C 3.22916666666663 7.89192708333334  3.28515625 7.78776041666666  3.35546875 7.66015625  C 3.42578125 7.53255208333334  3.46614583333337 7.45572916666666  3.4765625 7.4296875  L 2.09375 1  L 0.5 1  C 0.364583333333371 1  0.247395833333371 0.950520833333343  0.1484375 0.8515625  C 0.0494791666666288 0.752604166666657  0 0.635416666666657  0 0.5  C 0 0.364583333333343  0.0494791666666288 0.247395833333343  0.1484375 0.1484375  C 0.247395833333371 0.0494791666666572  0.364583333333371 0  0.5 0  L 2.5 0  C 2.58333333333337 0  2.65755208333337 0.0169270833333428  2.72265625 0.05078125  C 2.78776041666663 0.0846354166666572  2.83854166666663 0.125  2.875 0.171875  C 2.91145833333337 0.21875  2.9453125 0.282552083333343  2.9765625 0.36328125  C 3.0078125 0.444010416666657  3.02864583333337 0.51171875  3.0390625 0.56640625  C 3.04947916666663 0.62109375  3.06380208333337 0.697916666666657  3.08203125 0.796875  C 3.10026041666663 0.895833333333343  3.11197916666663 0.963541666666657  3.1171875 1  L 12.5 1  C 12.6354166666666 1  12.7526041666666 1.04947916666666  12.8515625 1.1484375  Z " stroke-width="4" stroke="#666666" fill="none" transform="matrix(1 0 0 1 285 2008 )" mask="url(#clip34)" />
  </g>
</svg>