<?xml version="1.0" encoding="utf-8"?>
<svg version="1.1" xmlns:xlink="http://www.w3.org/1999/xlink" width="18px" height="15px" xmlns="http://www.w3.org/2000/svg">
  <defs>
    <mask fill="white" id="clip35">
      <path d="M 6.51201923076923 12.6775568181818  C 6.78605769230768 12.9474431818182  6.92307692307691 13.2670454545454  6.92307692307691 13.6363636363636  C 6.92307692307691 14.0056818181818  6.78605769230768 14.3252840909091  6.51201923076923 14.5951704545454  C 6.23798076923077 14.8650568181818  5.91346153846155 15  5.53846153846155 15  C 5.16346153846155 15  4.83894230769232 14.8650568181818  4.56490384615387 14.5951704545454  C 4.29086538461536 14.3252840909091  4.15384615384613 14.0056818181818  4.15384615384613 13.6363636363636  C 4.15384615384613 13.2670454545454  4.29086538461536 12.9474431818182  4.56490384615387 12.6775568181818  C 4.83894230769232 12.4076704545454  5.16346153846155 12.2727272727273  5.53846153846155 12.2727272727273  C 5.91346153846155 12.2727272727273  6.23798076923077 12.4076704545454  6.51201923076923 12.6775568181818  Z M 16.2043269230769 12.6775568181818  C 16.4783653846154 12.9474431818182  16.6153846153846 13.2670454545454  16.6153846153846 13.6363636363636  C 16.6153846153846 14.0056818181818  16.4783653846154 14.3252840909091  16.2043269230769 14.5951704545454  C 15.9302884615385 14.8650568181818  15.6057692307692 15  15.2307692307692 15  C 14.8557692307692 15  14.53125 14.8650568181818  14.2572115384615 14.5951704545454  C 13.9831730769231 14.3252840909091  13.8461538461539 14.0056818181818  13.8461538461539 13.6363636363636  C 13.8461538461539 13.2670454545454  13.9831730769231 12.9474431818182  14.2572115384615 12.6775568181818  C 14.53125 12.4076704545454  14.8557692307692 12.2727272727273  15.2307692307692 12.2727272727273  C 15.6057692307692 12.2727272727273  15.9302884615385 12.4076704545454  16.2043269230769 12.6775568181818  Z M 17.7944711538461 1.56605113636363  C 17.9314903846154 1.70099431818181  18 1.86079545454544  18 2.04545454545456  L 18 7.5  C 18 7.67045454545456  17.9405048076923 7.82137784090907  17.8215144230769 7.95276988636363  C 17.7025240384615 8.08416193181819  17.5564903846154 8.16051136363637  17.3834134615385 8.18181818181819  L 6.09014423076923 9.48153409090907  C 6.18389423076923 9.90767045454544  6.23076923076923 10.15625  6.23076923076923 10.2272727272727  C 6.23076923076923 10.3409090909091  6.14423076923077 10.5681818181818  5.97115384615387 10.9090909090909  L 15.9230769230769 10.9090909090909  C 16.1105769230769 10.9090909090909  16.2728365384615 10.9765625  16.4098557692308 11.1115056818182  C 16.546875 11.2464488636364  16.6153846153846 11.40625  16.6153846153846 11.5909090909091  C 16.6153846153846 11.7755681818182  16.546875 11.9353693181818  16.4098557692308 12.0703125  C 16.2728365384615 12.2052556818182  16.1105769230769 12.2727272727273  15.9230769230769 12  L 4.84615384615387 12  C 4.65865384615387 12.2727272727273  4.49639423076923 12.2052556818182  4.359375 12.0703125  C 4.22235576923077 11.9353693181818  4.15384615384613 11.7755681818182  4.15384615384613 11.5909090909091  C 4.15384615384613 11.5127840909091  4.18269230769232 11.4009232954546  4.24038461538464 11.2553267045454  C 4.29807692307691 11.1097301136364  4.35576923076923 10.9818892045454  4.41346153846155 10.8718039772727  C 4.47115384615387 10.76171875  4.54867788461536 10.6196732954546  4.64603365384613 10.4456676136364  C 4.74338942307691 10.2716619318182  4.79927884615387 10.1669034090909  4.81370192307691 10.1313920454546  L 2.89903846153845 1.36363636363637  L 0.692307692307679 1.36363636363637  C 0.504807692307679 1.36363636363637  0.342548076923094 1.29616477272725  0.205528846153868 1.16122159090907  C 0.0685096153846416 1.02627840909093  0 0.866477272727252  0 0.681818181818187  C 0 0.497159090909065  0.0685096153846416 0.337357954545439  0.205528846153868 0.202414772727252  C 0.342548076923094 0.0674715909090651  0.504807692307679 0  0.692307692307679 0  L 3.46153846153845 0  C 3.57692307692309 0  3.6796875 0.023082386363626  3.76983173076923 0.0692471590909349  C 3.85997596153845 0.115411931818187  3.93028846153845 0.170454545454561  3.98076923076923 0.234375  C 4.03125 0.298295454545439  4.078125 0.385298295454561  4.12139423076923 0.495383522727252  C 4.16466346153845 0.60546875  4.19350961538464 0.697798295454561  4.20793269230768 0.772372159090935  C 4.22235576923077 0.846946022727252  4.2421875 0.951704545454561  4.26742788461536 1.08664772727275  C 4.29266826923077 1.22159090909093  4.30889423076923 1.31392045454544  4.31610576923077 1.36363636363637  L 17.3076923076923 1.36363636363637  C 17.4951923076923 1.36363636363637  17.6574519230769 1.43110795454544  17.7944711538461 1.56605113636363  Z " fill-rule="evenodd" />
    </mask>
  </defs>
  <g transform="matrix(1 0 0 1 -277 -2457 )">
    <path d="M 6.51201923076923 12.6775568181818  C 6.78605769230768 12.9474431818182  6.92307692307691 13.2670454545454  6.92307692307691 13.6363636363636  C 6.92307692307691 14.0056818181818  6.78605769230768 14.3252840909091  6.51201923076923 14.5951704545454  C 6.23798076923077 14.8650568181818  5.91346153846155 15  5.53846153846155 15  C 5.16346153846155 15  4.83894230769232 14.8650568181818  4.56490384615387 14.5951704545454  C 4.29086538461536 14.3252840909091  4.15384615384613 14.0056818181818  4.15384615384613 13.6363636363636  C 4.15384615384613 13.2670454545454  4.29086538461536 12.9474431818182  4.56490384615387 12.6775568181818  C 4.83894230769232 12.4076704545454  5.16346153846155 12.2727272727273  5.53846153846155 12.2727272727273  C 5.91346153846155 12.2727272727273  6.23798076923077 12.4076704545454  6.51201923076923 12.6775568181818  Z M 16.2043269230769 12.6775568181818  C 16.4783653846154 12.9474431818182  16.6153846153846 13.2670454545454  16.6153846153846 13.6363636363636  C 16.6153846153846 14.0056818181818  16.4783653846154 14.3252840909091  16.2043269230769 14.5951704545454  C 15.9302884615385 14.8650568181818  15.6057692307692 15  15.2307692307692 15  C 14.8557692307692 15  14.53125 14.8650568181818  14.2572115384615 14.5951704545454  C 13.9831730769231 14.3252840909091  13.8461538461539 14.0056818181818  13.8461538461539 13.6363636363636  C 13.8461538461539 13.2670454545454  13.9831730769231 12.9474431818182  14.2572115384615 12.6775568181818  C 14.53125 12.4076704545454  14.8557692307692 12.2727272727273  15.2307692307692 12.2727272727273  C 15.6057692307692 12.2727272727273  15.9302884615385 12.4076704545454  16.2043269230769 12.6775568181818  Z M 17.7944711538461 1.56605113636363  C 17.9314903846154 1.70099431818181  18 1.86079545454544  18 2.04545454545456  L 18 7.5  C 18 7.67045454545456  17.9405048076923 7.82137784090907  17.8215144230769 7.95276988636363  C 17.7025240384615 8.08416193181819  17.5564903846154 8.16051136363637  17.3834134615385 8.18181818181819  L 6.09014423076923 9.48153409090907  C 6.18389423076923 9.90767045454544  6.23076923076923 10.15625  6.23076923076923 10.2272727272727  C 6.23076923076923 10.3409090909091  6.14423076923077 10.5681818181818  5.97115384615387 10.9090909090909  L 15.9230769230769 10.9090909090909  C 16.1105769230769 10.9090909090909  16.2728365384615 10.9765625  16.4098557692308 11.1115056818182  C 16.546875 11.2464488636364  16.6153846153846 11.40625  16.6153846153846 11.5909090909091  C 16.6153846153846 11.7755681818182  16.546875 11.9353693181818  16.4098557692308 12.0703125  C 16.2728365384615 12.2052556818182  16.1105769230769 12.2727272727273  15.9230769230769 12  L 4.84615384615387 12  C 4.65865384615387 12.2727272727273  4.49639423076923 12.2052556818182  4.359375 12.0703125  C 4.22235576923077 11.9353693181818  4.15384615384613 11.7755681818182  4.15384615384613 11.5909090909091  C 4.15384615384613 11.5127840909091  4.18269230769232 11.4009232954546  4.24038461538464 11.2553267045454  C 4.29807692307691 11.1097301136364  4.35576923076923 10.9818892045454  4.41346153846155 10.8718039772727  C 4.47115384615387 10.76171875  4.54867788461536 10.6196732954546  4.64603365384613 10.4456676136364  C 4.74338942307691 10.2716619318182  4.79927884615387 10.1669034090909  4.81370192307691 10.1313920454546  L 2.89903846153845 1.36363636363637  L 0.692307692307679 1.36363636363637  C 0.504807692307679 1.36363636363637  0.342548076923094 1.29616477272725  0.205528846153868 1.16122159090907  C 0.0685096153846416 1.02627840909093  0 0.866477272727252  0 0.681818181818187  C 0 0.497159090909065  0.0685096153846416 0.337357954545439  0.205528846153868 0.202414772727252  C 0.342548076923094 0.0674715909090651  0.504807692307679 0  0.692307692307679 0  L 3.46153846153845 0  C 3.57692307692309 0  3.6796875 0.023082386363626  3.76983173076923 0.0692471590909349  C 3.85997596153845 0.115411931818187  3.93028846153845 0.170454545454561  3.98076923076923 0.234375  C 4.03125 0.298295454545439  4.078125 0.385298295454561  4.12139423076923 0.495383522727252  C 4.16466346153845 0.60546875  4.19350961538464 0.697798295454561  4.20793269230768 0.772372159090935  C 4.22235576923077 0.846946022727252  4.2421875 0.951704545454561  4.26742788461536 1.08664772727275  C 4.29266826923077 1.22159090909093  4.30889423076923 1.31392045454544  4.31610576923077 1.36363636363637  L 17.3076923076923 1.36363636363637  C 17.4951923076923 1.36363636363637  17.6574519230769 1.43110795454544  17.7944711538461 1.56605113636363  Z " fill-rule="nonzero" fill="#ffffff" stroke="none" fill-opacity="0" transform="matrix(1 0 0 1 277 2457 )" />
    <path d="M 6.51201923076923 12.6775568181818  C 6.78605769230768 12.9474431818182  6.92307692307691 13.2670454545454  6.92307692307691 13.6363636363636  C 6.92307692307691 14.0056818181818  6.78605769230768 14.3252840909091  6.51201923076923 14.5951704545454  C 6.23798076923077 14.8650568181818  5.91346153846155 15  5.53846153846155 15  C 5.16346153846155 15  4.83894230769232 14.8650568181818  4.56490384615387 14.5951704545454  C 4.29086538461536 14.3252840909091  4.15384615384613 14.0056818181818  4.15384615384613 13.6363636363636  C 4.15384615384613 13.2670454545454  4.29086538461536 12.9474431818182  4.56490384615387 12.6775568181818  C 4.83894230769232 12.4076704545454  5.16346153846155 12.2727272727273  5.53846153846155 12.2727272727273  C 5.91346153846155 12.2727272727273  6.23798076923077 12.4076704545454  6.51201923076923 12.6775568181818  Z " stroke-width="4" stroke="#666666" fill="none" transform="matrix(1 0 0 1 277 2457 )" mask="url(#clip35)" />
    <path d="M 16.2043269230769 12.6775568181818  C 16.4783653846154 12.9474431818182  16.6153846153846 13.2670454545454  16.6153846153846 13.6363636363636  C 16.6153846153846 14.0056818181818  16.4783653846154 14.3252840909091  16.2043269230769 14.5951704545454  C 15.9302884615385 14.8650568181818  15.6057692307692 15  15.2307692307692 15  C 14.8557692307692 15  14.53125 14.8650568181818  14.2572115384615 14.5951704545454  C 13.9831730769231 14.3252840909091  13.8461538461539 14.0056818181818  13.8461538461539 13.6363636363636  C 13.8461538461539 13.2670454545454  13.9831730769231 12.9474431818182  14.2572115384615 12.6775568181818  C 14.53125 12.4076704545454  14.8557692307692 12.2727272727273  15.2307692307692 12.2727272727273  C 15.6057692307692 12.2727272727273  15.9302884615385 12.4076704545454  16.2043269230769 12.6775568181818  Z " stroke-width="4" stroke="#666666" fill="none" transform="matrix(1 0 0 1 277 2457 )" mask="url(#clip35)" />
    <path d="M 17.7944711538461 1.56605113636363  C 17.9314903846154 1.70099431818181  18 1.86079545454544  18 2.04545454545456  L 18 7.5  C 18 7.67045454545456  17.9405048076923 7.82137784090907  17.8215144230769 7.95276988636363  C 17.7025240384615 8.08416193181819  17.5564903846154 8.16051136363637  17.3834134615385 8.18181818181819  L 6.09014423076923 9.48153409090907  C 6.18389423076923 9.90767045454544  6.23076923076923 10.15625  6.23076923076923 10.2272727272727  C 6.23076923076923 10.3409090909091  6.14423076923077 10.5681818181818  5.97115384615387 10.9090909090909  L 15.9230769230769 10.9090909090909  C 16.1105769230769 10.9090909090909  16.2728365384615 10.9765625  16.4098557692308 11.1115056818182  C 16.546875 11.2464488636364  16.6153846153846 11.40625  16.6153846153846 11.5909090909091  C 16.6153846153846 11.7755681818182  16.546875 11.9353693181818  16.4098557692308 12.0703125  C 16.2728365384615 12.2052556818182  16.1105769230769 12.2727272727273  15.9230769230769 12  L 4.84615384615387 12  C 4.65865384615387 12.2727272727273  4.49639423076923 12.2052556818182  4.359375 12.0703125  C 4.22235576923077 11.9353693181818  4.15384615384613 11.7755681818182  4.15384615384613 11.5909090909091  C 4.15384615384613 11.5127840909091  4.18269230769232 11.4009232954546  4.24038461538464 11.2553267045454  C 4.29807692307691 11.1097301136364  4.35576923076923 10.9818892045454  4.41346153846155 10.8718039772727  C 4.47115384615387 10.76171875  4.54867788461536 10.6196732954546  4.64603365384613 10.4456676136364  C 4.74338942307691 10.2716619318182  4.79927884615387 10.1669034090909  4.81370192307691 10.1313920454546  L 2.89903846153845 1.36363636363637  L 0.692307692307679 1.36363636363637  C 0.504807692307679 1.36363636363637  0.342548076923094 1.29616477272725  0.205528846153868 1.16122159090907  C 0.0685096153846416 1.02627840909093  0 0.866477272727252  0 0.681818181818187  C 0 0.497159090909065  0.0685096153846416 0.337357954545439  0.205528846153868 0.202414772727252  C 0.342548076923094 0.0674715909090651  0.504807692307679 0  0.692307692307679 0  L 3.46153846153845 0  C 3.57692307692309 0  3.6796875 0.023082386363626  3.76983173076923 0.0692471590909349  C 3.85997596153845 0.115411931818187  3.93028846153845 0.170454545454561  3.98076923076923 0.234375  C 4.03125 0.298295454545439  4.078125 0.385298295454561  4.12139423076923 0.495383522727252  C 4.16466346153845 0.60546875  4.19350961538464 0.697798295454561  4.20793269230768 0.772372159090935  C 4.22235576923077 0.846946022727252  4.2421875 0.951704545454561  4.26742788461536 1.08664772727275  C 4.29266826923077 1.22159090909093  4.30889423076923 1.31392045454544  4.31610576923077 1.36363636363637  L 17.3076923076923 1.36363636363637  C 17.4951923076923 1.36363636363637  17.6574519230769 1.43110795454544  17.7944711538461 1.56605113636363  Z " stroke-width="4" stroke="#666666" fill="none" transform="matrix(1 0 0 1 277 2457 )" mask="url(#clip35)" />
  </g>
</svg>