<?xml version="1.0" encoding="utf-8"?>
<svg version="1.1" xmlns:xlink="http://www.w3.org/1999/xlink" width="10px" height="10px" xmlns="http://www.w3.org/2000/svg">
  <g transform="matrix(1 0 0 1 -308 -3422 )">
    <path d="M 313 3423.70710678119  C 312 3422.5  311 3422.5  310.5 3422.5  C 309.7 3422.5  308.5 3423.3275862069  308.5 3424.9  C 308.5 3428.64755719701  313 3431.38967221921  313 3431.38967221921  C 313 3431.38967221921  317.5 3428.64755719701  317.5 3424.9  C 317.5 3423.3275862069  316.3 3422.5  315.5 3422.5  C 315 3422.5  314 3422.5  313 3423.70710678119  Z " fill-rule="nonzero" fill="#ffffff" stroke="none" fill-opacity="0" />
    <path d="M 313 3423  C 312 3422  311 3422  310.5 3422  C 309.5 3422  308 3423  308 3424.9  C 308 3429  313 3432  313 3432  C 313 3432  318 3429  318 3424.9  C 318 3423  316.5 3422  315.5 3422  C 315 3422  314 3422  313 3423  Z M 313 3424.41421356237  C 314 3423  315 3423  315.5 3423  C 316.1 3423  317 3423.65517241379  317 3424.9  C 317 3428.29511439402  313 3430.77934443843  313 3430.77934443843  C 313 3430.77934443843  309 3428.29511439402  309 3424.9  C 309 3423.65517241379  309.9 3423  310.5 3423  C 311 3423  312 3423  313 3424.41421356237  Z " fill-rule="nonzero" fill="#999999" stroke="none" />
  </g>
</svg>