<?xml version="1.0" encoding="utf-8"?>
<svg version="1.1" xmlns:xlink="http://www.w3.org/1999/xlink" width="17px" height="26px" xmlns="http://www.w3.org/2000/svg">
  <g transform="matrix(1 0 0 1 -808 -1138 )">
    <path d="M 1.60571923743498 0.275669642857338  L 16.6906412478336 15.1328125  C 16.9950895436164 15.4229910714284  17.0638359329867 15.7566964285716  16.8968804159446 16.1339285714284  C 16.7299248989024 16.5208333333335  16.4402079722703 16.7142857142858  16.0277296360485 16.7142857142858  L 10.4003466204506 16.7142857142858  L 13.3613518197574 23.6205357142858  C 13.4595609474292 23.8623511904761  13.4595609474292 24.0993303571427  13.3613518197574 24.3314732142858  C 13.2631426920855 24.5636160714284  13.0961871750433 24.7328869047619  12.8604852686308 24.8392857142858  L 10.2530329289428 25.9274553571427  C 10.0075101097631 26.0241815476193  9.76689774696706 26.0241815476193  9.53119584055457 25.9274553571427  C 9.29549393414209 25.8307291666665  9.12362796071636 25.6662946428573  9.01559792027729 25.4341517857142  L 6.20190641247831 18.8761160714284  L 1.60571923743498 23.4029017857142  C 1.41912189485845 23.5866815476193  1.19815135759677 23.6785714285716  0.942807625649891 23.6785714285716  C 0.824956672443648 23.6785714285716  0.707105719237461 23.6543898809523  0.589254766031218 23.6060267857142  C 0.196418255343758 23.4415922619046  0 23.15625  0 22.75  L 0 0.928571428571558  C 0 0.522321428571559  0.196418255343758 0.236979166666515  0.589254766031218 0.0725446428573377  C 0.707105719237461 0.0241815476192642  0.824956672443648 0  0.942807625649891 0  C 1.20797227036394 0  1.42894280762567 0.0918898809522943  1.60571923743498 0.275669642857338  Z " fill-rule="nonzero" fill="#000000" stroke="none" transform="matrix(1 0 0 1 808 1138 )" />
  </g>
</svg>