<?xml version="1.0" encoding="utf-8"?>
<svg version="1.1" xmlns:xlink="http://www.w3.org/1999/xlink" width="15px" height="15px" xmlns="http://www.w3.org/2000/svg">
  <g transform="matrix(1 0 0 1 -825 -1149 )">
    <path d="M 12.392578125 9.5635950681376  C 12.6725260416667 8.90493186242702  12.8125 8.2154445165479  12.8125 7.4951330304998  C 12.8125 6.45035691109661  12.529296875 5.49318624269972  11.962890625 4.62362102530824  L 4.599609375 11.9532770927967  C 5.49153645833331 12.5308241401685  6.45833333333331 12.8195976638544  7.5 12.8195976638544  C 8.22265625 12.8195976638544  8.9111328125 12.678455548345  9.5654296875 12.3961713173262  C 10.2197265625 12.1138870863074  10.7845052083333 11.7358857884492  11.259765625 11.2621674237507  C 11.7350260416667 10.7884490590527  12.1126302083333 10.2222582738482  12.392578125 9.5635950681376  Z M 2.1875 7.4951330304998  C 2.1875 8.54639844256963  2.47721354166669 9.51654769630113  3.056640625 10.4055807916939  L 10.4296875 3.06619078520453  C 9.55078125 2.47566515249855  8.57421875 2.18040233614556  7.5 2.18040233614556  C 6.53645833333331 2.18040233614556  5.64778645833331 2.41726151849434  4.833984375 2.89097988319281  C 4.02018229166669 3.36469824789083  3.37565104166669 4.01038286826724  2.900390625 4.82803374432206  C 2.42513020833331 5.64568462037641  2.1875 6.53471771576915  2.1875 7.4951330304998  Z M 14.404296875 4.57981829980554  C 14.8014322916667 5.504542504867  15 6.47631408176494  15 7.4951330304998  C 15 8.51395197923421  14.8014322916667 9.48734587929903  14.404296875 10.4153147306943  C 14.0071614583333 11.3432835820895  13.4749348958333 12.1414665801426  12.8076171875 12.809863724854  C 12.1402994791667 13.478260869565  11.3427734375 14.0103828682672  10.4150390625 14.4062297209603  C 9.4873046875 14.8020765736533  8.515625 15  7.5 15  C 6.484375 15  5.5126953125 14.8020765736533  4.5849609375 14.4062297209603  C 3.6572265625 14.0103828682672  2.85970052083331 13.478260869565  2.1923828125 12.809863724854  C 1.52506510416669 12.1414665801426  0.992838541666686 11.3432835820895  0.595703125 10.4153147306943  C 0.198567708333314 9.48734587929903  0 8.51395197923421  0 7.4951330304998  C 0 6.47631408176494  0.198567708333314 5.504542504867  0.595703125 4.57981829980554  C 0.992838541666686 3.65509409474362  1.52506510416669 2.85853341985739  2.1923828125 2.19013627514596  C 2.85970052083331 1.52173913043498  3.6572265625 0.989617131732757  4.5849609375 0.593770279039745  C 5.5126953125 0.197923426346733  6.484375 0  7.5 0  C 8.515625 0  9.4873046875 0.197923426346733  10.4150390625 0.593770279039745  C 11.3427734375 0.989617131732757  12.1402994791667 1.52173913043498  12.8076171875 2.19013627514596  C 13.4749348958333 2.85853341985739  14.0071614583333 3.65509409474362  14.404296875 4.57981829980554  Z " fill-rule="nonzero" fill="#ff0000" stroke="none" transform="matrix(1 0 0 1 825 1149 )" />
  </g>
</svg>