<?xml version="1.0" encoding="utf-8"?>
<svg version="1.1" xmlns:xlink="http://www.w3.org/1999/xlink" width="183px" height="72px" xmlns="http://www.w3.org/2000/svg">
  <g transform="matrix(1 0 0 1 -58 -529 )">
    <path d="M 59 534  A 4 4 0 0 1 63 530 L 236 530  A 4 4 0 0 1 240 534 L 240 596  A 4 4 0 0 1 236 600 L 63 600  A 4 4 0 0 1 59 596 L 59 534  Z " fill-rule="nonzero" fill="#ffffff" stroke="none" />
    <path d="M 58.5 534  A 4.5 4.5 0 0 1 63 529.5 L 236 529.5  A 4.5 4.5 0 0 1 240.5 534 L 240.5 596  A 4.5 4.5 0 0 1 236 600.5 L 63 600.5  A 4.5 4.5 0 0 1 58.5 596 L 58.5 534  Z " stroke-width="1" stroke-dasharray="9,4" stroke="#ebebeb" fill="none" stroke-dashoffset="0.5" />
  </g>
</svg>