<?xml version="1.0" encoding="utf-8"?>
<svg version="1.1" xmlns:xlink="http://www.w3.org/1999/xlink" width="18px" height="18px" xmlns="http://www.w3.org/2000/svg">
  <g transform="matrix(1 0 0 1 -430 -1165 )">
    <path d="M 439 1166  C 443.48 1166  447 1169.52  447 1174  C 447 1178.48  443.48 1182  439 1182  C 434.52 1182  431 1178.48  431 1174  C 431 1169.52  434.52 1166  439 1166  Z " fill-rule="nonzero" fill="#ffffff" stroke="none" />
    <path d="M 439 1166  C 443.48 1166  447 1169.52  447 1174  C 447 1178.48  443.48 1182  439 1182  C 434.52 1182  431 1178.48  431 1174  C 431 1169.52  434.52 1166  439 1166  Z " stroke-width="2" stroke="#cccccc" fill="none" />
  </g>
</svg>