<?xml version="1.0" encoding="utf-8"?>
<svg version="1.1" xmlns:xlink="http://www.w3.org/1999/xlink" width="18px" height="18px" xmlns="http://www.w3.org/2000/svg">
  <g transform="matrix(1 0 0 1 -108 -1165 )">
    <path d="M 117 1166  C 121.48 1166  125 1169.52  125 1174  C 125 1178.48  121.48 1182  117 1182  C 112.52 1182  109 1178.48  109 1174  C 109 1169.52  112.52 1166  117 1166  Z " fill-rule="nonzero" fill="#ffffff" stroke="none" />
    <path d="M 117 1166  C 121.48 1166  125 1169.52  125 1174  C 125 1178.48  121.48 1182  117 1182  C 112.52 1182  109 1178.48  109 1174  C 109 1169.52  112.52 1166  117 1166  Z " stroke-width="2" stroke="#108ee9" fill="none" />
  </g>
</svg>