<?xml version="1.0" encoding="utf-8"?>
<svg version="1.1" xmlns:xlink="http://www.w3.org/1999/xlink" width="18px" height="18px" xmlns="http://www.w3.org/2000/svg">
  <g transform="matrix(1 0 0 1 -245 -5181 )">
    <path d="M 254 5182  C 258.48 5182  262 5185.52  262 5190  C 262 5194.48  258.48 5198  254 5198  C 249.52 5198  246 5194.48  246 5190  C 246 5185.52  249.52 5182  254 5182  Z " fill-rule="nonzero" fill="#ffffff" stroke="none" />
    <path d="M 254 5182  C 258.48 5182  262 5185.52  262 5190  C 262 5194.48  258.48 5198  254 5198  C 249.52 5198  246 5194.48  246 5190  C 246 5185.52  249.52 5182  254 5182  Z " stroke-width="2" stroke="#108de9" fill="none" />
  </g>
</svg>