<?xml version="1.0" encoding="utf-8"?>
<svg version="1.1" xmlns:xlink="http://www.w3.org/1999/xlink" width="8px" height="8px" xmlns="http://www.w3.org/2000/svg">
  <g transform="matrix(1 0 0 1 -212 -6552 )">
    <path d="M 216 6553  C 217.68 6553  219 6554.32  219 6556  C 219 6557.68  217.68 6559  216 6559  C 214.32 6559  213 6557.68  213 6556  C 213 6554.32  214.32 6553  216 6553  Z " fill-rule="nonzero" fill="#108ee9" stroke="none" />
    <path d="M 216 6553  C 217.68 6553  219 6554.32  219 6556  C 219 6557.68  217.68 6559  216 6559  C 214.32 6559  213 6557.68  213 6556  C 213 6554.32  214.32 6553  216 6553  Z " stroke-width="2" stroke="#108ee9" fill="none" />
  </g>
</svg>