<?xml version="1.0" encoding="utf-8"?>
<svg version="1.1" xmlns:xlink="http://www.w3.org/1999/xlink" width="18px" height="18px" xmlns="http://www.w3.org/2000/svg">
  <g transform="matrix(1 0 0 1 -93 -3715 )">
    <path d="M 102 3716  C 106.48 3716  110 3719.52  110 3724  C 110 3728.48  106.48 3732  102 3732  C 97.52 3732  94 3728.48  94 3724  C 94 3719.52  97.52 3716  102 3716  Z " fill-rule="nonzero" fill="#f2f2f2" stroke="none" />
    <path d="M 102 3716  C 106.48 3716  110 3719.52  110 3724  C 110 3728.48  106.48 3732  102 3732  C 97.52 3732  94 3728.48  94 3724  C 94 3719.52  97.52 3716  102 3716  Z " stroke-width="2" stroke="#cccccc" fill="none" />
  </g>
</svg>