<?xml version="1.0" encoding="utf-8"?>
<svg version="1.1" xmlns:xlink="http://www.w3.org/1999/xlink" width="7px" height="6px" xmlns="http://www.w3.org/2000/svg">
  <defs>
    <mask fill="white" id="clip72">
      <path d="M 6.44972222222225 0.0377777777775918  L 2.33333333333331 4.74222222222215  L 0.711666666666645 2.88888888888869  L 0.161388888888894 3.51777777777806  L 2.33333333333331 6  L 7 0.66666666666697  L 6.44972222222225 0.0377777777775918  Z " fill-rule="evenodd" />
    </mask>
  </defs>
  <g transform="matrix(1 0 0 1 -141 -10307 )">
    <path d="M 6.44972222222225 0.0377777777775918  L 2.33333333333331 4.74222222222215  L 0.711666666666645 2.88888888888869  L 0.161388888888894 3.51777777777806  L 2.33333333333331 6  L 7 0.66666666666697  L 6.44972222222225 0.0377777777775918  Z " fill-rule="nonzero" fill="#ffffff" stroke="none" transform="matrix(1 0 0 1 141 10307 )" />
    <path d="M 6.44972222222225 0.0377777777775918  L 2.33333333333331 4.74222222222215  L 0.711666666666645 2.88888888888869  L 0.161388888888894 3.51777777777806  L 2.33333333333331 6  L 7 0.66666666666697  L 6.44972222222225 0.0377777777775918  Z " stroke-width="2" stroke="#ffffff" fill="none" transform="matrix(1 0 0 1 141 10307 )" mask="url(#clip72)" />
  </g>
</svg>