<?xml version="1.0" encoding="utf-8"?>
<svg version="1.1" xmlns:xlink="http://www.w3.org/1999/xlink" width="12px" height="12px" xmlns="http://www.w3.org/2000/svg">
  <g transform="matrix(1 0 0 1 -521 -7962 )">
    <path d="M 3.06129807692304 9.05208333333258  C 3.24158653846152 9.22569444444389  3.3317307692308 9.43518518518476  3.3317307692308 9.6805555555552  C 3.3317307692308 9.92592592592564  3.24158653846152 10.1354166666665  3.06129807692304 10.3090277777778  C 2.88100961538456 10.4826388888891  2.66346153846149 10.5694444444448  2.40865384615384 10.5694444444448  C 2.15865384615381 10.5694444444448  1.94230769230774 10.4814814814813  1.75961538461544 10.3055555555557  C 1.57692307692315 10.1296296296287  1.48557692307696 9.92129629629699  1.48557692307696 9.6805555555552  C 1.48557692307696 9.43518518518476  1.57572115384616 9.22569444444389  1.75600961538456 9.05208333333258  C 1.93629807692304 8.87847222222263  2.15384615384619 8.79166666666697  2.40865384615384 8.79166666666697  C 2.66346153846149 8.79166666666697  2.88100961538456 8.87847222222263  3.06129807692304 9.05208333333258  Z M 6.6526442307692 10.4826388888891  C 6.83293269230768 10.6562499999991  6.92307692307696 10.86574074074  6.92307692307696 11.1111111111104  C 6.92307692307696 11.3564814814808  6.83293269230768 11.5659722222217  6.6526442307692 11.739583333333  C 6.4723557692308 11.9131944444443  6.25480769230774 12  6 12  C 5.74519230769226 12  5.5276442307692 11.9131944444443  5.3473557692308 11.739583333333  C 5.16706730769232 11.5659722222217  5.07692307692304 11.3564814814808  5.07692307692304 11.1111111111104  C 5.07692307692304 10.86574074074  5.16706730769232 10.6562499999991  5.3473557692308 10.4826388888891  C 5.5276442307692 10.3090277777778  5.74519230769226 10.2222222222222  6 10.2222222222222  C 6.25480769230774 10.2222222222222  6.4723557692308 10.3090277777778  6.6526442307692 10.4826388888891  Z M 1.57572115384616 5.59374999999909  C 1.75600961538456 5.7673611111104  1.84615384615384 5.97685185185128  1.84615384615384 6.22222222222172  C 1.84615384615384 6.46759259259215  1.75600961538456 6.67708333333303  1.57572115384616 6.85069444444434  C 1.39543269230768 7.02430555555566  1.1778846153847 7.11111111111131  0.923076923076962 7.11111111111131  C 0.668269230769226 7.11111111111131  0.45072115384616 7.02430555555566  0.270432692307679 6.85069444444434  C 0.090144230769198 6.67708333333303  0 6.46759259259215  0 6.22222222222172  C 0 5.97685185185128  0.090144230769198 5.7673611111104  0.270432692307679 5.59374999999909  C 0.45072115384616 5.42013888888914  0.668269230769226 5.33333333333348  0.923076923076962 5.33333333333348  C 1.1778846153847 5.33333333333348  1.39543269230768 5.42013888888914  1.57572115384616 5.59374999999909  Z M 10.2439903846154 9.05208333333258  C 10.4242788461538 9.22569444444389  10.514423076923 9.43518518518476  10.514423076923 9.6805555555552  C 10.514423076923 9.92129629629699  10.4230769230768 10.1296296296287  10.2403846153846 10.3055555555557  C 10.0576923076923 10.4814814814813  9.84134615384619 10.5694444444448  9.59134615384616 10.5694444444448  C 9.33653846153851 10.5694444444448  9.11899038461544 10.4826388888891  8.93870192307696 10.3090277777778  C 8.75841346153848 10.1354166666665  8.6682692307692 9.92592592592564  8.6682692307692 9.6805555555552  C 8.6682692307692 9.43518518518476  8.75841346153848 9.22569444444389  8.93870192307696 9.05208333333258  C 9.11899038461544 8.87847222222263  9.33653846153851 8.79166666666697  9.59134615384616 8.79166666666697  C 9.8461538461539 8.79166666666697  10.063701923077 8.87847222222263  10.2439903846154 9.05208333333258  Z M 3.22355769230768 1.97916666666652  C 3.44951923076925 2.19675925925822  3.5625 2.45833333333303  3.5625 2.7638888888896  C 3.5625 3.0694444444448  3.44951923076925 3.33101851851825  3.22355769230768 3.54861111111131  C 2.99759615384619 3.76620370370301  2.72596153846152 3.87500000000091  2.40865384615384 3.87500000000091  C 2.09134615384616 3.87500000000091  1.81971153846149 3.76620370370301  1.59375 3.54861111111131  C 1.36778846153851 3.33101851851825  1.25480769230768 3.0694444444448  1.25480769230768 2.7638888888896  C 1.25480769230768 2.45833333333303  1.36778846153851 2.19675925925822  1.59375 1.97916666666652  C 1.81971153846149 1.76157407407345  2.09134615384616 1.65277777777828  2.40865384615384 1.65277777777828  C 2.72596153846152 1.65277777777828  2.99759615384619 1.76157407407345  3.22355769230768 1.97916666666652  Z M 11.7295673076923 5.59374999999909  C 11.9098557692308 5.7673611111104  12 5.97685185185128  12 6.22222222222172  C 12 6.46759259259215  11.9098557692308 6.67708333333303  11.7295673076923 6.85069444444434  C 11.5492788461538 7.02430555555566  11.3317307692308 7.11111111111131  11.076923076923 7.11111111111131  C 10.8221153846153 7.11111111111131  10.6045673076923 7.02430555555566  10.4242788461538 6.85069444444434  C 10.2439903846154 6.67708333333303  10.1538461538462 6.46759259259215  10.1538461538462 6.22222222222172  C 10.1538461538462 5.97685185185128  10.2439903846154 5.7673611111104  10.4242788461538 5.59374999999909  C 10.6045673076923 5.42013888888914  10.8221153846153 5.33333333333348  11.076923076923 5.33333333333348  C 11.3317307692308 5.33333333333348  11.5492788461538 5.42013888888914  11.7295673076923 5.59374999999909  Z M 6.9807692307692 0.388888888888687  C 7.24999999999997 0.648148148147811  7.38461538461544 0.962962962963047  7.38461538461544 1.33333333333303  C 7.38461538461544 1.70370370370301  7.24999999999997 2.01851851851825  6.9807692307692 2.27777777777737  C 6.71153846153851 2.5370370370365  6.38461538461542 2.66666666666742  6 2.66666666666742  C 5.61538461538458 2.66666666666742  5.28846153846149 2.5370370370365  5.0192307692308 2.27777777777737  C 4.75000000000003 2.01851851851825  4.61538461538456 1.70370370370301  4.61538461538456 1.33333333333303  C 4.61538461538456 0.962962962963047  4.75000000000003 0.648148148147811  5.0192307692308 0.388888888888687  C 5.28846153846149 0.129629629629562  5.61538461538458 0  6 0  C 6.38461538461542 0  6.71153846153851 0.129629629629562  6.9807692307692 0.388888888888687  Z M 10.7307692307692 1.66666666666697  C 11.048076923077 1.97222222222217  11.2067307692308 2.3379629629635  11.2067307692308 2.7638888888896  C 11.2067307692308 3.19444444444434  11.048076923077 3.56134259259215  10.7307692307692 3.86458333333303  C 10.4134615384615 4.16782407407391  10.0336538461539 4.31944444444434  9.59134615384616 4.31944444444434  C 9.1442307692308 4.31944444444434  8.76322115384619 4.16782407407391  8.44831730769232 3.86458333333303  C 8.13341346153845 3.56134259259215  7.97596153846152 3.19444444444434  7.97596153846152 2.7638888888896  C 7.97596153846152 2.3379629629635  8.13341346153845 1.97222222222217  8.44831730769232 1.66666666666697  C 8.76322115384619 1.3611111111104  9.1442307692308 1.20833333333348  9.59134615384616 1.20833333333348  C 10.0336538461539 1.20833333333348  10.4134615384615 1.3611111111104  10.7307692307692 1.66666666666697  Z " fill-rule="nonzero" fill="#ffffff" stroke="none" transform="matrix(1 0 0 1 521 7962 )" />
  </g>
</svg>