<?xml version="1.0" encoding="utf-8"?>
<svg version="1.1" xmlns:xlink="http://www.w3.org/1999/xlink" width="22px" height="22px" xmlns="http://www.w3.org/2000/svg">
  <g transform="matrix(1 0 0 1 -1346 -98 )">
    <path d="M 1355.62015992082 107.100813061876  L 1357 102.85410196625  L 1358.37984007918 107.100813061876  L 1362.84509637348 107.100813061876  L 1359.23262814715 109.725424859374  L 1360.61246822633 113.972135955  L 1357 111.347524157501  L 1353.38753177367 113.972135955  L 1354.76737185285 109.725424859374  L 1351.15490362652 107.100813061876  L 1355.62015992082 107.100813061876  Z " fill-rule="nonzero" fill="#ffffff" stroke="none" />
    <path d="M 1354.53034612881 105.600813061876  L 1357 98  L 1359.46965387119 105.600813061876  L 1367.46162167925 105.600813061876  L 1360.99598390403 110.298373876249  L 1363.46563777522 117.899186938124  L 1357 113.201626123751  L 1350.53436222478 117.899186938124  L 1353.00401609597 110.298373876249  L 1346.53837832075 105.600813061876  L 1354.53034612881 105.600813061876  Z M 1357 104.472135955  L 1355.98343118482 107.600813061876  L 1352.6937453951 107.600813061876  L 1355.35515710514 109.534441853749  L 1354.33858828996 112.663118960625  L 1357 110.729490168752  L 1359.66141171004 112.663118960625  L 1358.64484289486 109.534441853749  L 1361.3062546049 107.600813061876  L 1358.01656881518 107.600813061876  L 1357 104.472135955  Z " fill-rule="nonzero" fill="#797979" stroke="none" />
  </g>
</svg>