<?xml version="1.0" encoding="utf-8"?>
<svg version="1.1" xmlns:xlink="http://www.w3.org/1999/xlink" width="11px" height="13px" xmlns="http://www.w3.org/2000/svg">
  <g transform="matrix(1 0 0 1 -543 -3721 )">
    <path d="M 9.03059895833337 11.93359375  C 9.12131076388891 11.8417038690477  9.16666666666663 11.7328869047619  9.16666666666663 11.6071428571431  C 9.16666666666663 11.4813988095239  9.12131076388891 11.3725818452381  9.03059895833337 11.2806919642858  C 8.93988715277783 11.1888020833335  8.83246527777783 11.1428571428569  8.70833333333337 11.1428571428569  C 8.58420138888891 11.1428571428569  8.47677951388891 11.1888020833335  8.38606770833337 11.2806919642858  C 8.29535590277783 11.3725818452381  8.25 11.4813988095239  8.25 11.6071428571431  C 8.25 11.7328869047619  8.29535590277783 11.8417038690477  8.38606770833337 11.93359375  C 8.47677951388891 12.0254836309523  8.58420138888891 12.0714285714284  8.70833333333337 12.0714285714284  C 8.83246527777783 12.0714285714284  8.93988715277783 12.0254836309523  9.03059895833337 11.93359375  Z M 9.85416666666663 7.36690848214312  C 10.0069444444445 6.89053199404771  10.0833333333334 6.45647321428578  10.0833333333334 6.06473214285688  C 10.0833333333334 5.15066964285688  9.68467881944446 4.69363839285688  8.88736979166663 4.69363839285688  C 8.76323784722217 4.69363839285688  8.62955729166663 4.70572916666652  8.486328125 4.72991071428578  C 8.40993923611109 4.58482142857156  8.28461371527783 4.46995907738074  8.1103515625 4.38532366071422  C 7.93608940972217 4.30068824404771  7.76063368055554 4.25837053571422  7.583984375 4.25837053571422  C 7.40733506944446 4.25837053571422  7.24262152777783 4.30189732142844  7.08984375 4.38895089285688  C 6.85112847222217 4.13262648809541  6.56705729166663 4.00446428571422  6.23763020833337 4.00446428571422  C 6.11827256944446 4.00446428571422  5.98578559027783 4.02864583333348  5.84016927083337 4.07700892857156  C 5.69455295138891 4.12537202380963  5.58116319444446 4.18582589285688  5.5 4.25837053571422  L 5.5 1.85714285714312  C 5.5 1.60565476190459  5.40928819444446 1.38802083333348  5.22786458333337 1.20424107142844  C 5.04644097222217 1.02046130952385  4.83159722222217 0.928571428571558  4.58333333333337 0.928571428571558  C 4.33984375 0.928571428571558  4.12619357638891 1.02287946428578  3.9423828125 1.21149553571422  C 3.75857204861109 1.40011160714312  3.66666666666663 1.61532738095229  3.66666666666663 1.85714285714312  L 3.66666666666663 6.03571428571422  C 3.57118055555554 6.03571428571422  3.45540364583337 5.99944196428578  3.3193359375 5.92689732142844  C 3.18326822916663 5.85435267857156  3.05197482638891 5.77455357142844  2.92545572916663 5.6875  C 2.79893663194446 5.60044642857156  2.63661024305554 5.52064732142844  2.4384765625 5.44810267857156  C 2.24034288194446 5.37555803571422  2.03862847222217 5.33928571428578  1.83333333333337 5.33928571428578  C 1.51345486111109 5.33928571428578  1.28070746527783 5.44689360119037  1.13509114583337 5.662109375  C 0.989474826388914 5.87732514880963  0.916666666666629 6.15662202380963  0.916666666666629 6.5  C 0.916666666666629 6.61607142857156  1.24848090277783 6.83370535714312  1.912109375 7.15290178571422  C 2.12217881944446 7.26897321428578  2.27734375 7.35844494047615  2.37760416666663 7.42131696428578  C 2.68315972222217 7.61476934523807  3.029296875 7.88560267857156  3.416015625 8.23381696428578  C 3.802734375 8.57719494047615  4.05577256944446 8.82142857142844  4.17513020833337 8.96651785714312  C 4.447265625 9.30022321428578  4.58333333333337 9.63876488095229  4.58333333333337 9.98214285714312  L 4.58333333333337 10.2142857142858  L 9.16666666666663 10.2142857142858  L 9.16666666666663 9.98214285714312  C 9.16666666666663 9.63392857142844  9.24305555555554 9.23009672619037  9.39583333333337 8.77064732142844  C 9.54861111111109 8.31119791666652  9.70138888888891 7.84328497023807  9.85416666666663 7.36690848214312  Z M 10.4235026041666 4.38169642857156  C 10.8078342013889 4.79761904761926  11 5.34654017857156  11 6.02845982142844  C 11 6.67168898809541  10.8352864583334 7.45033482142844  10.505859375 8.36439732142844  C 10.2241753472222 9.15755208333348  10.0833333333334 9.69680059523807  10.0833333333334 9.98214285714312  L 10.0833333333334 12.0714285714284  C 10.0833333333334 12.3277529761904  9.99381510416663 12.5465959821431  9.81477864583337 12.7279575892858  C 9.6357421875 12.9093191964284  9.41970486111109 13  9.16666666666663 13  L 4.58333333333337 13  C 4.33029513888891 13  4.1142578125 12.9093191964284  3.93522135416663 12.7279575892858  C 3.75618489583337 12.5465959821431  3.66666666666663 12.3277529761904  3.66666666666663 12.0714285714284  L 3.66666666666663 9.98214285714312  C 3.66666666666663 9.93377976190459  3.65592447916663 9.88178943452385  3.63444010416663 9.826171875  C 3.61295572916663 9.77055431547615  3.57953559027783 9.71372767857156  3.5341796875 9.65569196428578  C 3.48882378472217 9.59765625  3.44585503472217 9.54324776785688  3.4052734375 9.49246651785688  C 3.36469184027783 9.44168526785688  3.31098090277783 9.38364955357156  3.244140625 9.318359375  C 3.17730034722217 9.25306919642844  3.1259765625 9.20349702380963  3.09016927083337 9.16964285714312  C 3.05436197916663 9.13578869047615  3.00303819444446 9.08984375  2.93619791666663 9.03180803571422  C 2.86935763888891 8.97377232142844  2.82877604166663 8.93991815476193  2.814453125 8.93024553571422  C 2.46115451388891 8.61588541666652  2.15321180555554 8.37406994047615  1.890625 8.20479910714312  C 1.79036458333337 8.14192708333348  1.64236111111109 8.06212797619037  1.44661458333337 7.96540178571422  C 1.25086805555554 7.86867559523807  1.07899305555554 7.77920386904771  0.930989583333371 7.69698660714312  C 0.782986111111086 7.61476934523807  0.632595486111086 7.51683407738074  0.479817708333371 7.40318080357156  C 0.327039930555543 7.28952752976193  0.208875868055543 7.15652901785688  0.125325520833371 7.00418526785688  C 0.0417751736110858 6.85184151785688  0 6.68377976190459  0 6.5  C 0 5.89546130952385  0.159939236111086 5.39611235119037  0.479817708333371 5.001953125  C 0.799696180555543 4.60779389880963  1.25086805555554 4.41071428571422  1.83333333333337 4.41071428571422  C 2.15798611111109 4.41071428571422  2.46354166666663 4.46391369047615  2.75 4.5703125  L 2.75 1.85714285714312  C 2.75 1.35416666666652  2.93142361111109 0.918898809523853  3.29427083333337 0.551339285714221  C 3.65711805555554 0.183779761904589  4.08441840277783 0  4.576171875 0  C 5.07747395833337 0  5.50954861111109 0.182570684523853  5.87239583333337 0.547712053571559  C 6.23524305555554 0.912853422618809  6.41666666666663 1.34933035714312  6.41666666666663 1.85714285714312  L 6.41666666666663 3.08314732142844  C 6.71267361111109 3.10249255952385  6.99674479166663 3.19196428571422  7.26888020833337 3.3515625  C 7.369140625 3.33705357142844  7.47178819444446 3.32979910714312  7.57682291666663 3.32979910714312  C 8.05902777777783 3.32979910714312  8.48394097222217 3.47488839285688  8.8515625 3.76506696428578  C 9.51519097222217 3.76023065476193  10.0391710069445 3.96577380952385  10.4235026041666 4.38169642857156  Z " fill-rule="nonzero" fill="#000000" stroke="none" transform="matrix(1 0 0 1 543 3721 )" />
  </g>
</svg>