<?xml version="1.0" encoding="utf-8"?>
<svg version="1.1" xmlns:xlink="http://www.w3.org/1999/xlink" width="16px" height="16px" xmlns="http://www.w3.org/2000/svg">
  <g transform="matrix(1 0 0 1 -890 -7234 )">
    <path d="M 14.7723214285716 14.7723214285716  C 14.8288690476192 14.7157738095239  14.8571428571428 14.6488095238092  14.8571428571428 14.5714285714284  L 14.8571428571428 4.85714285714221  C 14.8571428571428 4.77976190476238  14.8288690476192 4.71279761904862  14.7723214285716 4.65625  C 14.7157738095239 4.59970238095138  14.6488095238096 4.57142857142844  14.5714285714284 4.57142857142844  L 4.85714285714278 4.57142857142844  C 4.77976190476193 4.57142857142844  4.71279761904759 4.59970238095138  4.65625 4.65625  C 4.59970238095241 4.71279761904862  4.57142857142844 4.77976190476238  4.57142857142844 4.85714285714221  L 4.57142857142844 14.5714285714284  C 4.57142857142844 14.6488095238092  4.59970238095241 14.7157738095239  4.65625 14.7723214285716  C 4.71279761904759 14.8288690476193  4.77976190476193 14.8571428571422  4.85714285714278 14.8571428571422  L 14.5714285714284 14.8571428571422  C 14.6488095238096 14.8571428571422  14.7157738095239 14.8288690476193  14.7723214285716 14.7723214285716  Z M 15.5803571428572 3.84821428571468  C 15.8601190476192 4.12797619047615  16 4.46428571428532  16 4.85714285714221  L 16 14.5714285714284  C 16 14.9642857142853  15.8601190476192 15.3005952380954  15.5803571428572 15.5803571428578  C 15.3005952380953 15.8601190476193  14.9642857142857 16  14.5714285714284 16  L 4.85714285714278 16  C 4.46428571428567 16  4.12797619047615 15.8601190476193  3.84821428571433 15.5803571428578  C 3.56845238095241 15.3005952380954  3.42857142857156 14.9642857142853  3.42857142857156 14.5714285714284  L 3.42857142857156 4.85714285714221  C 3.42857142857156 4.46428571428532  3.56845238095241 4.12797619047615  3.84821428571433 3.84821428571468  C 4.12797619047615 3.56845238095138  4.46428571428567 3.42857142857156  4.85714285714278 3.42857142857156  L 14.5714285714284 3.42857142857156  C 14.9642857142857 3.42857142857156  15.3005952380953 3.56845238095138  15.5803571428572 3.84821428571468  Z M 12.1517857142857 0.419642857142208  C 12.4315476190476 0.699404761904589  12.5714285714284 1.03571428571468  12.5714285714284 1.42857142857156  L 12.5714285714284 2.85714285714221  L 11.4285714285716 2.85714285714221  L 11.4285714285716 1.42857142857156  C 11.4285714285716 1.35119047619082  11.4002976190476 1.28422619047615  11.34375 1.22767857142844  C 11.2872023809524 1.17113095238074  11.2202380952381 1.14285714285779  11.1428571428572 1.14285714285779  L 1.42857142857156 1.14285714285779  C 1.35119047619037 1.14285714285779  1.28422619047615 1.17113095238074  1.22767857142844 1.22767857142844  C 1.17113095238085 1.28422619047615  1.14285714285722 1.35119047619082  1.14285714285722 1.42857142857156  L 1.14285714285722 11.1428571428578  C 1.14285714285722 11.2202380952376  1.17113095238085 11.2872023809514  1.22767857142844 11.34375  C 1.28422619047615 11.4002976190486  1.35119047619037 11.4285714285716  1.42857142857156 11.4285714285716  L 2.85714285714278 11.4285714285716  L 2.85714285714278 12.5714285714284  L 1.42857142857156 12.5714285714284  C 1.03571428571433 12.5714285714284  0.699404761904702 12.4315476190486  0.419642857142776 12.1517857142853  C 0.13988095238085 11.8720238095239  0 11.5357142857147  0 11.1428571428578  L 0 1.42857142857156  C 0 1.03571428571468  0.13988095238085 0.699404761904589  0.419642857142776 0.419642857142208  C 0.699404761904702 0.139880952380736  1.03571428571433 0  1.42857142857156 0  L 11.1428571428572 0  C 11.5357142857143 0  11.8720238095239 0.139880952380736  12.1517857142857 0.419642857142208  Z " fill-rule="nonzero" fill="#9f9ea5" stroke="none" transform="matrix(1 0 0 1 890 7234 )" />
  </g>
</svg>