<?xml version="1.0" encoding="utf-8"?>
<svg version="1.1" xmlns:xlink="http://www.w3.org/1999/xlink" width="22px" height="22px" xmlns="http://www.w3.org/2000/svg">
  <g transform="matrix(1 0 0 1 -656 -3639 )">
    <path d="M 665.62015992082 3648.10081306188  L 667 3643.85410196625  L 668.37984007918 3648.10081306188  L 672.845096373484 3648.10081306188  L 669.232628147152 3650.72542485937  L 670.612468226332 3654.972135955  L 667 3652.3475241575  L 663.387531773668 3654.972135955  L 664.767371852848 3650.72542485937  L 661.154903626516 3648.10081306188  L 665.62015992082 3648.10081306188  Z " fill-rule="nonzero" fill="#ffffff" stroke="none" />
    <path d="M 664.530346128812 3646.60081306188  L 667 3639  L 669.469653871188 3646.60081306188  L 677.461621679247 3646.60081306188  L 670.995983904029 3651.29837387625  L 673.465637775217 3658.89918693812  L 667 3654.20162612375  L 660.534362224783 3658.89918693812  L 663.004016095971 3651.29837387625  L 656.538378320753 3646.60081306188  L 664.530346128812 3646.60081306188  Z M 667 3645.472135955  L 665.983431184823 3648.60081306188  L 662.693745395104 3648.60081306188  L 665.35515710514 3650.53444185375  L 664.338588289963 3653.66311896062  L 667 3651.72949016875  L 669.661411710037 3653.66311896062  L 668.64484289486 3650.53444185375  L 671.306254604896 3648.60081306188  L 668.016568815177 3648.60081306188  L 667 3645.472135955  Z " fill-rule="nonzero" fill="#cccccc" stroke="none" />
  </g>
</svg>