<?xml version="1.0" encoding="utf-8"?>
<svg version="1.1" xmlns:xlink="http://www.w3.org/1999/xlink" width="8px" height="4px" xmlns="http://www.w3.org/2000/svg">
  <g transform="matrix(1 0 0 1 -503 -7236 )">
    <path d="M 7.91983967935874 3.27147766323014  C 7.97327989311958 3.31729667812124  8 3.36998854524654  8 3.42955326460469  C 8 3.4891179839633  7.97327989311958 3.54180985108815  7.91983967935874 3.58762886597924  L 7.5190380761523 3.93127147766336  C 7.46559786239146 3.97709049255445  7.40414161656645 4  7.33466933867737 4  C 7.26519706078824 4  7.20374081496328 3.97709049255445  7.15030060120239 3.93127147766336  L 4 1.23024054982807  L 0.849699398797611 3.93127147766336  C 0.796259185036718 3.97709049255445  0.734802939211761 4  0.665330661322628 4  C 0.595858383433551 4  0.534402137608538 3.97709049255445  0.480961923847701 3.93127147766336  L 0.0801603206412551 3.58762886597924  C 0.0267201068804184 3.54180985108815  0 3.4891179839633  0 3.42955326460469  C 0 3.36998854524654  0.0267201068804184 3.31729667812124  0.0801603206412551 3.27147766323014  L 3.81563126252507 0.0687285223366416  C 3.86907147628591 0.0229095074455472  3.93052772211087 0  4 0  C 4.06947227788913 0  4.13092852371409 0.0229095074455472  4.18436873747493 0.0687285223366416  L 7.91983967935874 3.27147766323014  Z " fill-rule="nonzero" fill="#999999" stroke="none" transform="matrix(1 0 0 1 503 7236 )" />
  </g>
</svg>