<?xml version="1.0" encoding="utf-8"?>
<svg version="1.1" xmlns:xlink="http://www.w3.org/1999/xlink" width="11px" height="6px" xmlns="http://www.w3.org/2000/svg">
  <g transform="matrix(1 0 0 1 -399 -11 )">
    <path d="M 10.2411719991708 0.618556701030911  C 10.3102757238615 0.687285223367667  10.344827586207 0.766323024054941  10.344827586207 0.855670103092734  C 10.344827586207 0.945017182130641  10.3102757238615 1.02405498281792  10.2411719991708 1.09278350515456  L 5.41082164328645 5.89690721649481  C 5.3417179185958 5.96563573883157  5.26224863520144 6  5.17241379310349 6  C 5.08257895100553 6  5.00310966761106 5.96563573883157  4.93400594292029 5.89690721649481  L 0.103655587036201 1.09278350515456  C 0.0345518623454382 1.02405498281792  0 0.945017182130641  0 0.855670103092734  C 0 0.766323024054941  0.0345518623454382 0.687285223367667  0.103655587036201 0.618556701030911  L 0.621933522216864 0.10309278350519  C 0.691037246907626 0.0343642611684345  0.770506530301873 0  0.860341372400057 0  C 0.950176214498015 0  1.02964549789226 0.0343642611684345  1.09874922258314 0.10309278350519  L 5.17241379310349 4.15463917525767  L 9.24607836362384 0.10309278350519  C 9.3151820883146 0.0343642611684345  9.39465137170896 0  9.48448621380692 0  C 9.57432105590487 0  9.65379033929923 0.0343642611684345  9.72289406399011 0.10309278350519  L 10.2411719991708 0.618556701030911  Z " fill-rule="nonzero" fill="#108ee9" stroke="none" transform="matrix(1 0 0 1 399 11 )" />
  </g>
</svg>