<?xml version="1.0" encoding="utf-8"?>
<svg version="1.1" xmlns:xlink="http://www.w3.org/1999/xlink" width="4px" height="16px" xmlns="http://www.w3.org/2000/svg">
  <g transform="matrix(1 0 0 1 -1160 -162 )">
    <path d="M 0 2  C 0 3.10500000000002  0.895000000000209 4  2 4  C 3.10499999999979 4  4 3.10500000000002  4 2  C 4 0.894999999999982  3.10499999999979 0  2 0  C 0.895000000000209 0  0 0.894999999999982  0 2  Z M 4 8  C 4 6.89499999999998  3.10499999999979 6  2 6  C 0.895000000000209 6  0 6.89499999999998  0 8  C 0 9.10500000000002  0.895000000000209 10  2 10  C 3.10499999999979 10  4 9.10500000000002  4 8  Z M 4 14  C 4 12.895  3.10499999999979 12  2 12  C 0.895000000000209 12  0 12.895  0 14  C 0 15.105  0.895000000000209 16  2 16  C 3.10499999999979 16  4 15.105  4 14  Z " fill-rule="nonzero" fill="#666666" stroke="none" transform="matrix(1 0 0 1 1160 162 )" />
  </g>
</svg>