<?xml version="1.0" encoding="utf-8"?>
<svg version="1.1" xmlns:xlink="http://www.w3.org/1999/xlink" width="14px" height="18px" xmlns="http://www.w3.org/2000/svg">
  <defs>
    <mask fill="white" id="clip52">
      <path d="M 1 4  L 1 15.9999999999991  C 1 17.1050000000005  1.8950000000001 18  3 18  L 11 18  C 12.1049999999999 18  13 17.1050000000005  13 15.9999999999991  L 13 4  L 1 4  Z M 14 3  L 14 0.999999999999091  L 10.5 0.999999999999091  L 9.5 0  L 4.5 0  L 3.5 0.999999999999091  L 0 0.999999999999091  L 0 3  L 14 3  Z " fill-rule="evenodd" />
    </mask>
  </defs>
  <g transform="matrix(1 0 0 1 -833 -16050 )">
    <path d="M 1 4  L 1 15.9999999999991  C 1 17.1050000000005  1.8950000000001 18  3 18  L 11 18  C 12.1049999999999 18  13 17.1050000000005  13 15.9999999999991  L 13 4  L 1 4  Z M 14 3  L 14 0.999999999999091  L 10.5 0.999999999999091  L 9.5 0  L 4.5 0  L 3.5 0.999999999999091  L 0 0.999999999999091  L 0 3  L 14 3  Z " fill-rule="nonzero" fill="#ffffff" stroke="none" fill-opacity="0" transform="matrix(1 0 0 1 833 16050 )" />
    <path d="M 1 4  L 1 15.9999999999991  C 1 17.1050000000005  1.8950000000001 18  3 18  L 11 18  C 12.1049999999999 18  13 17.1050000000005  13 15.9999999999991  L 13 4  L 1 4  Z " stroke-width="4" stroke="#666666" fill="none" transform="matrix(1 0 0 1 833 16050 )" mask="url(#clip52)" />
    <path d="M 14 3  L 14 0.999999999999091  L 10.5 0.999999999999091  L 9.5 0  L 4.5 0  L 3.5 0.999999999999091  L 0 0.999999999999091  L 0 3  L 14 3  Z " stroke-width="4" stroke="#666666" fill="none" transform="matrix(1 0 0 1 833 16050 )" mask="url(#clip52)" />
  </g>
</svg>