<?xml version="1.0" encoding="utf-8"?>
<svg version="1.1" xmlns:xlink="http://www.w3.org/1999/xlink" width="16px" height="20px" xmlns="http://www.w3.org/2000/svg">
  <defs>
    <mask fill="white" id="clip53">
      <path d="M 1.14285714285711 4.44444444444434  L 1.14285714285711 17.7777777777774  C 1.14285714285711 19.0055555555555  2.16571428571433 20  3.42857142857144 20  L 12.5714285714286 20  C 13.8342857142857 20  14.8571428571429 19.0055555555555  14.8571428571429 17.7777777777774  L 14.8571428571429 4.44444444444434  L 1.14285714285711 4.44444444444434  Z M 16 3.33333333333303  L 16 1.11111111111131  L 12 1.11111111111131  L 10.8571428571429 0  L 5.14285714285711 0  L 4 1.11111111111131  L 0 1.11111111111131  L 0 3.33333333333303  L 16 3.33333333333303  Z " fill-rule="evenodd" />
    </mask>
  </defs>
  <g transform="matrix(1 0 0 1 -587 -5129 )">
    <path d="M 1.14285714285711 4.44444444444434  L 1.14285714285711 17.7777777777774  C 1.14285714285711 19.0055555555555  2.16571428571433 20  3.42857142857144 20  L 12.5714285714286 20  C 13.8342857142857 20  14.8571428571429 19.0055555555555  14.8571428571429 17.7777777777774  L 14.8571428571429 4.44444444444434  L 1.14285714285711 4.44444444444434  Z M 16 3.33333333333303  L 16 1.11111111111131  L 12 1.11111111111131  L 10.8571428571429 0  L 5.14285714285711 0  L 4 1.11111111111131  L 0 1.11111111111131  L 0 3.33333333333303  L 16 3.33333333333303  Z " fill-rule="nonzero" fill="#ffffff" stroke="none" fill-opacity="0" transform="matrix(1 0 0 1 587 5129 )" />
    <path d="M 1.14285714285711 4.44444444444434  L 1.14285714285711 17.7777777777774  C 1.14285714285711 19.0055555555555  2.16571428571433 20  3.42857142857144 20  L 12.5714285714286 20  C 13.8342857142857 20  14.8571428571429 19.0055555555555  14.8571428571429 17.7777777777774  L 14.8571428571429 4.44444444444434  L 1.14285714285711 4.44444444444434  Z " stroke-width="4" stroke="#999999" fill="none" transform="matrix(1 0 0 1 587 5129 )" mask="url(#clip53)" />
    <path d="M 16 3.33333333333303  L 16 1.11111111111131  L 12 1.11111111111131  L 10.8571428571429 0  L 5.14285714285711 0  L 4 1.11111111111131  L 0 1.11111111111131  L 0 3.33333333333303  L 16 3.33333333333303  Z " stroke-width="4" stroke="#999999" fill="none" transform="matrix(1 0 0 1 587 5129 )" mask="url(#clip53)" />
  </g>
</svg>