<?xml version="1.0" encoding="utf-8"?>
<svg version="1.1" xmlns:xlink="http://www.w3.org/1999/xlink" width="19px" height="19px" xmlns="http://www.w3.org/2000/svg">
  <g transform="matrix(1 0 0 1 -581 -5077 )">
    <path d="M 17.5421316964286 17.5421316964284  C 17.6092819940476 17.4749813988101  17.6428571428571 17.3954613095239  17.6428571428571 17.3035714285716  L 17.6428571428571 5.76785714285688  C 17.6428571428571 5.67596726190459  17.6092819940476 5.59644717261926  17.5421316964286 5.529296875  C 17.4749813988095 5.46214657738074  17.3954613095237 5.42857142857156  17.3035714285714 5.42857142857156  L 5.76785714285711 5.42857142857156  C 5.6759672619047 5.42857142857156  5.59644717261904 5.46214657738074  5.529296875 5.529296875  C 5.46214657738096 5.59644717261926  5.42857142857144 5.67596726190459  5.42857142857144 5.76785714285688  L 5.42857142857144 17.3035714285716  C 5.42857142857144 17.3954613095239  5.46214657738096 17.4749813988101  5.529296875 17.5421316964284  C 5.59644717261904 17.6092819940477  5.6759672619047 17.6428571428569  5.76785714285711 17.6428571428569  L 17.3035714285714 17.6428571428569  C 17.3954613095237 17.6428571428569  17.4749813988095 17.6092819940477  17.5421316964286 17.5421316964284  Z M 18.5016741071429 4.56975446428532  C 18.8338913690476 4.90197172618991  19 5.30133928571468  19 5.76785714285688  L 19 17.3035714285716  C 19 17.7700892857147  18.8338913690476 18.1694568452376  18.5016741071429 18.5016741071431  C 18.1694568452381 18.8338913690477  17.7700892857143 19  17.3035714285714 19  L 5.76785714285711 19  C 5.30133928571433 19  4.90197172619048 18.8338913690477  4.56975446428567 18.5016741071431  C 4.23753720238096 18.1694568452376  4.07142857142856 17.7700892857147  4 17.3035714285716  L 4 5.76785714285688  C 4.07142857142856 5.30133928571468  4.23753720238096 4.90197172618991  4.56975446428567 4.56975446428532  C 4.90197172619048 4.23753720238074  5.30133928571433 4.07142857142844  5.76785714285711 4  L 17.3035714285714 4  C 17.7700892857143 4.07142857142844  18.1694568452381 4.23753720238074  18.5016741071429 4.56975446428532  Z M 14.4302455357143 0.498325892856883  C 14.762462797619 0.830543154762381  14.9285714285714 1.22991071428532  14.9285714285714 1.69642857142844  L 14.9285714285714 3.39285714285688  L 13.5714285714286 3.39285714285688  L 13.5714285714286 1.69642857142844  C 13.5714285714286 1.60453869047615  13.537853422619 1.52501860118991  13.470703125 1.45786830357156  C 13.403552827381 1.39071800595229  13.3240327380953 1.35714285714312  13.2321428571429 1.35714285714312  L 1.69642857142856 1.35714285714312  C 1.60453869047626 1.35714285714312  1.52501860119048 1.39071800595229  1.45786830357144 1.45786830357156  C 1.39071800595241 1.52501860118991  1.35714285714289 1.60453869047615  1.35714285714289 1.69642857142844  L 1.35714285714289 13.2321428571431  C 1.35714285714289 13.3240327380954  1.39071800595241 13.4035528273807  1.45786830357144 13.470703125  C 1.52501860119048 13.5378534226193  1.60453869047626 13.5714285714284  1.69642857142856 13.5714285714284  L 3.39285714285711 13.5714285714284  L 3.39285714285711 14.9285714285716  L 1.69642857142856 14.9285714285716  C 1.22991071428567 14.9285714285716  0.830543154761926 14.7624627976193  0.49832589285711 14.4302455357147  C 0.166108630952408 14.0980282738101  0 13.6986607142853  0 13.2321428571431  L 0 1.69642857142844  C 0 1.22991071428532  0.166108630952408 0.830543154762381  0.49832589285711 0.498325892856883  C 0.830543154761926 0.166108630952294  1.22991071428567 0  1.69642857142856 0  L 13.2321428571429 0  C 13.6986607142857 0  14.0980282738095 0.166108630952294  14.4302455357143 0.498325892856883  Z " fill-rule="nonzero" fill="#999999" stroke="none" transform="matrix(1 0 0 1 581 5077 )" />
  </g>
</svg>