<?xml version="1.0" encoding="utf-8"?>
<svg version="1.1" xmlns:xlink="http://www.w3.org/1999/xlink" width="16px" height="16px" xmlns="http://www.w3.org/2000/svg">
  <g transform="matrix(1 0 0 1 -135 -524 )">
    <path d="M 15.8020833333333 13.0375  C 15.9340277777778 13.1958333333333  16 13.3833333333333  16 13.6  L 16 15.2  C 16 15.4166666666667  15.9340277777778 15.6041666666667  15.8020833333333 15.7625  C 15.6701388888889 15.9208333333333  15.5138888888889 16  15.3333333333333 16  L 0.666666666666686 16  C 0.486111111111105 16  0.329861111111105 15.9208333333333  0.197916666666686 15.7625  C 0.0659722222222285 15.6041666666667  0 15.4166666666667  0 15.2  L 0 13.6  C 0 13.3833333333333  0.0659722222222285 13.1958333333333  0.197916666666686 13.0375  C 0.329861111111105 12.8791666666667  0.486111111111105 12.8  0.666666666666686 12.8  L 15.3333333333333 12.8  C 15.5138888888889 12.8  15.6701388888889 12.8791666666667  15.8020833333333 13.0375  Z M 15.8020833333333 6.63750000000001  C 15.9340277777778 6.79583333333333  16 6.98333333333333  16 7.20000000000001  L 16 8.79999999999999  C 16 9.01666666666667  15.9340277777778 9.20416666666667  15.8020833333333 9.36249999999999  C 15.6701388888889 9.52083333333333  15.5138888888889 9.59999999999999  15.3333333333333 9.59999999999999  L 0.666666666666686 9.59999999999999  C 0.486111111111105 9.59999999999999  0.329861111111105 9.52083333333333  0.197916666666686 9.36249999999999  C 0.0659722222222285 9.20416666666667  0 9.01666666666667  0 8.79999999999999  L 0 7.20000000000001  C 0 6.98333333333333  0.0659722222222285 6.79583333333333  0.197916666666686 6.63750000000001  C 0.329861111111105 6.47916666666667  0.486111111111105 6.40000000000002  0.666666666666686 6.40000000000002  L 15.3333333333333 6.40000000000002  C 15.5138888888889 6.40000000000002  15.6701388888889 6.47916666666667  15.8020833333333 6.63750000000001  Z M 15.8020833333333 0.237499999999992  C 15.9340277777778 0.395833333333333  16 0.583333333333333  16 0.799999999999992  L 16 2.40000000000002  C 16 2.61666666666666  15.9340277777778 2.80416666666666  15.8020833333333 2.96250000000002  C 15.6701388888889 3.12083333333334  15.5138888888889 3.20000000000001  15.3333333333333 3.20000000000001  L 0.666666666666686 3.20000000000001  C 0.486111111111105 3.20000000000001  0.329861111111105 3.12083333333334  0.197916666666686 2.96250000000002  C 0.0659722222222285 2.80416666666666  0 2.61666666666666  0 2.40000000000002  L 0 0.799999999999992  C 0 0.583333333333333  0.0659722222222285 0.395833333333333  0.197916666666686 0.237499999999992  C 0.329861111111105 0.0791666666666705  0.486111111111105 0  0.666666666666686 0  L 15.3333333333333 0  C 15.5138888888889 0  15.6701388888889 0.0791666666666705  15.8020833333333 0.237499999999992  Z " fill-rule="nonzero" fill="#999999" stroke="none" transform="matrix(1 0 0 1 135 524 )" />
  </g>
</svg>