<?xml version="1.0" encoding="utf-8"?>
<svg version="1.1" xmlns:xlink="http://www.w3.org/1999/xlink" width="15px" height="19px" xmlns="http://www.w3.org/2000/svg">
  <g transform="matrix(1 0 0 1 -1258 -522 )">
    <path d="M 12.4999999999999 5.42857142857143  C 12.4999999999999 6.46763392857143  12.2428385416666 7.42894345238095  11.7285156250001 8.3125  C 12.0345052083333 8.41145833333333  12.3258463541667 8.54575892857143  12.6025390624999 8.71540178571428  C 12.8792317708334 8.88504464285715  13.1689453125 9.1430431547619  13.4716796875001 9.48939732142857  C 13.7744140624999 9.83575148809524  14.033203125 10.2439546130952  14.2480468750001 10.7140066964286  C 14.4628906249999 11.1840587797619  14.6419270833333 11.7919456845238  14.7851562499999 12.5376674107143  C 14.9283854166665 13.2833891369048  15 14.1192336309524  15 15.0452008928571  C 15 16.1337425595238  14.6744791666666 17.0650111607143  14.0234374999999 17.8390066964286  C 13.3723958333335 18.6130022321429  12.5878906249999 19  11.6699218750001 19  L 3.33007812499995 19  C 2.41210937500005 19  1.62760416666655 18.6130022321429  0.976562500000052 17.8390066964286  C 0.325520833333402 17.0650111607143  0 16.1337425595238  0 15.0452008928571  C 0 14.1192336309524  0.0716145833334539 13.2833891369048  0.214843750000052 12.5376674107143  C 0.358072916666649 11.7919456845238  0.537109375000052 11.1840587797619  0.751953124999948 10.7140066964286  C 0.966796875 10.2439546130952  1.22558593750005 9.83575148809524  1.52832031249995 9.48939732142857  C 1.8310546875 9.1430431547619  2.1207682291666 8.88504464285715  2.39746093750005 8.71540178571428  C 2.67415364583335 8.54575892857143  2.96549479166665 8.41145833333333  3.27148437499995 8.3125  C 2.7571614583334 7.42894345238095  2.50000000000005 6.46763392857143  2.50000000000005 5.42857142857143  C 2.50000000000005 4.69345238095238  2.63183593750005 3.99190848214286  2.89550781250005 3.32393973214286  C 3.15917968750005 2.65597098214286  3.515625 2.078125  3.96484375000005 1.59040178571429  C 4.41406249999995 1.10267857142857  4.94628906250005 0.715680803571427  5.56152343750005 0.429408482142858  C 6.17675781250005 0.143136160714285  6.8229166666666 0  7.5 0  C 8.1770833333334 0  8.82324218749995 0.143136160714285  9.43847656249995 0.429408482142858  C 10.0537109374999 0.715680803571427  10.5859375000001 1.10267857142857  11.0351562499999 1.59040178571429  C 11.484375 2.078125  11.8408203124999 2.65597098214286  12.1044921874999 3.32393973214286  C 12.3681640624999 3.99190848214286  12.4999999999999 4.69345238095238  12.4999999999999 5.42857142857143  Z M 10.1513671875 2.54994419642857  C 9.4189453125 1.75474330357143  8.53515625000005 1.35714285714285  7.5 1.35714285714285  C 6.46484374999995 1.35714285714285  5.5810546875 1.75474330357143  4.8486328125 2.54994419642857  C 4.1162109375 3.34514508928572  3.75 4.3046875  3.75 5.42857142857143  C 3.75 6.55245535714285  4.1162109375 7.51199776785715  4.8486328125 8.30719866071428  C 5.5810546875 9.10239955357143  6.46484374999995 9.5  7.5 9.5  C 8.53515625000005 9.5  9.4189453125 9.10239955357143  10.1513671875 8.30719866071428  C 10.8837890625 7.51199776785715  11.25 6.55245535714285  11.25 5.42857142857143  C 11.25 4.3046875  10.8837890625 3.34514508928572  10.1513671875 2.54994419642857  Z M 3.33007812499995 17.6428571428571  L 11.6699218750001 17.6428571428571  C 12.2428385416666 17.6428571428571  12.7327473958334 17.3901599702381  13.1396484375 16.884765625  C 13.5465494791666 16.3793712797619  13.7500000000001 15.7661830357143  13.7500000000001 15.0452008928571  C 13.7500000000001 13.3558407738095  13.4944661458334 12.0234375  12.9833984374999 11.0479910714286  C 12.4723307291667 10.0725446428571  11.7382812499999 9.5600818452381  10.78125 9.51060267857143  C 9.83723958333335 10.4082961309524  8.74348958333345 10.8571428571429  7.5 10.8571428571429  C 6.25651041666655 10.8571428571429  5.16276041666665 10.4082961309524  4.21875 9.51060267857143  C 3.26171875000005 9.5600818452381  2.52766927083335 10.0725446428571  2.01660156250005 11.0479910714286  C 1.5055338541666 12.0234375  1.24999999999995 13.3558407738095  1.24999999999995 15.0452008928571  C 1.24999999999995 15.7661830357143  1.4534505208334 16.3793712797619  1.8603515625 16.884765625  C 2.2672526041666 17.3901599702381  2.7571614583334 17.6428571428571  3.33007812499995 17.6428571428571  Z " fill-rule="nonzero" fill="#ffffff" stroke="none" transform="matrix(1 0 0 1 1258 522 )" />
  </g>
</svg>