<?xml version="1.0" encoding="utf-8"?>
<svg version="1.1" xmlns:xlink="http://www.w3.org/1999/xlink" width="10px" height="10px" xmlns="http://www.w3.org/2000/svg">
  <g transform="matrix(1 0 0 1 -448 -757 )">
    <path d="M 8.65196078431373 7.76348039215736  C 8.76633986928104 7.64910130718999  8.8235294117647 7.51225490196066  8.8235294117647 7.35294117647027  C 8.8235294117647 7.18954248366026  8.76633986928104 7.05065359477157  8.65196078431373 6.9362745098033  L 7.37745098039215 5.66176470588198  C 7.26307189542484 5.54738562091552  7.12418300653596 5.49019607843093  6.9607843137255 5.49019607843093  C 6.7892156862745 5.49019607843093  6.64215686274508 5.55555555555566  6.51960784313724 5.6862745098033  C 6.53186274509804 5.69852941176396  6.57066993464053 5.73631535947698  6.6360294117647 5.79963235294144  C 6.70138888888889 5.86294934640591  6.74530228758172 5.9068627450979  6.76776960784315 5.93137254901922  C 6.79023692810458 5.95588235294144  6.82087418300654 5.99468954248368  6.85968137254903 6.04779411764684  C 6.8984885620915 6.10089869281001  6.9250408496732 6.15298202614395  6.93933823529412 6.20404411764684  C 6.95363562091504 6.25510620915065  6.9607843137255 6.3112745098033  6.9607843137255 6.37254901960841  C 6.9607843137255 6.53594771241842  6.90359477124184 6.67483660130711  6.7892156862745 6.78921568627447  C 6.67483660130719 6.90359477124184  6.53594771241831 6.96078431372553  6.37254901960785 6.96078431372553  C 6.31127450980392 6.96078431372553  6.25510620915031 6.95363562091552  6.20404411764707 6.93933823529369  C 6.15298202614377 6.92504084967277  6.10089869281046 6.89848856209119  6.04779411764707 6.85968137254895  C 5.99468954248366 6.82087418300671  5.95588235294119 6.7902369281046  5.93137254901961 6.76776960784264  C 5.90686274509804 6.74530228758158  5.86294934640523 6.70138888888869  5.79963235294119 6.63602941176396  C 5.73631535947712 6.57066993464014  5.6985294117647 6.5318627450979  5.68627450980392 6.51960784313724  C 5.5514705882353 6.64624183006526  5.48406862745097 6.79534313725435  5.48406862745097 6.96691176470631  C 5.48406862745097 7.13031045751632  5.54125816993465 7.26919934640591  5.65563725490196 7.38357843137237  L 6.91789215686276 8.65196078431381  C 7.02818627450981 8.76225490196066  7.16707516339869 8.81740196078408  7.33455882352942 8.81740196078408  C 7.49795751633988 8.81740196078408  7.63684640522877 8.76429738562092  7.75122549019608 8.65808823529369  L 8.65196078431373 7.76348039215736  Z M 4.31372549019608 3.48039215686276  C 4.4485294117647 3.35375816993474  4.51593137254903 3.20465686274565  4.51593137254903 3.03308823529369  C 4.51593137254903 2.86968954248368  4.45874183006535 2.73080065359409  4.34436274509804 2.61642156862763  L 3.08210784313724 1.34803921568619  C 2.96772875816993 1.23366013071882  2.82883986928104 1.17647058823604  2.66544117647058 1.17647058823604  C 2.50612745098039 1.17647058823604  2.3672385620915 1.23161764705856  2.24877450980392 1.34191176470631  L 1.34803921568627 2.23651960784264  C 1.23366013071896 2.35089869281001  1.1764705882353 2.48774509803934  1.1764705882353 2.64705882352973  C 1.1764705882353 2.81045751633974  1.23366013071896 2.94934640522843  1.34803921568627 3.0637254901967  L 2.62254901960785 4.33823529411802  C 2.73284313725492 4.44852941176396  2.87173202614377 4.50367647058829  3.0392156862745 4.50367647058829  C 3.2107843137255 4.50367647058829  3.35784313725492 4.44035947712382  3.48039215686276 4.3137254901967  C 3.46813725490196 4.30147058823604  3.42933006535947 4.26368464052302  3.3639705882353 4.20036764705856  C 3.29861111111111 4.13705065359409  3.25469771241831 4.0931372549021  3.23223039215685 4.06862745098078  C 3.20976307189542 4.04411764705856  3.17912581699346 4.00531045751632  3.14031862745097 3.95220588235316  C 3.1015114379085 3.89910130718999  3.07495915032681 3.84701797385605  3.06066176470588 3.79595588235316  C 3.04636437908496 3.74489379084935  3.0392156862745 3.6887254901967  3.0392156862745 3.62745098039159  C 3.0392156862745 3.46405228758158  3.09640522875816 3.32516339869289  3.2107843137255 3.21078431372553  C 3.32516339869281 3.09640522875816  3.46405228758169 3.03921568627447  3.62745098039215 3.03921568627447  C 3.68872549019608 3.03921568627447  3.74489379084969 3.04636437908448  3.79595588235293 3.06066176470631  C 3.84701797385623 3.07495915032723  3.89910130718954 3.10151143790881  3.95220588235293 3.14031862745105  C 4.00531045751634 3.17912581699329  4.04411764705881 3.2097630718954  4.06862745098039 3.23223039215736  C 4.09313725490196 3.25469771241842  4.13705065359477 3.29861111111131  4.20036764705881 3.36397058823604  C 4.26368464052288 3.42933006535986  4.3014705882353 3.4681372549021  4.31372549019608 3.48039215686276  Z M 9.48529411764707 6.10294117647027  C 9.82843137254903 6.44607843137237  10 6.86274509803934  10 7.35294117647027  C 10 7.8431372549021  9.82638888888889 8.25776143790881  9.47916666666666 8.59681372549039  L 8.57843137254903 9.49142156862763  C 8.23937908496731 9.83047385620921  7.82475490196077 10  7.33455882352942 10  C 6.84027777777777 10  6.42361111111111 9.82638888888869  6.08455882352942 9.47916666666697  L 4.82230392156865 8.21078431372553  C 4.48325163398692 7.87173202614395  4.31372549019608 7.45710784313724  4.31372549019608 6.96691176470631  C 4.31372549019608 6.46446078431381  4.49346405228758 6.03758169934645  4.85294117647058 5.6862745098033  L 4.31372549019608 5.14705882352973  C 3.96241830065361 5.50653594771211  3.53758169934639 5.6862745098033  3.0392156862745 5.6862745098033  C 2.54901960784315 5.6862745098033  2.13235294117646 5.51470588235316  1.7892156862745 5.17156862745105  L 0.514705882352928 3.89705882352973  C 0.171568627450966 3.55392156862763  0 3.13725490196066  0 2.64705882352973  C 0 2.1568627450979  0.173611111111114 1.74223856209119  0.520833333333343 1.40318627450961  L 1.42156862745097 0.508578431372371  C 1.76062091503269 0.16952614379079  2.17524509803923 0  2.66544117647058 0  C 3.15972222222223 0  3.57638888888889 0.173611111111313  3.91544117647058 0.52083333333303  L 5.17769607843135 1.78921568627447  C 5.51674836601308 2.12826797385605  5.68627450980392 2.54289215686276  5.68627450980392 3.03308823529369  C 5.68627450980392 3.53553921568619  5.50653594771242 3.96241830065355  5.14705882352942 4.3137254901967  L 5.68627450980392 4.85294117647027  C 6.03758169934642 4.49346405228789  6.46241830065361 4.3137254901967  6.9607843137255 4.3137254901967  C 7.45098039215685 4.3137254901967  7.86764705882354 4.48529411764684  8.2107843137255 4.82843137254895  L 9.48529411764707 6.10294117647027  Z " fill-rule="nonzero" fill="#333333" stroke="none" transform="matrix(1 0 0 1 448 757 )" />
  </g>
</svg>