<?xml version="1.0" encoding="utf-8"?>
<svg version="1.1" xmlns:xlink="http://www.w3.org/1999/xlink" width="16px" height="15px" xmlns="http://www.w3.org/2000/svg">
  <defs>
    <mask fill="white" id="clip46">
      <path d="M 15.4615384615386 5.37807183364839  C 15.8205128205129 5.43478260869563  16 5.5797101449275  16 5.81285444234402  C 16 5.95148078134844  15.9166666666667 6.10270951480777  15.75 6.26654064272213  L 12.2596153846155 9.61247637051042  L 13.0865384615386 14.3383742911153  C 13.0929487179487 14.3824826717076  13.0961538461538 14.4454946439823  13.0961538461538 14.5274102079395  C 13.0961538461538 14.6597353497165  13.0625 14.7715816005041  12.9951923076924 14.8629489603024  C 12.9278846153845 14.9543163201008  12.8301282051282 15  12.7019230769231 15  C 12.5801282051282 15  12.4519230769231 14.9621928166351  12.3173076923076 14.8865784499055  L 8 12.6559546313799  L 3.68269230769238 14.8865784499055  C 3.54166666666674 14.9621928166351  3.41346153846143 15  3.29807692307691 15  C 3.16346153846143 15  3.0625 14.9543163201008  2.99519230769238 14.8629489603024  C 2.92788461538453 14.7715816005041  2.89423076923072 14.6597353497165  2.89423076923072 14.5274102079395  C 2.89423076923072 14.4896030245746  2.90064102564111 14.4265910523  2.91346153846143 14.3383742911153  L 3.74038461538453 9.61247637051042  L 0.240384615384528 6.26654064272213  C 0.080128205128176 6.09640831758031  0 5.94517958412098  0 5.81285444234402  C 0 5.5797101449275  0.179487179487069 5.43478260869563  0.538461538461434 5.37807183364839  L 5.36538461538453 4.68809073724003  L 7.52884615384619 0.387523629489579  C 7.65064102564111 0.129174543163231  7.80769230769238 0  8 0  C 8.19230769230762 0  8.34935897435889 0.129174543163231  8.47115384615381 0.387523629489579  L 10.6346153846155 4.68809073724003  L 15.4615384615386 5.37807183364839  Z " fill-rule="evenodd" />
    </mask>
  </defs>
  <g transform="matrix(1 0 0 1 -155 -2562 )">
    <path d="M 15.4615384615386 5.37807183364839  C 15.8205128205129 5.43478260869563  16 5.5797101449275  16 5.81285444234402  C 16 5.95148078134844  15.9166666666667 6.10270951480777  15.75 6.26654064272213  L 12.2596153846155 9.61247637051042  L 13.0865384615386 14.3383742911153  C 13.0929487179487 14.3824826717076  13.0961538461538 14.4454946439823  13.0961538461538 14.5274102079395  C 13.0961538461538 14.6597353497165  13.0625 14.7715816005041  12.9951923076924 14.8629489603024  C 12.9278846153845 14.9543163201008  12.8301282051282 15  12.7019230769231 15  C 12.5801282051282 15  12.4519230769231 14.9621928166351  12.3173076923076 14.8865784499055  L 8 12.6559546313799  L 3.68269230769238 14.8865784499055  C 3.54166666666674 14.9621928166351  3.41346153846143 15  3.29807692307691 15  C 3.16346153846143 15  3.0625 14.9543163201008  2.99519230769238 14.8629489603024  C 2.92788461538453 14.7715816005041  2.89423076923072 14.6597353497165  2.89423076923072 14.5274102079395  C 2.89423076923072 14.4896030245746  2.90064102564111 14.4265910523  2.91346153846143 14.3383742911153  L 3.74038461538453 9.61247637051042  L 0.240384615384528 6.26654064272213  C 0.080128205128176 6.09640831758031  0 5.94517958412098  0 5.81285444234402  C 0 5.5797101449275  0.179487179487069 5.43478260869563  0.538461538461434 5.37807183364839  L 5.36538461538453 4.68809073724003  L 7.52884615384619 0.387523629489579  C 7.65064102564111 0.129174543163231  7.80769230769238 0  8 0  C 8.19230769230762 0  8.34935897435889 0.129174543163231  8.47115384615381 0.387523629489579  L 10.6346153846155 4.68809073724003  L 15.4615384615386 5.37807183364839  Z " fill-rule="nonzero" fill="#ffffff" stroke="none" transform="matrix(1 0 0 1 155 2562 )" />
    <path d="M 15.4615384615386 5.37807183364839  C 15.8205128205129 5.43478260869563  16 5.5797101449275  16 5.81285444234402  C 16 5.95148078134844  15.9166666666667 6.10270951480777  15.75 6.26654064272213  L 12.2596153846155 9.61247637051042  L 13.0865384615386 14.3383742911153  C 13.0929487179487 14.3824826717076  13.0961538461538 14.4454946439823  13.0961538461538 14.5274102079395  C 13.0961538461538 14.6597353497165  13.0625 14.7715816005041  12.9951923076924 14.8629489603024  C 12.9278846153845 14.9543163201008  12.8301282051282 15  12.7019230769231 15  C 12.5801282051282 15  12.4519230769231 14.9621928166351  12.3173076923076 14.8865784499055  L 8 12.6559546313799  L 3.68269230769238 14.8865784499055  C 3.54166666666674 14.9621928166351  3.41346153846143 15  3.29807692307691 15  C 3.16346153846143 15  3.0625 14.9543163201008  2.99519230769238 14.8629489603024  C 2.92788461538453 14.7715816005041  2.89423076923072 14.6597353497165  2.89423076923072 14.5274102079395  C 2.89423076923072 14.4896030245746  2.90064102564111 14.4265910523  2.91346153846143 14.3383742911153  L 3.74038461538453 9.61247637051042  L 0.240384615384528 6.26654064272213  C 0.080128205128176 6.09640831758031  0 5.94517958412098  0 5.81285444234402  C 0 5.5797101449275  0.179487179487069 5.43478260869563  0.538461538461434 5.37807183364839  L 5.36538461538453 4.68809073724003  L 7.52884615384619 0.387523629489579  C 7.65064102564111 0.129174543163231  7.80769230769238 0  8 0  C 8.19230769230762 0  8.34935897435889 0.129174543163231  8.47115384615381 0.387523629489579  L 10.6346153846155 4.68809073724003  L 15.4615384615386 5.37807183364839  Z " stroke-width="2" stroke="#999999" fill="none" transform="matrix(1 0 0 1 155 2562 )" mask="url(#clip46)" />
  </g>
</svg>