<?xml version="1.0" encoding="utf-8"?>
<svg version="1.1" xmlns:xlink="http://www.w3.org/1999/xlink" width="5px" height="20px" xmlns="http://www.w3.org/2000/svg">
  <g transform="matrix(1 0 0 1 -35 -7171 )">
    <path d="M 0 2.5  C 0 3.88125000000036  1.11875000000001 5  2.5 5  C 3.88124999999999 5  5 3.88125000000036  5 2.5  C 5 1.11874999999964  3.88124999999999 0  2.5 0  C 1.11875000000001 0  0 1.11874999999964  0 2.5  Z M 5 10  C 5 8.61874999999964  3.88124999999999 7.5  2.5 7.5  C 1.11875000000001 7.5  0 8.61874999999964  0 10  C 0 11.3812500000004  1.11875000000001 12.5  2.5 12.5  C 3.88124999999999 12.5  5 11.3812500000004  5 10  Z M 5 17.5  C 5 16.1187499999996  3.88124999999999 15  2.5 15  C 1.11875000000001 15  0 16.1187499999996  0 17.5  C 0 18.8812500000004  1.11875000000001 20  2.5 20  C 3.88124999999999 20  5 18.8812500000004  5 17.5  Z " fill-rule="nonzero" fill="#000000" stroke="none" transform="matrix(1 0 0 1 35 7171 )" />
  </g>
</svg>