<?xml version="1.0" encoding="utf-8"?>
<svg version="1.1" xmlns:xlink="http://www.w3.org/1999/xlink" width="23px" height="19px" xmlns="http://www.w3.org/2000/svg">
  <g transform="matrix(1 0 0 1 -1445 -5898 )">
    <path d="M 22.7729194081351 11.9984999999997  L 20.278989138026 10.4262500000004  C 20.3262674369853 10.1222500000003  20.3617261612048 9.8135000000002  20.3617261612048 9.5  C 20.3617261612048 9.1864999999998  20.3262674369853 8.87774999999965  20.278989138026 8.57374999999956  L 22.7788291955048 7.00150000000031  C 23.0034011155622 6.85900000000038  23.0684087766313 6.60249999999996  22.920664092383 6.39350000000013  L 20.5567491444126 3.10174999999981  C 20.4090044601644 2.89750000000004  20.1016955169282 2.8119999999999  19.8357550852816 2.89750000000004  L 16.8926809750581 3.85224999999991  C 16.2839728759557 3.47699999999986  15.616166903154 3.1587499999996  14.8951728440229 2.91650000000027  L 14.4519387912783 0.399000000000342  C 14.398750704949 0.175750000000335  14.1564494227821 0  13.8609600542857 0  L 9.13313015834433 0  C 8.83764078984814 0  8.59533950768105 0.175750000000335  8.54806120872172 0.399000000000342  L 8.10482715597709 2.91650000000027  C 7.38383309684605 3.1587499999996  6.71602712404433 3.4722499999998  6.10731902494194 3.85224999999991  L 3.16424491471844 2.89750000000004  C 2.8983044830718 2.81674999999996  2.5909955398356 2.89750000000004  2.44325085558739 3.10174999999981  L 0.0793359076169509 6.39350000000013  C -0.0684087766312587 6.59774999999991  -0.00340111556215561 6.85425000000032  0.221170804495159 7.00150000000031  L 2.71510107460404 8.57374999999956  C 2.66782277564471 8.87774999999965  2.63236405142516 9.1864999999998  2.63236405142516 9.5  C 2.63236405142516 9.8135000000002  2.66782277564471 10.1222500000003  2.71510107460404 10.4262500000004  L 0.221170804495159 11.9984999999997  C -0.00340111556215561 12.1409999999996  -0.0684087766312587 12.3975  0.0793359076169509 12.6064999999999  L 2.44325085558739 15.8982500000002  C 2.5909955398356 16.1025  2.8983044830718 16.1880000000001  3.16424491471844 16.1025  L 6.10731902494194 15.1477500000001  C 6.71602712404433 15.5230000000001  7.38383309684605 15.8412500000004  8.10482715597709 16.0834999999997  L 8.54806120872172 18.6009999999997  C 8.59533950768105 18.8242499999997  8.83764078984814 19  9.13313015834433 19  L 13.8609600542857 19  C 14.1564494227821 19  14.398750704949 18.8242499999997  14.4460290039085 18.6009999999997  L 14.8892630566529 16.0834999999997  C 15.610257115784 15.8412500000004  16.2780630885857 15.5277500000002  16.8867711876881 15.1477500000001  L 19.8298452979116 16.1025  C 20.0957857295582 16.18325  20.4030946727944 16.1025  20.5508393570426 15.8982500000002  L 22.9147543050133 12.6064999999999  C 23.0624989892613 12.4022500000001  22.9974913281922 12.1457499999997  22.7729194081351 11.9984999999997  Z M 15.6338962652637 9.5  C 15.6338962652637 11.3382499999998  13.7841328184766 12.8249999999998  11.497045106315 12.8249999999998  C 9.20995739415343 12.8249999999998  7.3601939473665 11.3382499999998  7.3601939473665 9.5  C 7.3601939473665 7.66175000000021  9.20995739415343 6.17500000000018  11.497045106315 6.17500000000018  C 13.7841328184766 6.17500000000018  15.6338962652637 7.66175000000021  15.6338962652637 9.5  Z " fill-rule="nonzero" fill="#666666" stroke="none" transform="matrix(1 0 0 1 1445 5898 )" />
  </g>
</svg>