<?xml version="1.0" encoding="utf-8"?>
<svg version="1.1" xmlns:xlink="http://www.w3.org/1999/xlink" width="20px" height="19px" xmlns="http://www.w3.org/2000/svg">
  <g transform="matrix(1 0 0 1 -1397 -5898 )">
    <path d="M 16.6666666666665 5.42857142857156  C 16.6666666666665 6.46763392857156  16.3237847222222 7.42894345238074  15.6380208333335 8.3125  C 16.0460069444443 8.41145833333303  16.4344618055557 8.54575892857156  16.8033854166665 8.71540178571468  C 17.1723090277778 8.88504464285688  17.55859375 9.14304315476147  17.9622395833335 9.48939732142844  C 18.3658854166665 9.83575148809541  18.7109375 10.2439546130954  18.9973958333335 10.7140066964284  C 19.2838541666665 11.1840587797615  19.5225694444443 11.7919456845239  19.7135416666665 12.5376674107147  C 19.9045138888889 13.2833891369046  20 14.1192336309523  20 15.0452008928569  C 20 16.1337425595239  19.5659722222222 17.0650111607147  18.6979166666665 17.8390066964284  C 17.8298611111111 18.6130022321431  16.7838541666665 19  15.5598958333335 19  L 4.44010416666652 19  C 3.21614583333348 19  2.17013888888891 18.6130022321431  1.30208333333348 17.8390066964284  C 0.434027777777828 17.0650111607147  0 16.1337425595239  0 15.0452008928569  C 0 14.1192336309523  0.0954861111110858 13.2833891369046  0.286458333333485 12.5376674107147  C 0.477430555555657 11.7919456845239  0.716145833333485 11.1840587797615  1.00260416666652 10.7140066964284  C 1.2890625 10.2439546130954  1.63411458333348 9.83575148809541  2.03776041666652 9.48939732142844  C 2.44140625 9.14304315476147  2.82769097222217 8.88504464285688  3.19661458333348 8.71540178571468  C 3.56553819444434 8.54575892857156  3.95399305555566 8.41145833333303  4.36197916666652 8.3125  C 3.67621527777783 7.42894345238074  3.33333333333348 6.46763392857156  3.33333333333348 5.42857142857156  C 3.33333333333348 4.69345238095229  3.50911458333348 3.99190848214312  3.86067708333348 3.32393973214312  C 4.21223958333348 2.65597098214312  4.6875 2.078125  5.28645833333348 1.59040178571468  C 5.88541666666652 1.10267857142844  6.59505208333348 0.715680803571559  7.41536458333348 0.429408482143117  C 8.23567708333348 0.143136160714675  9.09722222222217 0  10 0  C 10.9027777777778 0  11.7643229166665 0.143136160714675  12.5846354166665 0.429408482143117  C 13.4049479166665 0.715680803571559  14.1145833333335 1.10267857142844  14.7135416666665 1.59040178571468  C 15.3125 2.078125  15.7877604166665 2.65597098214312  16.1393229166665 3.32393973214312  C 16.4908854166665 3.99190848214312  16.6666666666665 4.69345238095229  16.6666666666665 5.42857142857156  Z M 13.53515625 2.54994419642844  C 12.55859375 1.75474330357156  11.3802083333335 1.35714285714312  10 1.35714285714312  C 8.61979166666652 1.35714285714312  7.44140625 1.75474330357156  6.46484375 2.54994419642844  C 5.48828125 3.34514508928532  5 4.3046875  5 5.42857142857156  C 5 6.55245535714312  5.48828125 7.51199776785688  6.46484375 8.30719866071468  C 7.44140625 9.10239955357156  8.61979166666652 9.5  10 9.5  C 11.3802083333335 9.5  12.55859375 9.10239955357156  13.53515625 8.30719866071468  C 14.51171875 7.51199776785688  15 6.55245535714312  15 5.42857142857156  C 15 4.3046875  14.51171875 3.34514508928532  13.53515625 2.54994419642844  Z M 4.44010416666652 17.6428571428569  L 15.5598958333335 17.6428571428569  C 16.3237847222222 17.6428571428569  16.9769965277778 17.3901599702385  17.51953125 16.884765625  C 18.0620659722222 16.3793712797615  18.3333333333335 15.7661830357147  18.3333333333335 15.0452008928569  C 18.3333333333335 13.3558407738092  17.9926215277778 12.0234375  17.3111979166665 11.0479910714284  C 16.6297743055557 10.0725446428569  15.6510416666665 9.56008184523853  14.375 9.51060267857156  C 13.1163194444443 10.4082961309523  11.6579861111111 10.8571428571431  10 10.8571428571431  C 8.34201388888891 10.8571428571431  6.88368055555566 10.4082961309523  5.625 9.51060267857156  C 4.34895833333348 9.56008184523853  3.37022569444434 10.0725446428569  2.68880208333348 11.0479910714284  C 2.00737847222217 12.0234375  1.66666666666652 13.3558407738092  1.66666666666652 15.0452008928569  C 1.66666666666652 15.7661830357147  1.93793402777783 16.3793712797615  2.48046875 16.884765625  C 3.02300347222217 17.3901599702385  3.67621527777783 17.6428571428569  4.44010416666652 17.6428571428569  Z " fill-rule="nonzero" fill="#666666" stroke="none" transform="matrix(1 0 0 1 1397 5898 )" />
  </g>
</svg>