<?xml version="1.0" encoding="utf-8"?>
<svg version="1.1" xmlns:xlink="http://www.w3.org/1999/xlink" width="17px" height="12px" xmlns="http://www.w3.org/2000/svg">
  <g transform="matrix(1 0 0 1 -1283 -5902 )">
    <path d="M 3.11160714285688 9.20454545454504  C 3.4657738095234 9.52272727272702  3.64285714285688 9.90909090909099  3.64285714285688 10.363636363636  C 3.64285714285688 10.818181818182  3.4657738095234 11.204545454545  3.11160714285688 11.522727272727  C 2.75744047619082 11.840909090909  2.32738095238119 12  1.8214285714289 12  C 1.3154761904766 12  0.885416666666515 11.840909090909  0.53125 11.522727272727  C 0.177083333333485 11.204545454545  0 10.818181818182  0 10.363636363636  C 0 9.90909090909099  0.177083333333485 9.52272727272702  0.53125 9.20454545454504  C 0.885416666666515 8.88636363636397  1.3154761904766 8.72727272727298  1.8214285714289 8.72727272727298  C 2.32738095238119 8.72727272727298  2.75744047619082 8.88636363636397  3.11160714285688 9.20454545454504  Z M 3.11160714285688 4.84090909090901  C 3.4657738095234 5.15909090909099  3.64285714285688 5.54545454545496  3.64285714285688 6  C 3.64285714285688 6.45454545454504  3.4657738095234 6.84090909090901  3.11160714285688 7.15909090909099  C 2.75744047619082 7.47727272727298  2.32738095238119 7.63636363636397  1.8214285714289 7.63636363636397  C 1.3154761904766 7.63636363636397  0.885416666666515 7.47727272727298  0.53125 7.15909090909099  C 0.177083333333485 6.84090909090901  0 6.45454545454504  0 6  C 0 5.54545454545496  0.177083333333485 5.15909090909099  0.53125 4.84090909090901  C 0.885416666666515 4.52272727272702  1.3154761904766 4.36363636363603  1.8214285714289 4.36363636363603  C 2.32738095238119 4.36363636363603  2.75744047619082 4.52272727272702  3.11160714285688 4.84090909090901  Z M 16.9098772321431 9.35369318181802  C 16.9699590773812 9.40767045454504  17 9.47159090909099  17 9.54545454545496  L 17 11.181818181818  C 17 11.255681818182  16.9699590773812 11.319602272727  16.9098772321431 11.373579545455  C 16.8497953869046 11.427556818182  16.7786458333335 11.454545454545  16.6964285714289 11.454545454545  L 5.16071428571422 11.454545454545  C 5.07849702380918 11.454545454545  5.00734747023807 11.427556818182  4.947265625 11.373579545455  C 4.88718377976193 11.319602272727  4.85714285714312 11.255681818182  4.85714285714312 11.181818181818  L 4.85714285714312 9.54545454545496  C 4.85714285714312 9.47159090909099  4.88718377976193 9.40767045454504  4.947265625 9.35369318181802  C 5.00734747023807 9.29971590909099  5.07849702380918 9.27272727272702  5.16071428571422 9.27272727272702  L 16.6964285714289 9.27272727272702  C 16.7786458333335 9.27272727272702  16.8497953869046 9.29971590909099  16.9098772321431 9.35369318181802  Z M 3.11160714285688 0.477272727272975  C 3.4657738095234 0.795454545454959  3.64285714285688 1.18181818181802  3.64285714285688 1.63636363636397  C 3.64285714285688 2.09090909090901  3.4657738095234 2.47727272727298  3.11160714285688 2.79545454545496  C 2.75744047619082 3.11363636363603  2.32738095238119 3.27272727272702  1.8214285714289 3.27272727272702  C 1.3154761904766 3.27272727272702  0.885416666666515 3.11363636363603  0.53125 2.79545454545496  C 0.177083333333485 2.47727272727298  0 2.09090909090901  0 1.63636363636397  C 0 1.18181818181802  0.177083333333485 0.795454545454959  0.53125 0.477272727272975  C 0.885416666666515 0.159090909090992  1.3154761904766 0  1.8214285714289 0  C 2.32738095238119 0  2.75744047619082 0.159090909090992  3.11160714285688 0.477272727272975  Z M 16.9098772321431 4.99005681818198  C 16.9699590773812 5.04403409090901  17 5.10795454545496  17 5.18181818181802  L 17 6.81818181818198  C 17 6.89204545454504  16.9699590773812 6.95596590909099  16.9098772321431 7.00994318181802  C 16.8497953869046 7.06392045454504  16.7786458333335 7.09090909090901  16.6964285714289 7  L 5.16071428571422 7  C 5.07849702380918 7.09090909090901  5.00734747023807 7.06392045454504  4.947265625 7.00994318181802  C 4.88718377976193 6.95596590909099  4.85714285714312 6.89204545454504  4.85714285714312 6.81818181818198  L 4.85714285714312 5.18181818181802  C 4.85714285714312 5.10795454545496  4.88718377976193 5.04403409090901  4.947265625 4.99005681818198  C 5.00734747023807 4.93607954545496  5.07849702380918 4.90909090909099  5.16071428571422 5  L 16.6964285714289 5  C 16.7786458333335 4.90909090909099  16.8497953869046 4.93607954545496  16.9098772321431 4.99005681818198  Z M 16.9098772321431 0.626420454545041  C 16.9699590773812 0.680397727272975  17 0.744318181818016  17 0.818181818181984  L 17 2.45454545454504  C 17 2.52840909090901  16.9699590773812 2.59232954545496  16.9098772321431 2.64630681818198  C 16.8497953869046 2.70028409090901  16.7786458333335 2.72727272727298  16.6964285714289 2.72727272727298  L 5.16071428571422 2.72727272727298  C 5.07849702380918 2.72727272727298  5.00734747023807 2.70028409090901  4.947265625 2.64630681818198  C 4.88718377976193 2.59232954545496  4.85714285714312 2.52840909090901  4.85714285714312 2.45454545454504  L 4.85714285714312 0.818181818181984  C 4.85714285714312 0.744318181818016  4.88718377976193 0.680397727272975  4.947265625 0.626420454545041  C 5.00734747023807 0.572443181818016  5.07849702380918 0.545454545454959  5.16071428571422 0.545454545454959  L 16.6964285714289 0.545454545454959  C 16.7786458333335 0.545454545454959  16.8497953869046 0.572443181818016  16.9098772321431 0.626420454545041  Z " fill-rule="nonzero" fill="#666666" stroke="none" transform="matrix(1 0 0 1 1283 5902 )" />
  </g>
</svg>