<?xml version="1.0" encoding="utf-8"?>
<svg version="1.1" xmlns:xlink="http://www.w3.org/1999/xlink" width="10px" height="10px" xmlns="http://www.w3.org/2000/svg">
  <g transform="matrix(1 0 0 1 -976 -8962 )">
    <path d="M 10 0  L 8.53125 1.46875  C 7.62812500000007 0.5625  6.38125000000002 0  5 0  C 2.23750000000007 0  0.00624999999990905 2.23750000000018  0.00624999999990905 5  C 0.00624999999990905 7.76249999999982  2.23750000000007 10  5 10  C 7.328125 10  9.27812500000005 8.40625  9.83124999999995 6.25  L 8.53125 6.25  C 8.015625 7.70625000000018  6.63437500000009 8.75  5 8.75  C 2.92812500000002 8.75  1.25 7.07187500000009  1.25 5  C 1.25 2.92812499999991  2.92812500000002 1.25  5 1.25  C 6.03437499999995 1.25  6.96249999999998 1.68125000000009  7.640625 2.359375  L 5.625 4.375  L 10 4.375  L 10 0  Z " fill-rule="nonzero" fill="#333333" stroke="none" transform="matrix(1 0 0 1 976 8962 )" />
  </g>
</svg>