<?xml version="1.0" encoding="utf-8"?>
<svg version="1.1" xmlns:xlink="http://www.w3.org/1999/xlink" width="10px" height="8px" xmlns="http://www.w3.org/2000/svg">
  <defs>
    <mask fill="white" id="clip60">
      <path d="M 9.21388888888896 0.0503703703707288  L 3.33333333333326 6.32296296296317  L 1.01666666666665 3.85185185185219  L 0.230555555555611 4.69037037037106  L 3.33333333333326 8  L 10 0.888888888889596  L 9.21388888888896 0.0503703703707288  Z " fill-rule="evenodd" />
    </mask>
  </defs>
  <g transform="matrix(1 0 0 1 -165 -4982 )">
    <path d="M 9.21388888888896 0.0503703703707288  L 3.33333333333326 6.32296296296317  L 1.01666666666665 3.85185185185219  L 0.230555555555611 4.69037037037106  L 3.33333333333326 8  L 10 0.888888888889596  L 9.21388888888896 0.0503703703707288  Z " fill-rule="nonzero" fill="#ffffff" stroke="none" transform="matrix(1 0 0 1 165 4982 )" />
    <path d="M 9.21388888888896 0.0503703703707288  L 3.33333333333326 6.32296296296317  L 1.01666666666665 3.85185185185219  L 0.230555555555611 4.69037037037106  L 3.33333333333326 8  L 10 0.888888888889596  L 9.21388888888896 0.0503703703707288  Z " stroke-width="2" stroke="#ffffff" fill="none" transform="matrix(1 0 0 1 165 4982 )" mask="url(#clip60)" />
  </g>
</svg>