<?xml version="1.0" encoding="utf-8"?>
<svg version="1.1" xmlns:xlink="http://www.w3.org/1999/xlink" width="18px" height="32px" xmlns="http://www.w3.org/2000/svg">
  <g transform="matrix(1 0 0 1 -75 -3308 )">
    <path d="M 17.6907216494845 1.9238476953908  C 17.8969072164949 2.13760855043415  18 2.38343353373421  18 2.66132264529051  C 18 2.93921175684704  17.8969072164949 3.18503674014687  17.6907216494845 3.39879759519044  L 5.5360824742268 16  L 17.6907216494845 28.6012024048096  C 17.8969072164949 28.8149632598531  18 29.060788243153  18 29.3386773547095  C 18 29.6165664662658  17.8969072164949 29.8623914495658  17.6907216494845 30.0761523046092  L 16.1443298969072 31.679358717435  C 15.9381443298969 31.8931195724783  15.701030927835 32  15.4329896907217 32  C 15.1649484536082 32  14.9278350515464 31.8931195724783  14.7216494845361 31.679358717435  L 0.30927835051547 16.7374749498997  C 0.103092783505161 16.5237140948564  0 16.2778891115565  0 16  C 0 15.7221108884435  0.103092783505161 15.4762859051436  0.30927835051547 15.2625250501003  L 14.7216494845361 0.32064128256502  C 14.9278350515464 0.106880427521673  15.1649484536082 0  15.4329896907217 0  C 15.701030927835 0  15.9381443298969 0.106880427521673  16.1443298969072 0.32064128256502  L 17.6907216494845 1.9238476953908  Z " fill-rule="nonzero" fill="#666666" stroke="none" transform="matrix(1 0 0 1 75 3308 )" />
  </g>
</svg>