<?xml version="1.0" encoding="utf-8"?>
<svg version="1.1" xmlns:xlink="http://www.w3.org/1999/xlink" width="7px" height="28px" xmlns="http://www.w3.org/2000/svg">
  <g transform="matrix(1 0 0 1 -1381 -1119 )">
    <path d="M 0 3.5  C 0 5.43375000000003  1.56625000000008 7  3.5 7  C 5.43374999999992 7  7 5.43375000000003  7 3.5  C 7 1.56624999999997  5.43374999999992 0  3.5 0  C 1.56625000000008 0  0 1.56624999999997  0 3.5  Z M 7 14  C 7 12.06625  5.43374999999992 10.5  3.5 10.5  C 1.56625000000008 10.5  0 12.06625  0 14  C 0 15.93375  1.56625000000008 17.5  3.5 17.5  C 5.43374999999992 17.5  7 15.93375  7 14  Z M 7 24.5  C 7 22.56625  5.43374999999992 21  3.5 21  C 1.56625000000008 21  0 22.56625  0 24.5  C 0 26.43375  1.56625000000008 28  3.5 28  C 5.43374999999992 28  7 26.43375  7 24.5  Z " fill-rule="nonzero" fill="#666666" stroke="none" transform="matrix(1 0 0 1 1381 1119 )" />
  </g>
</svg>